<svg width="112" height="16" viewBox="0 0 112 16" fill="none" xmlns="http://www.w3.org/2000/svg">
<path d="M7.99956 0.0175781L5.2636 4.7118L0.0351562 5.91162L3.57267 10.0126L3.07733 15.4487L7.99956 13.2889L12.9218 15.4487L12.4264 10.0126L15.964 5.91162L10.7355 4.7118L7.99956 0.0175781Z" fill="#FFB000"/>
<path d="M31.9996 0.0175781L29.2636 4.7118L24.0352 5.91162L27.5727 10.0126L27.0773 15.4487L31.9996 13.2889L36.9218 15.4487L36.4264 10.0126L39.964 5.91162L34.7355 4.7118L31.9996 0.0175781Z" fill="#FFB000"/>
<path d="M55.9996 0.0175781L53.2636 4.7118L48.0352 5.91162L51.5727 10.0126L51.0773 15.4487L55.9996 13.2889L60.9218 15.4487L60.4264 10.0126L63.964 5.91162L58.7355 4.7118L55.9996 0.0175781Z" fill="#FFB000"/>
<path d="M79.9996 0.0175781L77.2636 4.7118L72.0352 5.91162L75.5727 10.0126L75.0773 15.4487L79.9996 13.2889L84.9218 15.4487L84.4264 10.0126L87.964 5.91162L82.7355 4.7118L79.9996 0.0175781Z" fill="#FFB000"/>
<path d="M101.375 5.19913L101.587 5.15069L101.696 4.96358L104 1.01053L106.304 4.96358L106.413 5.15069L106.624 5.19913L111.043 6.21336L108.048 9.68607L107.909 9.84672L107.929 10.058L108.347 14.6504L104.2 12.8311L104 12.7429L103.799 12.8311L99.6521 14.6504L100.071 10.058L100.09 9.84672L99.9513 9.68606L96.9557 6.21336L101.375 5.19913Z" stroke="#FFB000"/>
</svg>
