<svg width="1716" height="261" viewBox="0 0 1716 261" fill="none" xmlns="http://www.w3.org/2000/svg">
<path d="M43.5 126.001C54.0003 143.167 82.3007 178.201 111.5 181.001C147.999 184.5 220 185 229.5 168.5C239 152 277 113.001 324 109.501C371 106.001 373.5 93.0006 391 109.501C408.5 126.001 578.5 68.5008 615 45.0008C651.5 21.5008 682.5 -8.4994 781 20.0006C879.5 48.5006 853 22.5004 936 53.0004C1019 83.5004 1161.5 78.9998 1197.5 70C1233.5 61.0002 1262 144 1335 171C1408 198 1439 84.9998 1517.5 76C1596 67.0002 1645.5 163 1684 205" stroke="#F7F7F7" stroke-width="2"/>
<g clip-path="url(#clip0_1893_11800)">
<path d="M1327.78 192.956L1324.87 194.581L1324.87 194.581C1324.25 194.946 1323.44 194.747 1323.06 194.132L1313.3 177.418C1313.13 177.125 1313.1 176.78 1313.2 176.46C1313.29 176.141 1313.52 175.875 1313.82 175.724L1316.72 174.099L1316.72 174.099C1317.34 173.734 1318.14 173.927 1318.53 174.536L1318.53 174.548C1329.31 192.978 1327.61 190.062 1328.29 191.25L1328.29 191.251C1328.45 191.544 1328.49 191.891 1328.39 192.212C1328.3 192.533 1328.07 192.801 1327.78 192.956L1327.78 192.956Z" fill="#ECECEC"/>
<path d="M1342.48 162.881C1342.07 163.248 1341.55 163.448 1341 163.441C1340.45 163.435 1339.93 163.221 1339.53 162.845C1339.14 162.467 1338.9 161.955 1338.87 161.409L1338.2 154.682C1338.14 153.957 1337.73 153.306 1337.1 152.93L1331.4 149.568L1331.4 149.568C1330.92 149.291 1330.57 148.85 1330.39 148.329C1330.22 147.808 1330.24 147.241 1330.46 146.735C1330.67 146.23 1331.06 145.819 1331.56 145.581L1337.5 142.976C1338.16 142.684 1338.62 142.086 1338.74 141.38L1339.95 134.776C1340.03 134.238 1340.32 133.754 1340.76 133.427C1341.19 133.099 1341.74 132.953 1342.28 133.019C1342.82 133.086 1343.31 133.359 1343.65 133.782L1348 138.901C1348.45 139.451 1349.16 139.737 1349.87 139.663L1356.32 138.946C1356.87 138.905 1357.41 139.065 1357.85 139.395C1358.29 139.726 1358.59 140.206 1358.7 140.743C1358.81 141.281 1358.72 141.841 1358.45 142.319L1355.19 148.083L1355.19 148.083C1354.84 148.721 1354.81 149.489 1355.12 150.151L1357.9 156.309C1358.15 156.797 1358.2 157.361 1358.04 157.885C1357.89 158.409 1357.54 158.856 1357.07 159.134C1356.6 159.413 1356.05 159.504 1355.51 159.389L1349.15 157.832C1348.47 157.662 1347.74 157.857 1347.23 158.348L1342.48 162.881Z" fill="#DBDBDB"/>
<path d="M1376.53 161.097C1376.91 161.399 1377.14 161.846 1377.18 162.33C1377.21 162.815 1377.05 163.291 1376.72 163.647L1355.01 186.963C1354.29 187.744 1353.3 188.206 1352.24 188.248C1352.23 188.251 1329.85 189.071 1329.84 189.066L1320.71 173.411C1323.18 172.128 1325.69 170.812 1327.36 169.934C1328.66 169.258 1330.12 168.942 1331.58 169.019L1341.33 169.515L1341.33 169.515C1342.19 169.562 1343.05 169.472 1343.88 169.25C1347.86 167.896 1351.92 166.806 1356.05 165.989C1356.84 165.854 1357.65 166.081 1358.25 166.608C1358.85 167.135 1359.19 167.906 1359.16 168.706C1359.13 169.506 1358.74 170.251 1358.11 170.735C1355.22 172.785 1345.26 175.012 1341.66 175.697C1341.04 175.858 1340.65 176.474 1340.77 177.107C1340.89 177.738 1341.47 178.17 1342.11 178.092C1344.63 177.638 1355.96 175.28 1359.53 172.716C1362.34 170.678 1362.04 167.354 1361.14 166.333C1363.33 164.48 1366.78 161.596 1368.29 160.46L1368.29 160.46C1369.71 159.417 1371.49 159.006 1373.23 159.325C1374.42 159.736 1375.53 160.335 1376.53 161.097L1376.53 161.097Z" fill="#ECECEC"/>
</g>
<g clip-path="url(#clip1_1893_11800)">
<path d="M607.954 54.48C610.505 54.203 613.943 54.7703 620.881 50.7646L631.647 44.549C633.262 43.6166 633.818 41.5411 632.885 39.9262C631.953 38.3112 629.878 37.7551 628.263 38.6875L628.621 38.4803C630.117 37.617 630.811 35.781 630.187 34.1477C629.39 32.2153 627.057 31.489 625.322 32.4905L625.681 32.2834C627.176 31.4201 627.871 29.5841 627.247 27.9507C626.45 26.0183 624.117 25.2921 622.382 26.2936L622.861 26.0173C624.476 25.0849 625.032 23.0094 624.099 21.3944C623.167 19.7795 621.091 19.2233 619.477 20.1558L610.087 25.5768C609.549 25.8875 608.854 25.6508 608.663 25.0435C606.913 20.6312 606.956 18.7719 604.957 14.3437C603.028 10.035 596.847 12.7266 598.21 16.8837C600.695 24.7792 597.587 32.7939 596.501 35.3344C596.255 35.8754 596.318 36.3974 596.594 36.8759L606.263 53.6227C606.608 54.2205 607.278 54.5513 607.954 54.4801L607.954 54.48Z" fill="#ECECEC"/>
<path d="M592.342 38.2142L585.105 42.3926C584.267 42.876 583.989 43.9138 584.473 44.7511L593.451 60.3016C593.934 61.1389 594.972 61.417 595.809 60.9336L603.046 56.7552C603.884 56.2718 604.162 55.234 603.678 54.3967L594.7 38.8462C594.217 38.0088 593.179 37.7308 592.342 38.2142ZM597.558 55.5377C596.661 56.0555 595.589 55.7178 595.071 54.8204C594.553 53.9235 594.891 52.8512 595.728 52.3677C596.625 51.8499 597.698 52.1876 598.181 53.0249C598.699 53.9219 598.396 55.0542 597.558 55.5377Z" fill="#ECECEC"/>
<path d="M608.368 70.6687L604.606 72.4415C604.247 72.6487 603.81 72.5823 603.483 72.2922L600.174 69.7371C599.426 69.1322 598.289 69.7883 598.44 70.7384L598.998 74.8818C599.051 75.2501 598.89 75.6618 598.566 75.9291L595.15 78.3002C594.347 78.8433 594.61 80.1272 595.578 80.2856L599.676 81.0296C600.114 81.096 600.381 81.4207 600.528 81.814L601.728 85.8261C601.818 86.8109 603.095 86.9509 603.571 86.1175L605.611 82.4678C605.807 82.1157 606.165 81.9086 606.628 81.8808L610.843 81.9993C611.803 82.0038 612.354 80.8875 611.692 80.1537L608.817 77.1085C608.55 76.7841 608.462 76.3565 608.564 75.9787L609.968 72.0576C610.186 71.0547 609.239 70.245 608.368 70.6688L608.368 70.6687Z" fill="#EBEBEB"/>
<path d="M628.286 59.1696L624.524 60.9425C624.165 61.1496 623.728 61.0833 623.401 60.7932L620.092 58.2381C619.344 57.6332 618.207 58.2893 618.358 59.2394L618.916 63.3828C618.969 63.7511 618.808 64.1628 618.484 64.43L615.067 66.8012C614.265 67.3442 614.528 68.6282 615.496 68.7866L619.594 69.5306C620.031 69.5969 620.299 69.9217 620.446 70.3149L621.646 74.327C621.95 75.2679 623.227 75.408 623.669 74.5149L625.708 70.8653C625.904 70.5131 626.263 70.306 626.725 70.2783L630.94 70.3967C631.9 70.4013 632.452 69.2849 631.789 68.5512L628.64 65.5843C628.373 65.26 628.285 64.8323 628.386 64.4546L629.791 60.5334C630.044 59.5904 629.157 58.746 628.286 59.1697L628.286 59.1696Z" fill="#DBDBDB"/>
<path d="M649.613 49.0091C649.96 48.0911 648.98 47.2215 648.108 47.6452L644.346 49.4181C643.988 49.6252 643.551 49.5589 643.223 49.2688L639.914 46.7137C639.166 46.1087 638.03 46.7648 638.18 47.715L638.738 51.8584C638.791 52.2266 638.63 52.6384 638.306 52.9056L634.89 55.2767C634.087 55.8198 634.35 57.1038 635.318 57.2621L639.417 58.0062C639.854 58.0725 640.121 58.3973 640.268 58.7905L641.468 62.8026C641.772 63.7435 643.049 63.8836 643.491 62.9905L645.531 59.3408C645.726 58.9887 646.085 58.7816 646.488 58.7883L650.703 58.9067C651.662 58.9113 652.214 57.7949 651.552 57.0612L648.677 54.016C648.41 53.6916 648.322 53.2639 648.424 52.8862L649.613 49.0091Z" fill="#EBEBEB"/>
</g>
<g clip-path="url(#clip2_1893_11800)">
<path d="M933.835 58.9553C935.343 58.5525 936.688 58.9958 937.64 60.1919C938.558 61.3627 938.859 62.9776 938.505 64.5607C946.587 64.6944 953.76 59.4391 955.891 51.4866C958.425 42.0283 952.793 32.2731 943.338 29.7394C933.882 27.2062 924.124 32.8375 921.59 42.2955C919.438 50.3253 923.258 58.7117 930.485 62.517C930.958 60.8028 932.225 59.4298 933.835 58.9551L933.835 58.9553ZM946.732 37.8101C947.648 38.0557 948.38 38.6699 948.853 39.4888C949.675 39.0169 950.619 38.8517 951.535 39.0972C953.565 39.6411 954.703 42.0004 954.072 44.3577C952.821 49.0273 946.823 50.1379 946.572 50.1828C946.378 50.2168 946.182 50.2091 945.997 50.1597C945.813 50.1103 945.638 50.0219 945.488 49.8925C945.29 49.7278 940.654 45.768 941.906 41.0978C942.534 38.7397 944.702 37.2662 946.732 37.8101L946.732 37.8101ZM930.817 46.0882C930.632 46.0388 930.455 45.9496 930.308 45.821C930.109 45.6563 925.472 41.6993 926.723 37.0297C927.355 34.6726 929.52 33.1983 931.553 33.743C932.47 33.9886 933.205 34.6036 933.675 35.4217C934.494 34.949 935.438 34.7838 936.354 35.0293C938.384 35.5732 939.522 37.9325 938.89 40.2898C937.639 44.9594 931.644 46.0708 931.39 46.1149C931.199 46.1496 931.001 46.1377 930.817 46.0883L930.817 46.0882ZM931.59 51.8332C932.224 51.467 933.036 51.6846 933.402 52.3189C934.331 53.9237 935.426 54.8355 936.727 55.1621C938.692 55.5899 940.529 54.3401 940.548 54.3297C941.149 53.9072 941.974 54.0453 942.399 54.6469C942.823 55.2452 942.68 56.0748 942.082 56.4983C941.971 56.5801 939.289 58.4452 936.159 57.7596C936.059 57.7393 935.96 57.716 935.865 57.6905C933.957 57.1793 932.356 55.8222 931.106 53.6529C930.735 53.0109 930.952 52.2013 931.59 51.8332L931.59 51.8332Z" fill="#DBDBDB"/>
<path d="M935.666 37.5922C935.137 37.4503 934.359 37.9949 934.09 39.0009C933.9 39.7094 933.171 40.13 932.463 39.9402C931.754 39.7503 931.334 39.0219 931.523 38.3133C931.793 37.3074 931.392 36.4468 930.865 36.3057C930.336 36.1638 929.558 36.7084 929.288 37.7144C928.659 40.0627 930.617 42.3962 931.549 43.3475C932.831 42.9924 935.694 41.9478 936.324 39.5995C936.596 38.5976 936.196 37.7342 935.666 37.5922L935.666 37.5922Z" fill="#E8E8E8"/>
<path d="M946.732 47.4151C948.014 47.0601 950.877 46.0154 951.506 43.6672C951.776 42.6612 951.378 41.8015 950.848 41.6596C950.315 41.5169 949.538 42.0615 949.268 43.0675C949.078 43.776 948.347 44.1958 947.641 44.0068C946.933 43.8169 946.512 43.0885 946.702 42.3799C946.972 41.3739 946.573 40.5142 946.044 40.3723C945.514 40.2304 944.739 40.7758 944.47 41.7818C943.841 44.1302 945.796 46.466 946.732 47.4151L946.732 47.4151Z" fill="#E8E8E8"/>
<path d="M923.482 96.6992L940.078 101.146L939.073 104.899L922.477 100.452L923.482 96.6992Z" fill="#EFEFEF"/>
<path d="M949.374 77.8854C949.039 77.3998 948.744 77.3111 948.551 77.2915C948.039 77.2371 947.423 77.5857 947.061 77.8396L946.083 81.4756C945.891 82.1833 945.162 82.6039 944.457 82.4148C943.746 82.2212 943.328 81.4936 943.517 80.788L944.559 76.9139C944.583 75.7754 944.443 74.3595 943.648 73.802C943.139 73.449 942.414 73.4906 941.887 73.5886L940.666 78.1324C940.473 78.8401 939.745 79.2607 939.039 79.0716C938.331 78.8788 937.911 78.1504 938.1 77.4448L939.445 72.4366C939.225 71.2103 938.868 70.7446 938.681 70.6815C938.27 70.6318 937.37 71.0736 936.599 71.7697L935.366 76.3613C935.176 77.0698 934.445 77.4866 933.739 77.3006C933.031 77.1107 932.614 76.3801 932.8 75.6737L934.119 70.7382L934.141 70.6579L935.903 64.1158C936.133 63.2588 936.01 62.4093 935.565 61.8431C935.276 61.4815 935.013 61.3923 934.558 61.5157C933.838 61.728 933.231 62.4229 933.005 63.3228L928.397 80.0436C928.233 80.6344 927.688 81.0369 927.074 81.0192C926.461 80.9955 925.941 80.5591 925.817 79.9614C924.62 74.164 923.308 72.6924 922.632 72.3361C922.354 72.1822 922.02 72.1434 921.361 72.4106C920.611 72.7105 920.145 73.5683 920.217 74.5028L920.834 83.5458C920.964 85.3221 921.145 86.7651 921.404 88.0718C921.872 90.4233 922.533 92.3714 923.362 93.92L941.171 98.6919C944.232 95.5278 946.517 91.6712 947.741 87.4472L949.727 80.534C950.003 79.5841 949.872 78.5985 949.373 77.8844L949.374 77.8854Z" fill="#EFEFEF"/>
</g>
<g clip-path="url(#clip3_1893_11800)">
<path d="M50.8446 149.033C50.9893 148.346 51.3489 147.723 51.8714 147.254C52.394 146.785 53.0521 146.494 53.7505 146.423L60.9235 145.671C61.4041 145.623 61.7988 145.269 61.8991 144.796C61.9987 144.323 61.7811 143.84 61.3608 143.602L55.1153 139.996C54.5081 139.645 54.0271 139.111 53.7414 138.47C53.4554 137.829 53.3794 137.115 53.5235 136.429L55.0216 129.371L55.022 129.371C55.12 128.902 54.9056 128.423 54.4908 128.183C54.0756 127.944 53.5535 127.998 53.1964 128.317L47.8375 133.14L47.8371 133.139C47.1577 133.747 46.2568 134.047 45.3487 133.966C45.3315 133.966 45.3149 133.971 45.2984 133.969L45.278 133.965L45.2534 133.965C44.7933 133.925 44.3485 133.783 43.9506 133.55L37.7052 129.944C37.2881 129.699 36.7603 129.752 36.4007 130.076C36.0413 130.399 35.9324 130.918 36.1324 131.359L39.0658 137.943C39.3544 138.585 39.4318 139.301 39.2863 139.989C39.1407 140.677 38.7799 141.301 38.2562 141.77L32.8994 146.591C32.5384 146.912 32.4265 147.43 32.6226 147.871C32.8189 148.312 33.278 148.576 33.7583 148.523L40.9211 147.764L40.9204 147.765C41.6205 147.694 42.3246 147.846 42.9337 148.197C43.5433 148.549 44.0265 149.083 44.3151 149.724L47.2433 156.313L47.244 156.313C47.4385 156.755 47.8965 157.02 48.3762 156.969C48.8564 156.918 49.2488 156.562 49.3457 156.089L50.8446 149.033Z" fill="#DBDBDB"/>
<path d="M61.6975 124.579L54.0107 120.141L48.6503 129.426L51.7138 126.669C52.415 126.042 53.3488 125.741 54.2837 125.841C55.2193 125.94 56.0691 126.43 56.6228 127.191C57.1768 127.951 57.3831 128.911 57.1907 129.831L55.693 136.885L55.6928 136.885C55.6241 137.231 55.7207 137.589 55.954 137.854C56.0315 137.941 56.1233 138.016 56.2248 138.074L59.2901 139.844L76.4871 110.057L63.9961 102.846L61.7772 106.689L69.4639 111.127C69.9945 111.433 70.1764 112.112 69.87 112.643C69.5637 113.173 68.885 113.355 68.3544 113.049L60.6677 108.611L58.4487 112.454L66.1355 116.892C66.6661 117.199 66.8479 117.877 66.5416 118.408C66.2352 118.938 65.5566 119.12 65.026 118.814L57.3392 114.376L55.1202 118.219L62.807 122.657C63.3376 122.964 63.5195 123.642 63.2131 124.173C62.9068 124.703 62.2281 124.885 61.6975 124.579L61.6975 124.579Z" fill="#EFEFEF"/>
<path d="M38.8147 128.022L44.8774 131.522L65.4029 95.9709L30.8125 76L3.07534 124.042L34.4867 142.178L36.7751 140.118C37.1317 139.797 37.2383 139.281 37.0386 138.845L34.1042 132.258C33.719 131.395 33.7185 130.409 34.103 129.546C34.4874 128.683 35.2202 128.024 36.1191 127.733C37.0179 127.443 37.9979 127.547 38.815 128.022L38.8147 128.022ZM34.2098 85.6482L55.3484 97.8527C55.879 98.159 56.0609 98.8377 55.7545 99.3683C55.4482 99.8989 54.7696 100.081 54.2389 99.7744L33.1004 87.5699C32.5698 87.2636 32.3879 86.585 32.6943 86.0543C33.0006 85.5237 33.6792 85.3419 34.2098 85.6482ZM29.7719 93.335L50.9105 105.539C51.4411 105.846 51.6229 106.524 51.3166 107.055C51.0102 107.586 50.3316 107.767 49.801 107.461L28.6624 95.2567C28.1318 94.9504 27.95 94.2717 28.2563 93.7411C28.5627 93.2105 29.2413 93.0287 29.7719 93.335ZM25.334 101.022L46.4725 113.226C47.0031 113.533 47.185 114.211 46.8786 114.742C46.5723 115.272 45.8937 115.454 45.3631 115.148L24.2245 102.943C23.6939 102.637 23.512 101.959 23.8184 101.428C24.1247 100.897 24.8034 100.715 25.334 101.022ZM19.7865 110.63C19.2559 110.324 19.0741 109.645 19.3804 109.115C19.6868 108.584 20.3654 108.402 20.896 108.709L42.0346 120.913C42.5652 121.219 42.747 121.898 42.4407 122.429C42.1344 122.959 41.4557 123.141 40.9251 122.835L19.7865 110.63Z" fill="#E6E6E6"/>
</g>
<g clip-path="url(#clip4_1893_11800)">
<path d="M410.589 121.621C412.802 118.143 414.104 114.014 414.104 109.602C414.104 97.177 404.002 87.0879 391.59 87.0879C379.177 87.0879 369.088 97.1775 369.088 109.602C369.088 122.014 379.178 132.104 391.59 132.104C396.015 132.104 400.131 130.801 403.622 128.589L420.619 146.729C421.688 147.872 423.138 148.511 424.711 148.535H424.809C426.333 148.535 427.771 147.945 428.852 146.852C429.958 145.746 430.561 144.271 430.523 142.71C430.499 141.15 429.86 139.699 428.717 138.63L410.589 121.621ZM391.59 129.646C380.541 129.646 371.545 120.65 371.545 109.601C371.545 98.5405 380.541 89.5444 391.59 89.5444C402.651 89.5444 411.647 98.5405 411.647 109.601C411.647 120.65 402.651 129.646 391.59 129.646Z" fill="#EFEFEF"/>
<path d="M406.99 108.975C403.807 103.494 397.908 100.077 391.591 100.077C385.273 100.077 379.375 103.493 376.191 108.975C375.97 109.356 375.97 109.836 376.191 110.216C379.374 115.697 385.273 119.114 391.591 119.114C397.908 119.114 403.807 115.698 406.99 110.216C407.211 109.835 407.211 109.356 406.99 108.975ZM391.591 114.456C388.911 114.456 386.724 112.281 386.724 109.602C386.724 106.91 388.911 104.735 391.591 104.735C394.27 104.735 396.458 106.91 396.458 109.602C396.458 112.281 394.27 114.456 391.591 114.456Z" fill="#DBDBDB"/>
</g>
<g clip-path="url(#clip5_1893_11800)">
<path d="M1217.35 40.7154C1215.2 38.887 1211.68 38.0624 1208.57 40.2445C1206.96 36.7976 1203.5 35.7534 1200.73 36.2625C1197.37 36.877 1195.12 39.4508 1194.98 42.8199C1194.92 44.3168 1195.29 45.7685 1196.12 47.1782L1203.3 57.881C1203.41 58.0477 1203.57 58.1598 1203.76 58.2085C1203.94 58.257 1204.14 58.2422 1204.32 58.1537L1215.92 52.4505C1217.3 51.6668 1218.35 50.597 1219.05 49.2707C1220.62 46.2834 1219.95 42.9259 1217.35 40.7154L1217.35 40.7154Z" fill="#DBDBDB"/>
<path d="M1202.42 90.8007L1198.72 89.2087C1198.62 89.1663 1198.55 89.0785 1198.53 88.9722L1197.74 85.0205C1197.59 84.2962 1197.06 83.7274 1196.35 83.5362C1195.64 83.3451 1194.89 83.5714 1194.4 84.1266L1191.74 87.1547C1191.67 87.2358 1191.57 87.2762 1191.46 87.264L1187.46 86.7915C1186.72 86.7051 1186.02 87.0357 1185.62 87.6557C1185.21 88.2749 1185.2 89.0541 1185.58 89.6887L1187.64 93.152C1187.69 93.2444 1187.7 93.3585 1187.65 93.4565L1185.97 97.1167C1185.66 97.7869 1185.75 98.5599 1186.22 99.1338C1186.48 99.4587 1186.83 99.6808 1187.22 99.7838C1187.51 99.863 1187.83 99.8721 1188.14 99.8004L1192.07 98.9125C1192.18 98.8888 1192.29 98.9181 1192.37 98.9911L1195.33 101.726C1195.87 102.227 1196.63 102.374 1197.32 102.109C1198.01 101.845 1198.48 101.224 1198.55 100.488L1198.92 96.4755C1198.93 96.368 1198.99 96.2722 1199.09 96.2197L1202.6 94.2499C1203.25 93.8897 1203.62 93.2067 1203.58 92.4694C1203.55 91.7319 1203.1 91.0926 1202.42 90.8006L1202.42 90.8007Z" fill="#EFEFEF"/>
<path d="M1179.96 84.7814L1176.25 83.1895C1176.16 83.1471 1176.08 83.0593 1176.06 82.953L1175.28 79.0013C1175.13 78.277 1174.6 77.7082 1173.88 77.5168C1173.17 77.3257 1172.43 77.552 1171.94 78.1072L1169.28 81.1354C1169.21 81.2164 1169.1 81.2568 1169 81.2446L1164.99 80.772C1164.26 80.6856 1163.55 81.0163 1163.15 81.6356C1162.75 82.2554 1162.73 83.0352 1163.11 83.6692L1165.17 87.1325C1165.23 87.2248 1165.23 87.339 1165.19 87.437L1163.5 91.097C1163.19 91.7679 1163.29 92.5411 1163.75 93.1143C1164.22 93.6895 1164.96 93.9453 1165.68 93.7814L1169.61 92.8932C1169.71 92.8697 1169.82 92.8992 1169.9 92.9719L1172.86 95.7064C1173.1 95.9247 1173.37 96.0755 1173.67 96.1549C1174.05 96.2577 1174.47 96.2402 1174.86 96.0901C1175.55 95.8259 1176.02 95.2049 1176.09 94.4695L1176.46 90.4556C1176.47 90.3494 1176.53 90.2535 1176.62 90.2009L1180.14 88.2312C1180.78 87.8709 1181.16 87.188 1181.12 86.4507C1181.08 85.7125 1180.64 85.0732 1179.96 84.7814L1179.96 84.7814Z" fill="#EFEFEF"/>
<path d="M1170.82 66.0564C1170.87 66.1482 1170.88 66.2609 1170.83 66.3589L1169.15 70.02C1168.84 70.691 1168.94 71.4641 1169.4 72.0373C1169.87 72.6125 1170.6 72.8678 1171.32 72.7044L1175.25 71.8162C1175.36 71.7927 1175.47 71.8222 1175.55 71.895L1178.51 74.6294C1178.74 74.8477 1179.02 74.9986 1179.32 75.0779C1179.7 75.1808 1180.11 75.1632 1180.51 75.0131C1181.19 74.749 1181.66 74.1279 1181.73 73.3925L1182.1 69.3781C1182.11 69.2719 1182.17 69.1764 1182.27 69.124L1185.78 67.1544C1186.43 66.7936 1186.8 66.1105 1186.77 65.3731C1186.73 64.6358 1186.28 63.9967 1185.6 63.7048L1181.9 62.1129C1181.8 62.0704 1181.73 61.9827 1181.71 61.8765L1180.92 57.9237L1180.92 57.9236C1180.78 57.1992 1180.24 56.6308 1179.53 56.4396C1178.82 56.2485 1178.07 56.4739 1177.58 57.0293L1174.93 60.0587C1174.85 60.1398 1174.75 60.1802 1174.64 60.168L1170.64 59.6953C1169.91 59.6089 1169.2 59.9398 1168.8 60.5591C1168.4 61.1782 1168.38 61.9574 1168.76 62.5925L1170.82 66.0564Z" fill="#EFEFEF"/>
<path d="M1224.89 96.8205L1221.18 95.2286C1221.09 95.1861 1221.01 95.0984 1220.99 94.992L1220.2 91.0404C1220.06 90.3161 1219.53 89.7473 1218.81 89.556C1218.1 89.3648 1217.35 89.5911 1216.87 90.1462L1214.21 93.1744C1214.14 93.2555 1214.03 93.2959 1213.93 93.2837L1209.92 92.811C1209.19 92.7246 1208.48 93.0554 1208.08 93.6752C1207.68 94.2945 1207.66 95.0736 1208.04 95.7082L1210.1 99.1715C1210.16 99.2639 1210.16 99.378 1210.12 99.476L1208.43 103.136C1208.12 103.807 1208.22 104.58 1208.68 105.153C1209.15 105.728 1209.88 105.984 1210.61 105.82L1214.54 104.932C1214.64 104.909 1214.75 104.938 1214.83 105.011L1217.79 107.745C1218.03 107.964 1218.3 108.115 1218.6 108.194C1218.98 108.297 1219.4 108.279 1219.79 108.129C1220.48 107.865 1220.95 107.244 1221.02 106.509L1221.39 102.495C1221.4 102.388 1221.46 102.293 1221.55 102.24L1225.07 100.27C1225.71 99.91 1226.09 99.227 1226.05 98.4891C1226.01 97.7515 1225.56 97.1123 1224.89 96.8204L1224.89 96.8205Z" fill="#EFEFEF"/>
<path d="M1226.64 73.9154L1225.86 69.9626L1225.85 69.9625C1225.71 69.2382 1225.18 68.6697 1224.46 68.4787C1223.75 68.2876 1223.01 68.5128 1222.52 69.0683L1219.86 72.0978C1219.79 72.1789 1219.68 72.2193 1219.58 72.207L1215.57 71.7344C1214.84 71.648 1214.13 71.9789 1213.73 72.5982C1213.33 73.2173 1213.31 73.9965 1213.69 74.6316L1215.75 78.0962C1215.81 78.188 1215.81 78.3007 1215.77 78.3987L1214.08 82.0599C1213.77 82.7308 1213.87 83.504 1214.33 84.0772C1214.8 84.6522 1215.53 84.9075 1216.26 84.7442L1220.19 83.8561C1220.29 83.8326 1220.4 83.862 1220.48 83.9348L1223.44 86.6692C1223.68 86.8875 1223.95 87.0384 1224.25 87.1177C1224.63 87.2206 1225.05 87.203 1225.44 87.053C1226.13 86.7888 1226.6 86.1678 1226.66 85.4324L1227.03 81.4179C1227.04 81.3117 1227.11 81.2162 1227.2 81.1638L1230.72 79.1942C1231.36 78.8334 1231.74 78.1503 1231.7 77.4124C1231.66 76.6754 1231.21 76.0364 1230.53 75.7445L1226.83 74.1525C1226.73 74.1087 1226.66 74.021 1226.64 73.9153L1226.64 73.9154Z" fill="#EFEFEF"/>
<path d="M1208.25 73.1737C1208.9 72.8129 1209.27 72.1298 1209.23 71.3925C1209.19 70.6551 1208.75 70.0159 1208.07 69.724L1204.37 68.1321C1204.27 68.0897 1204.2 68.0019 1204.18 67.8957L1203.39 63.9431L1203.39 63.9429C1203.25 63.2186 1202.71 62.6504 1202 62.4591C1201.29 62.2681 1200.54 62.4934 1200.05 63.0488L1197.39 66.0782C1197.32 66.1593 1197.22 66.1997 1197.11 66.1875L1193.11 65.715C1192.38 65.6286 1191.67 65.9593 1191.27 66.5786C1190.87 67.1977 1190.85 67.9769 1191.23 68.612L1193.29 72.0766C1193.34 72.1684 1193.35 72.2824 1193.3 72.3793L1191.62 76.0406C1191.31 76.7108 1191.4 77.4838 1191.87 78.0577C1192.13 78.3826 1192.48 78.6047 1192.87 78.7077C1193.16 78.7869 1193.48 78.796 1193.79 78.7243L1197.72 77.8364C1197.83 77.8128 1197.94 77.8421 1198.02 77.915L1200.98 80.6496C1201.52 81.1511 1202.28 81.2989 1202.97 81.0327C1203.66 80.7686 1204.13 80.1475 1204.2 79.4121L1204.57 75.3983C1204.58 75.2919 1204.64 75.196 1204.74 75.1436L1208.25 73.1737Z" fill="#EFEFEF"/>
<path d="M1192.92 56.8792C1192.78 56.7734 1192.64 56.6573 1192.5 56.5474C1192.91 56.1497 1193.32 55.6002 1193.47 54.8998C1193.79 53.4289 1192.78 52.0733 1192.67 51.9234C1192.43 51.6144 1192 51.5211 1191.66 51.7056C1191.56 51.7556 1191.05 52.0489 1190.57 52.5529C1190.74 52.3223 1190.89 52.0686 1190.98 51.7747C1191.45 50.3466 1190.6 48.8918 1190.5 48.7312C1190.3 48.3976 1189.88 48.26 1189.52 48.4074C1189.37 48.4706 1188.14 49.0006 1187.53 50.1114C1187.43 49.8602 1187.32 49.6102 1187.23 49.3543C1187.8 49.111 1188.68 48.6069 1189.11 47.6807C1189.73 46.3404 1189.07 44.8246 1188.99 44.6562C1188.83 44.3008 1188.43 44.1163 1188.05 44.2207C1187.92 44.256 1187.07 44.5158 1186.37 45.1546C1186.34 44.765 1186.33 44.3741 1186.33 43.981C1187.11 43.9782 1188.28 43.8276 1189.17 43.0776L1189.17 43.0778C1190.6 41.8708 1190.62 39.6758 1190.62 39.5829C1190.62 39.1917 1190.34 38.8629 1189.95 38.7933C1189.87 38.7802 1188.39 38.5475 1187.08 39.1361L1187.25 38.4832C1188.01 38.5878 1189.35 38.632 1190.41 37.9011C1191.95 36.8457 1192.2 34.6636 1192.21 34.5713C1192.25 34.1818 1192 33.8202 1191.62 33.7178C1191.54 33.6927 1189.92 33.268 1188.49 33.8544L1188.69 33.1109C1188.81 32.6823 1188.55 32.2436 1188.13 32.1294C1187.7 32.0151 1187.26 32.2681 1187.15 32.6951L1186.95 33.4402C1186 32.2188 1184.37 31.7877 1184.3 31.7555C1183.93 31.6559 1183.53 31.845 1183.37 32.2023C1183.33 32.2868 1182.45 34.2966 1183.26 35.9818C1183.82 37.1477 1185 37.7798 1185.71 38.0677L1185.52 38.7809C1184.45 37.4991 1182.6 37.2184 1182.51 37.2045C1182.13 37.1491 1181.76 37.382 1181.64 37.756C1181.61 37.845 1180.96 39.9425 1181.96 41.5239C1182.38 42.1976 1183.02 42.6404 1183.62 42.9313C1182.32 42.662 1181.06 43.1848 1180.9 43.2577C1180.54 43.4165 1180.35 43.8112 1180.45 44.1899C1180.5 44.3949 1181.01 46.2135 1182.52 46.9416C1182.7 47.0272 1182.88 47.0928 1183.07 47.1417C1183.18 47.1728 1183.3 47.1883 1183.41 47.2069C1182.39 47.4545 1181.63 48.1624 1181.53 48.2639C1181.25 48.5386 1181.21 48.9746 1181.44 49.2944C1181.53 49.4289 1182.32 50.5016 1183.53 50.8263C1183.68 50.8661 1183.84 50.8947 1184 50.9091C1184.77 50.9781 1185.46 50.6957 1185.97 50.3936C1186.04 50.5775 1186.11 50.7623 1186.19 50.9437C1184.89 50.8741 1183.77 51.7013 1183.63 51.8067C1183.33 52.0467 1183.24 52.4757 1183.42 52.8194C1183.51 52.9801 1184.29 54.3514 1185.67 54.7213C1185.72 54.7343 1185.77 54.7458 1185.82 54.7562L1185.82 54.7564C1186.72 54.9446 1187.57 54.6384 1188.14 54.3467C1188.23 54.4697 1188.32 54.5894 1188.41 54.7104C1187.04 55.0132 1186.18 56.3028 1186.09 56.4572C1185.88 56.789 1185.95 57.2227 1186.24 57.4809C1186.34 57.5696 1187.02 58.1448 1187.94 58.3912C1188.31 58.4914 1188.73 58.5376 1189.16 58.4741C1189.97 58.3537 1190.61 57.8756 1191.04 57.441C1191.35 57.6955 1191.66 57.9441 1191.99 58.1792C1192.07 58.237 1192.16 58.2776 1192.25 58.302C1192.56 58.3857 1192.91 58.2744 1193.11 57.9963C1193.36 57.6363 1193.28 57.1371 1192.92 56.8794L1192.92 56.8792ZM1185.04 47.1431C1185.05 47.198 1185.05 47.2533 1185.06 47.3082C1184.95 47.2657 1184.84 47.2302 1184.72 47.2008C1184.83 47.1834 1184.94 47.1652 1185.04 47.1431L1185.04 47.1431ZM1184.69 43.3313C1184.71 43.3375 1184.73 43.3413 1184.75 43.3472C1184.75 43.3696 1184.75 43.3918 1184.75 43.4142C1184.68 43.3688 1184.61 43.3285 1184.54 43.2878C1184.59 43.3021 1184.64 43.3192 1184.69 43.3313L1184.69 43.3313ZM1190.24 52.9452C1190.04 53.2158 1189.88 53.5283 1189.77 53.8822C1189.68 53.7719 1189.59 53.6645 1189.5 53.5522C1189.74 53.3993 1190 53.1967 1190.24 52.9452Z" fill="#E6E6E6"/>
<path d="M1217.36 66.2739C1218.28 66.5202 1219.16 66.3618 1219.29 66.3357C1219.67 66.2591 1219.95 65.9152 1219.93 65.5245C1219.93 65.3435 1219.83 63.8 1218.79 62.8488C1218.93 62.7908 1219.07 62.7347 1219.21 62.6732C1219.56 63.2068 1220.14 63.8983 1221.02 64.186L1221.02 64.1859C1221.06 64.202 1221.11 64.2168 1221.16 64.2298C1222.54 64.5995 1223.9 63.8024 1224.06 63.7068C1224.39 63.5025 1224.53 63.0874 1224.38 62.7243C1224.32 62.5656 1223.76 61.2893 1222.6 60.6982C1222.76 60.5802 1222.91 60.4546 1223.06 60.3314C1223.35 60.8468 1223.81 61.4377 1224.52 61.7657C1224.66 61.8334 1224.81 61.8861 1224.96 61.9259C1226.17 62.2506 1227.39 61.716 1227.54 61.6471C1227.9 61.483 1228.08 61.086 1227.98 60.7089C1227.94 60.5696 1227.64 59.5777 1226.87 58.8515C1226.98 58.8937 1227.09 58.9376 1227.21 58.9686C1227.39 59.0172 1227.58 59.0509 1227.78 59.0659C1229.45 59.191 1230.8 57.872 1230.95 57.7213C1231.23 57.4421 1231.26 57.0056 1231.03 56.6893C1230.92 56.5447 1230.09 55.4612 1228.83 55.0458C1229.5 55.0937 1230.27 55.0286 1230.97 54.6568C1232.63 53.7844 1233.12 51.6454 1233.14 51.5543C1233.22 51.172 1233.02 50.7846 1232.65 50.6386C1232.57 50.6065 1230.83 49.9254 1229.27 50.5029L1229.46 49.7897C1230.21 49.8943 1231.55 49.9385 1232.62 49.2076C1234.16 48.1522 1234.4 45.9701 1234.41 45.878C1234.45 45.4885 1234.21 45.1268 1233.83 45.0245C1233.75 44.9985 1232.13 44.5744 1230.7 45.1609L1230.9 44.4174C1231.01 43.9904 1230.76 43.552 1230.33 43.4376C1229.91 43.3233 1229.47 43.5763 1229.35 44.0033L1229.15 44.7479C1228.2 43.5273 1226.58 43.0971 1226.51 43.0637C1226.13 42.9641 1225.74 43.1532 1225.58 43.5105C1225.54 43.595 1224.66 45.6048 1225.46 47.29C1226.02 48.4559 1227.2 49.088 1227.91 49.3759L1227.74 50.0288C1226.89 48.8604 1225.49 48.3222 1225.42 48.2959C1225.06 48.164 1224.64 48.3062 1224.45 48.6453C1224.4 48.7258 1223.32 50.6368 1223.95 52.3942L1223.95 52.3943C1224.34 53.4871 1225.29 54.2038 1225.96 54.5975C1225.77 54.9391 1225.56 55.2723 1225.34 55.5958C1225.05 54.6912 1224.44 54.0379 1224.35 53.9429C1224.07 53.6639 1223.64 53.6258 1223.32 53.851C1223.17 53.9583 1221.84 54.9388 1221.7 56.4106C1221.61 57.4277 1222.13 58.3062 1222.5 58.8014C1222.29 58.9774 1222.07 59.1412 1221.86 59.3063C1221.89 58.0409 1221.09 56.9673 1220.98 56.8355C1220.74 56.5271 1220.31 56.4377 1219.97 56.6244C1219.81 56.7144 1218.34 57.5487 1218.03 59.0206C1217.97 59.3239 1217.97 59.6181 1218 59.9019C1217.84 59.2238 1217.54 58.7145 1217.48 58.6235C1217.28 58.2908 1216.86 58.1573 1216.5 58.3063C1216.33 58.3786 1214.78 59.0523 1214.32 60.4848C1214.1 61.1672 1214.18 61.8495 1214.34 62.3979C1214.16 62.4215 1213.98 62.4536 1213.8 62.4715C1213.36 62.5153 1213.04 62.9067 1213.09 63.3468C1213.12 63.6874 1213.36 63.9563 1213.67 64.0398C1213.77 64.0642 1213.86 64.0728 1213.96 64.0632C1214.36 64.0237 1214.76 63.9651 1215.15 63.8976C1215.31 64.4903 1215.62 65.223 1216.27 65.7356C1216.61 66.0069 1216.99 66.1736 1217.36 66.2737L1217.36 66.2739ZM1227.64 54.8385C1227.66 54.8444 1227.68 54.8504 1227.71 54.8567C1227.75 54.8686 1227.8 54.8802 1227.85 54.8925C1227.77 54.8926 1227.69 54.8922 1227.61 54.8988C1227.62 54.8791 1227.63 54.8583 1227.64 54.8385L1227.64 54.8385ZM1218.43 61.3016C1218.3 61.3562 1218.16 61.4017 1218.03 61.4533C1218.11 61.0928 1218.13 60.7388 1218.09 60.4055C1218.18 60.7456 1218.3 61.0507 1218.43 61.3016Z" fill="#E6E6E6"/>
</g>
<g clip-path="url(#clip6_1893_11800)">
<path d="M1644.15 230.709L1649.98 229.146L1654.23 244.996L1648.39 246.559L1644.15 230.709ZM1665.62 226.711L1674.77 224.259C1675.14 224.159 1675.41 224.337 1675.51 224.419C1675.63 224.519 1675.83 224.745 1675.81 225.058C1674.02 236.995 1675.1 239.109 1672.89 239.7C1662.21 242.334 1660.77 243.532 1657.6 242.925L1656.57 242.733L1653.11 229.805C1658.16 227.434 1661.99 222.521 1661.81 214.214C1665.45 215.981 1664.38 220.686 1663.52 224.685C1663.21 225.95 1664.38 227.042 1665.62 226.711Z" fill="#DBDBDB"/>
<path d="M1657.21 245.742C1661.26 246.466 1663.25 244.961 1673.63 242.452C1675.51 241.946 1676.89 240.36 1677.13 238.401L1678.65 225.325C1678.73 224.118 1678.25 222.988 1677.32 222.222C1676.41 221.467 1675.18 221.2 1674.03 221.507L1666.65 223.486C1666.89 222.065 1667.12 220.351 1667.19 218.547C1667.29 215.24 1665.19 212.244 1662.1 211.27C1661.65 211.12 1661.18 211.106 1660.72 211.228C1659.66 211.512 1658.93 212.479 1658.94 213.637C1659.23 219.488 1657.46 224.405 1652.22 227.059C1650.93 225.273 1648.79 226.699 1647.55 226.849L1643.7 212.498C1643.49 211.679 1643.97 210.834 1644.79 210.615L1661.37 206.173C1665.64 215.486 1679.73 217.125 1689.42 213.413C1691.21 212.785 1692.91 211.998 1694.49 211.069L1702.79 213.855L1708.6 235.555L1653.82 250.235L1653.27 248.202C1654.45 247.708 1656.94 247.854 1657.21 245.742ZM1652.41 260.292L1654.01 253.135L1709.89 238.162L1714.87 243.556L1652.41 260.292Z" fill="#EFEFEF"/>
<path d="M1679.18 185.284C1689.52 182.514 1699.67 185.91 1701.84 192.959C1701.87 193.032 1701.89 193.125 1701.91 193.201C1702.68 196.052 1702.06 199.138 1700.13 202.129C1698.74 204.286 1699.75 203.516 1704.48 210.595C1704.53 210.673 1704.6 210.796 1704.54 210.97C1704.49 211.114 1704.37 211.234 1704.24 211.269C1689.82 206.602 1697.17 207.669 1688.44 210.738C1679.46 214.171 1665.79 212.371 1663.42 203.516C1661.49 196.308 1668.56 188.13 1679.18 185.284Z" fill="#E6E6E6"/>
</g>
<g clip-path="url(#clip7_1893_11800)">
<path d="M1533.32 67.1214C1532.49 70.1984 1534.33 73.3726 1537.4 74.1971C1540.48 75.0216 1543.66 73.1889 1544.48 70.112C1545.3 67.035 1543.47 63.8608 1540.39 63.0363C1537.32 62.2118 1534.14 64.0445 1533.32 67.1214Z" fill="#DCDCDC"/>
<path d="M1536.41 77.9173C1530.25 76.2682 1523.9 79.9331 1522.26 86.0876L1520.23 93.6521L1542.55 99.6332L1544.58 92.0686C1546.23 85.9142 1542.56 79.5664 1536.41 77.9173Z" fill="#DCDCDC"/>
<path d="M1523.02 68.3493C1523.85 65.2723 1522.01 62.0981 1518.94 61.2736C1515.86 60.4491 1512.68 62.2818 1511.86 65.3587C1511.04 68.4357 1512.87 71.6099 1515.95 72.4344C1519.02 73.2589 1522.2 71.4262 1523.02 68.3493Z" fill="#EFEFEF"/>
<path d="M1563.94 79.3151C1564.77 76.2381 1562.94 73.0639 1559.86 72.2394C1556.78 71.4149 1553.61 73.2476 1552.78 76.3246C1551.96 79.4015 1553.79 82.5758 1556.87 83.4002C1559.95 84.2247 1563.12 82.3921 1563.94 79.3151Z" fill="#ECECEC"/>
<path d="M1526.08 27.1689L1521.46 33.0824L1514.62 32.2454L1518.17 38.038L1515.3 44.3503L1521.87 42.8827L1526.83 47.4382L1527.5 40.5397L1533.34 37.2629L1527.19 34.6175L1526.08 27.1689Z" fill="#EFEFEF"/>
<path d="M1549.51 40.5989L1548.4 33.1503L1543.78 39.0638L1537.06 38.2601L1540.49 44.0194L1537.62 50.3318L1544.19 48.8641L1549.15 53.4196L1549.82 46.5211L1555.67 43.2443L1549.51 40.5989Z" fill="#DCDCDC"/>
<path d="M1570.72 39.1308L1566.11 45.0443L1559.39 44.2405L1562.81 49.9999L1559.94 56.3122L1566.51 54.8446L1571.47 59.4001L1572.15 52.5016L1578.11 49.258L1571.84 46.5794L1570.72 39.1308Z" fill="#ECECEC"/>
<path d="M1555.87 87.1198C1553.4 86.4573 1550.91 86.6808 1548.7 87.5455C1548.88 89.351 1548.79 91.2108 1548.3 93.0651L1546.27 100.63L1563.14 105.149L1564.17 101.304C1565.82 95.1403 1562.04 88.7715 1555.87 87.1198Z" fill="#ECECEC"/>
<path d="M1500.67 84.2917L1499.64 88.136L1516.51 92.655L1518.54 85.0904C1519.03 83.2361 1519.89 81.5809 1520.95 80.109C1519.46 78.2532 1517.42 76.8171 1514.95 76.1546C1508.78 74.5029 1502.33 78.1276 1500.67 84.2917Z" fill="#EFEFEF"/>
</g>
<g clip-path="url(#clip8_1893_11800)">
<path d="M222.72 140.088C227.024 147.543 236.558 150.098 244.014 145.793L238.602 130.967L228.426 118.794C220.97 123.098 218.415 132.632 222.72 140.088Z" fill="#DBDBDB"/>
<path d="M228.426 118.794L244.014 145.794C251.47 141.489 254.024 131.955 249.72 124.5C245.415 117.044 235.882 114.489 228.426 118.794Z" fill="#DBDBDB"/>
<path d="M192.794 157.366C197.099 164.822 206.632 167.376 214.088 163.072L208.676 148.245L198.5 136.072C191.044 140.377 188.49 149.91 192.794 157.366Z" fill="#EFEFEF"/>
<path d="M198.5 136.072L214.088 163.072C221.544 158.767 224.099 149.234 219.794 141.778C215.489 134.322 205.956 131.768 198.5 136.072Z" fill="#EFEFEF"/>
<path d="M200.248 145.956L199.25 149.681L203.932 150.935L202.678 155.618L206.402 156.616L207.657 151.933L208.108 148.524L204.93 147.211L200.248 145.956Z" fill="white"/>
<path d="M209.91 143.526L206.185 142.528L204.931 147.211L207.657 151.933L212.34 153.188L213.338 149.463L208.655 148.209L209.91 143.526Z" fill="white"/>
<path d="M226.341 157.53L232.862 172.595L242.955 186.307L251.078 181.617L247.938 176.178L249.077 173.07C250.203 169.996 249.908 166.58 248.271 163.745L242.844 154.344L226.341 157.53Z" fill="#DCDCDC"/>
<path d="M211.028 150.692L220.465 167.046L216.717 174.781L219.708 179.962C221.427 182.939 224.433 184.946 227.842 185.393L231.294 185.844L234.405 191.244L242.927 186.323L219.524 145.789C218.169 143.443 215.17 142.639 212.824 143.994C210.479 145.348 209.675 148.346 211.028 150.692Z" fill="#DCDCDC"/>
<path d="M235.125 133.882L231.304 132.859L230.307 136.583L237.851 138.604L238.489 136.226L237.779 132.22L235.762 131.503L235.125 133.882Z" fill="white"/>
<path d="M237.485 125.075L235.763 131.503L238.489 136.225L241.21 126.073L237.485 125.075Z" fill="white"/>
</g>
<defs>
<clipPath id="clip0_1893_11800">
<rect width="65.7325" height="56.382" fill="white" transform="translate(1304 143.013) rotate(-15)"/>
</clipPath>
<clipPath id="clip1_1893_11800">
<rect width="63.266" height="65.7325" fill="white" transform="translate(567 31.6328) rotate(-30)"/>
</clipPath>
<clipPath id="clip2_1893_11800">
<rect width="37.2386" height="73.9491" fill="white" transform="translate(926.139 25) rotate(15)"/>
</clipPath>
<clipPath id="clip3_1893_11800">
<rect width="61.4974" height="61.6242" fill="white" transform="matrix(0.866024 0.500002 -0.499998 0.866026 30.8125 76)"/>
</clipPath>
<clipPath id="clip4_1893_11800">
<rect width="61.6242" height="61.6242" fill="white" transform="translate(369 87)"/>
</clipPath>
<clipPath id="clip5_1893_11800">
<rect width="65.5861" height="65.7325" fill="white" transform="translate(1177.01 29) rotate(15)"/>
</clipPath>
<clipPath id="clip6_1893_11800">
<rect width="65.7325" height="65.7325" fill="white" transform="translate(1635 197.013) rotate(-15)"/>
</clipPath>
<clipPath id="clip7_1893_11800">
<rect width="65.7325" height="65.7325" fill="white" transform="translate(1516.66 24.6436) rotate(15)"/>
</clipPath>
<clipPath id="clip8_1893_11800">
<rect width="65.7325" height="65.7325" fill="white" transform="translate(185 143.866) rotate(-30)"/>
</clipPath>
</defs>
</svg>
