<svg width="28" height="24" viewBox="0 0 28 24" fill="none" xmlns="http://www.w3.org/2000/svg">
<path d="M11.5964 7.02726C11.0166 6.67086 10.2734 7.10166 10.2734 7.80006V16.2C10.2734 16.902 11.0178 17.3268 11.5964 16.974L18.4436 12.78C19.0129 12.4308 19.0118 11.5836 18.4448 11.2332L11.5964 7.02726ZM12.0234 14.6172V9.38525L16.2876 12.0048L12.0234 14.6172Z" fill="#FFB000"/>
<path d="M23.2213 1.52522C17.7928 0.69602 10.2095 0.69602 4.77867 1.52522C2.60633 1.85642 0.894833 3.61082 0.5215 5.88842C-0.173833 10.116 -0.173833 13.8852 0.5215 18.1116C0.894833 20.3904 2.60633 22.1436 4.77867 22.4748C7.49933 22.89 10.7567 23.0976 14.0128 23.0976C17.2632 23.0976 20.5123 22.8912 23.2225 22.476C25.3925 22.1448 27.1028 20.3916 27.4785 18.1128C28.1738 13.8852 28.1738 10.1148 27.4785 5.88722C27.1052 3.61082 25.3937 1.85642 23.2213 1.52522ZM25.753 17.8128C25.5045 19.32 24.3845 20.4792 22.9647 20.6952C17.6937 21.5004 10.3203 21.5004 5.03533 20.694C3.61433 20.4768 2.49317 19.3188 2.24583 17.8116C1.57617 13.7388 1.57617 10.2624 2.24583 6.18722C2.49433 4.68002 3.61433 3.52322 5.0365 3.30482C7.6755 2.90282 10.8383 2.70122 13.9988 2.70122C17.1617 2.70122 20.3245 2.90282 22.9635 3.30482C24.3845 3.52202 25.5057 4.68002 25.753 6.18722C26.4227 10.2624 26.4227 13.7388 25.753 17.8128Z" fill="#FFB000"/>
</svg>
