<svg width="572" height="700" viewBox="0 0 572 700" fill="none" xmlns="http://www.w3.org/2000/svg">
<path d="M99 407H34V699H99V407Z" fill="#F5F5F5"/>
<path d="M451 504H386V698H451V504Z" fill="#F5F5F5"/>
<path d="M551 352H486V698H551V352Z" fill="#F5F5F5"/>
<path d="M341 364H276V698H341V364Z" fill="#F5F5F5"/>
<path d="M211 270H146V698H211V270Z" fill="#F5F5F5"/>
<path d="M485.66 110.5L484.716 111.469L481.883 114.264L470.906 125.005L430.042 164.818L291.739 299.387L291.494 299.62L291.286 299.362L257.461 258.9L170.655 154.813H171.121L95.9545 267.752L74.5535 299.828C72.1007 303.507 70.1507 306.376 68.863 308.313L67.4526 310.483C67.1215 310.974 66.9375 311.219 66.9375 311.219C66.9375 311.219 67.0847 310.962 67.4035 310.459L68.8384 308.264L74.4554 299.681C79.3611 292.226 86.5969 281.289 95.7215 267.519C114.02 239.931 139.983 200.768 170.692 154.433L170.913 154.114L171.158 154.408L258.013 258.409L291.825 298.872H291.371L429.748 164.524C447.151 147.664 461.132 134.152 470.71 124.834L481.748 114.178C483.015 112.977 483.972 112.057 484.618 111.42L485.66 110.5Z" fill="#EBEBEB"/>
<path d="M170.876 166.682C177.534 166.682 182.932 161.286 182.932 154.629C182.932 147.972 177.534 142.576 170.876 142.576C164.218 142.576 158.82 147.972 158.82 154.629C158.82 161.286 164.218 166.682 170.876 166.682Z" fill="#EBEBEB"/>
<path d="M71.4663 322.361C77.6238 319.828 80.5622 312.785 78.0292 306.629C75.4963 300.472 68.4513 297.535 62.2937 300.067C56.1362 302.599 53.1979 309.643 55.7308 315.799C58.2637 321.955 65.3088 324.893 71.4663 322.361Z" fill="#EBEBEB"/>
<path d="M303.434 301.094C304.498 294.523 300.031 288.334 293.459 287.271C286.886 286.208 280.696 290.673 279.632 297.244C278.569 303.816 283.035 310.004 289.608 311.068C296.181 312.131 302.371 307.665 303.434 301.094Z" fill="#EBEBEB"/>
<path d="M503.564 108.554C505.026 102.06 500.944 95.6104 494.449 94.1492C487.953 92.688 481.502 96.7682 480.041 103.263C478.579 109.757 482.66 116.206 489.156 117.667C495.652 119.128 502.103 115.048 503.564 108.554Z" fill="#EBEBEB"/>
<path d="M50.5038 129.848C53.4167 128.09 56.5514 126.729 59.8246 125.801L61.7501 116.569L77.3501 116.299L79.5944 125.458C82.8976 126.253 86.0782 127.49 89.0501 129.137L96.8869 124.011L108.109 134.838L103.203 142.906C104.961 145.818 106.322 148.952 107.25 152.225L116.51 154.137L116.779 169.734L107.679 171.99C106.878 175.291 105.641 178.47 104 181.444L109.151 189.328L98.3218 200.547L90.2642 195.642C87.3511 197.405 84.2168 198.774 80.9435 199.713L79.018 208.946L63.4303 209.216L61.1859 200.069C57.88 199.27 54.6958 198.033 51.718 196.39L43.7831 201.503L32.5614 190.676L37.467 182.621C35.7111 179.703 34.3501 176.565 33.4199 173.29L24.1604 171.365L23.8906 155.781L33.1133 153.537C33.9117 150.231 35.1491 147.048 36.7925 144.071L31.6293 136.187L42.4585 124.968L50.5284 129.872L50.5038 129.848ZM58.8189 150.692C56.5216 153.072 54.9817 156.08 54.3939 159.335C53.8062 162.59 54.197 165.946 55.5169 168.979C56.8369 172.012 59.0267 174.585 61.8095 176.374C64.5923 178.163 67.8431 179.086 71.1509 179.028C74.4587 178.97 77.675 177.932 80.393 176.046C83.111 174.161 85.2088 171.512 86.421 168.434C87.6332 165.357 87.9055 161.989 87.2034 158.757C86.5013 155.524 84.8563 152.573 82.4765 150.275C79.2945 147.2 75.0236 145.511 70.5988 145.578C66.174 145.645 61.9559 147.462 58.868 150.631L58.8189 150.692Z" fill="#EBEBEB"/>
<path d="M307.931 61.6792C311.551 59.4883 315.449 57.7933 319.52 56.6398L321.973 45.1631L341.301 44.832L344.085 56.2106C348.195 57.2176 352.151 58.7724 355.847 60.8332L365.658 54.4082L379.615 67.8957L373.483 77.901C375.676 81.5235 377.372 85.425 378.523 89.5003L390.002 91.8667L390.334 111.252L378.965 114.048C377.957 118.157 376.402 122.112 374.341 125.806L380.767 135.615L367.277 149.557L357.257 143.487C353.634 145.669 349.737 147.36 345.667 148.514L343.276 159.991L323.886 160.334L321.102 148.956C316.993 147.941 313.038 146.382 309.341 144.321L299.53 150.746L285.573 137.258L291.644 127.241C289.461 123.619 287.77 119.722 286.616 115.654L275.136 113.202L274.793 93.8163L286.174 91.033C287.191 86.9252 288.75 82.971 290.81 79.2743L284.384 69.4652L297.874 55.524L307.894 61.6547L307.931 61.6792ZM318.269 87.5017C315.4 90.4661 313.474 94.2152 312.737 98.2742C312 102.333 312.484 106.52 314.128 110.303C315.772 114.087 318.503 117.298 321.973 119.53C325.444 121.761 329.499 122.913 333.624 122.839C337.75 122.765 341.761 121.469 345.149 119.115C348.538 116.76 351.151 113.454 352.659 109.613C354.166 105.773 354.5 101.572 353.618 97.5419C352.736 93.5119 350.677 89.8342 347.703 86.9744C343.726 83.1501 338.395 81.0582 332.877 81.157C327.36 81.2558 322.107 83.5374 318.269 87.5017Z" fill="#F5F5F5"/>
<path d="M125.094 51.3454C126.627 50.4219 128.277 49.7084 130 49.2242L131.006 44.3932L139.137 44.2461L140.363 49.0403C142.079 49.4645 143.73 50.1204 145.269 50.9899L149.402 48.2801L155.276 53.9571L152.713 58.175C153.639 59.7063 154.353 61.3563 154.835 63.0796L159.667 64.085L159.814 72.2389L155.019 73.465C154.595 75.1808 153.939 76.8308 153.069 78.3696L155.755 82.4771L150.089 88.3871L145.87 85.8245C144.337 86.748 142.687 87.4615 140.964 87.9457L139.959 92.7767L131.791 92.9238L130.564 88.1296C128.852 87.6947 127.203 87.0394 125.659 86.1801L121.526 88.8776L115.651 83.2128L118.214 78.9949C117.29 77.4624 116.577 75.8128 116.093 74.0903L111.26 73.0849L111.113 64.9188L115.909 63.6927C116.335 61.9775 116.991 60.3277 117.859 58.7881L115.185 54.656L120.863 48.7828L125.094 51.3454ZM129.448 62.209C128.245 63.4541 127.438 65.0278 127.129 66.7313C126.821 68.4348 127.024 70.1915 127.714 71.7794C128.404 73.3674 129.549 74.7152 131.005 75.6525C132.461 76.5898 134.162 77.0745 135.893 77.0454C137.624 77.0162 139.308 76.4746 140.732 75.4888C142.155 74.503 143.254 73.1175 143.89 71.5072C144.526 69.897 144.671 68.1344 144.305 66.4423C143.939 64.7502 143.079 63.2045 141.835 62.0006C140.163 60.3844 137.918 59.4984 135.592 59.5375C133.267 59.5766 131.053 60.5376 129.436 62.209H129.448Z" fill="#F5F5F5"/>
<path d="M505.373 177.03C507.434 175.782 509.653 174.817 511.971 174.161L513.332 167.625L524.37 167.441L525.964 173.915C528.304 174.491 530.556 175.378 532.661 176.552L538.241 172.873L546.188 180.537L542.73 186.238C543.976 188.304 544.941 190.526 545.599 192.847L552.136 194.208L552.332 205.243L545.845 206.837C545.264 209.175 544.378 211.426 543.208 213.532L546.887 219.111L539.222 227.044L533.495 223.611C531.429 224.858 529.206 225.823 526.884 226.48L525.523 233.015L514.485 233.212L512.903 226.725C510.561 226.152 508.305 225.269 506.195 224.101L500.614 227.78L492.68 220.104L496.138 214.403C494.89 212.342 493.925 210.124 493.268 207.806L486.731 206.445L486.535 195.41L493.023 193.816C493.596 191.475 494.483 189.223 495.66 187.121L491.98 181.542L499.658 173.597L505.361 177.054L505.373 177.03ZM511.26 191.743C509.632 193.429 508.541 195.559 508.125 197.864C507.708 200.169 507.985 202.546 508.919 204.694C509.854 206.843 511.405 208.665 513.376 209.932C515.346 211.199 517.649 211.854 519.991 211.813C522.334 211.771 524.612 211.037 526.537 209.701C528.462 208.366 529.948 206.49 530.806 204.31C531.665 202.13 531.858 199.745 531.361 197.456C530.863 195.167 529.698 193.076 528.013 191.449C526.894 190.368 525.573 189.517 524.126 188.946C522.679 188.375 521.133 188.095 519.578 188.121C518.022 188.147 516.487 188.48 515.06 189.099C513.632 189.718 512.341 190.613 511.26 191.731V191.743Z" fill="#F5F5F5"/>
<path d="M572 699.438C572 699.61 443.95 699.757 286.012 699.757C128.075 699.757 0 699.61 0 699.438C0 699.266 128.025 699.119 286.012 699.119C443.999 699.119 572 699.254 572 699.438Z" fill="#1E1E1E"/>
<path d="M374.426 699.434H475.09C475.546 699.433 475.996 699.339 476.414 699.157C476.832 698.975 477.208 698.709 477.518 698.375C477.829 698.042 478.068 697.648 478.219 697.218C478.371 696.789 478.433 696.333 478.401 695.878L473.398 624.652C473.336 623.818 472.962 623.038 472.35 622.467C471.739 621.897 470.935 621.578 470.098 621.574L377.651 621.402C376.797 621.405 375.976 621.736 375.36 622.327C374.743 622.919 374.378 623.725 374.34 624.578L371.114 695.927C371.089 696.378 371.157 696.829 371.312 697.252C371.467 697.676 371.706 698.064 372.016 698.392C372.326 698.72 372.699 698.982 373.114 699.161C373.528 699.34 373.974 699.433 374.426 699.434Z" fill="#1E1E1E"/>
<path d="M388.305 699.432C388.464 699.432 388.587 681.996 388.587 660.502C388.587 639.008 388.464 621.572 388.305 621.572C388.146 621.572 388.035 639.008 388.035 660.502C388.035 681.996 388.158 699.432 388.305 699.432Z" fill="#455A64"/>
<path d="M389.516 623.425C389.55 623.526 389.6 623.621 389.663 623.707C389.785 623.915 389.945 624.185 390.153 624.516L392.091 627.533C393.808 630.169 396.298 633.994 399.646 638.568C403.531 643.918 408.016 648.805 413.014 653.134C416.001 655.658 419.239 657.868 422.678 659.731C426.369 661.786 430.443 663.063 434.648 663.483C438.879 663.748 443.113 663.017 447.01 661.349C450.64 659.852 454.032 657.832 457.079 655.354C462.205 651.141 466.31 645.821 469.085 639.794C470.954 635.738 472.155 631.407 472.642 626.968C472.716 626.184 472.789 625.485 472.826 624.884C472.863 624.283 472.826 623.768 472.826 623.351C472.826 622.934 472.826 622.652 472.826 622.407C472.837 622.297 472.837 622.186 472.826 622.076C472.811 622.186 472.811 622.297 472.826 622.407C472.826 622.64 472.826 622.959 472.765 623.339C472.703 623.719 472.765 624.271 472.691 624.872C472.618 625.473 472.544 626.098 472.458 626.944C471.901 631.336 470.66 635.614 468.779 639.622C465.986 645.579 461.891 650.834 456.797 654.998C453.783 657.426 450.433 659.405 446.851 660.871C443.033 662.499 438.889 663.217 434.746 662.968C430.614 662.545 426.61 661.294 422.972 659.29C419.569 657.447 416.36 655.265 413.394 652.779C408.415 648.485 403.928 643.653 400.014 638.372C396.629 633.884 394.09 630.095 392.324 627.496L390.301 624.504L389.761 623.731L389.516 623.425Z" fill="#455A64"/>
<path d="M431.16 663.532C431.158 664.447 431.427 665.342 431.933 666.104C432.44 666.865 433.161 667.46 434.006 667.812C434.851 668.163 435.781 668.257 436.678 668.08C437.576 667.903 438.401 667.463 439.049 666.817C439.697 666.171 440.138 665.348 440.318 664.451C440.497 663.554 440.406 662.624 440.057 661.778C439.707 660.933 439.114 660.21 438.354 659.702C437.593 659.193 436.699 658.922 435.784 658.922C434.56 658.922 433.385 659.407 432.519 660.271C431.652 661.136 431.163 662.308 431.16 663.532Z" fill="#455A64"/>
<path d="M404.133 607.069C406.207 605.414 408.755 604.464 411.406 604.359C417.919 603.72 424.473 605.053 430.219 608.185C435.659 611.52 439.94 616.447 442.483 622.298L438.804 626.099C437.463 620.155 433.912 614.943 428.87 611.52C424.042 608.07 418.056 606.644 412.191 607.547C410.589 607.754 409.045 608.284 407.653 609.104C405.274 610.76 404.918 612.697 405.335 615.149C405.626 617.799 406.702 620.301 408.426 622.334L402.453 622.469C401.662 619.867 401.224 617.169 401.153 614.45C401.135 613.084 401.39 611.727 401.901 610.46C402.413 609.193 403.172 608.04 404.133 607.069Z" fill="#1E1E1E"/>
<path d="M303.064 662.062H264.898V677.095H303.064V662.062Z" fill="#FAFAFA"/>
<path d="M383.162 659.477H263.305V662.628H383.162V659.477Z" fill="#455A64"/>
<path d="M383.157 676.424H263.863V679.575H383.157V676.424Z" fill="#455A64"/>
<path d="M303.047 660.225L303.231 678.972H383.156V660.225H303.047Z" fill="#455A64"/>
<path d="M322.478 669.579C322.413 670.419 322.106 671.221 321.592 671.888C321.078 672.555 320.381 673.058 319.586 673.335C318.791 673.612 317.932 673.652 317.115 673.448C316.298 673.245 315.558 672.807 314.985 672.189C314.413 671.572 314.033 670.801 313.893 669.971C313.752 669.14 313.857 668.287 314.194 667.516C314.531 666.744 315.086 666.088 315.79 665.627C316.495 665.166 317.319 664.92 318.161 664.92C319.351 664.968 320.473 665.485 321.282 666.358C322.091 667.231 322.521 668.39 322.478 669.579Z" fill="#1E1E1E"/>
<path d="M318.164 674.913C317.093 674.984 316.026 674.732 315.101 674.189C314.176 673.646 313.436 672.837 312.976 671.868C312.517 670.899 312.359 669.814 312.525 668.754C312.69 667.695 313.171 666.709 313.904 665.926C314.636 665.143 315.588 664.598 316.635 664.363C317.681 664.127 318.774 664.212 319.772 664.606C320.77 665 321.626 665.685 322.229 666.572C322.833 667.459 323.155 668.506 323.155 669.579C323.198 670.947 322.697 672.277 321.762 673.277C320.826 674.276 319.532 674.865 318.164 674.913ZM318.164 665.582C317.359 665.515 316.553 665.693 315.852 666.091C315.15 666.49 314.584 667.091 314.23 667.816C313.875 668.541 313.748 669.356 313.864 670.155C313.98 670.954 314.335 671.699 314.882 672.292C315.428 672.886 316.141 673.301 316.928 673.483C317.714 673.666 318.537 673.606 319.289 673.313C320.042 673.02 320.688 672.507 321.143 671.84C321.599 671.174 321.843 670.386 321.843 669.579C321.868 669.072 321.792 668.565 321.62 668.088C321.449 667.611 321.184 667.172 320.842 666.797C320.5 666.422 320.088 666.119 319.628 665.904C319.168 665.689 318.671 665.567 318.164 665.545V665.582Z" fill="#E0E0E0"/>
<path d="M300.19 673.408C300.19 673.604 292.341 673.763 282.677 673.763C273.013 673.763 265.164 673.604 265.164 673.408C265.164 673.212 273.001 673.064 282.677 673.064C292.354 673.064 300.19 673.212 300.19 673.408Z" fill="#1E1E1E"/>
<path d="M300.19 670.791C300.19 670.975 292.341 671.134 282.677 671.134C273.013 671.134 265.164 670.975 265.164 670.791C265.164 670.607 273.001 670.436 282.677 670.436C292.354 670.436 300.19 670.595 300.19 670.791Z" fill="#1E1E1E"/>
<path d="M300.19 668.172C300.19 668.368 292.341 668.527 282.677 668.527C273.013 668.527 265.164 668.368 265.164 668.172C265.164 667.975 273.001 667.828 282.677 667.828C292.354 667.828 300.19 668 300.19 668.172Z" fill="#1E1E1E"/>
<path d="M300.19 665.547C300.19 665.731 292.341 665.89 282.677 665.89C273.013 665.89 265.164 665.731 265.164 665.547C265.164 665.363 273.001 665.191 282.677 665.191C292.354 665.191 300.19 665.363 300.19 665.547Z" fill="#1E1E1E"/>
<path d="M374.293 664.213H338.273V674.243H374.293V664.213Z" fill="white"/>
<path d="M343.887 673.222C343.413 670.583 343.413 667.88 343.887 665.24C344.345 667.881 344.345 670.581 343.887 673.222Z" fill="#E0E0E0"/>
<path d="M348.652 673.222C348.194 670.581 348.194 667.881 348.652 665.24C349.126 667.88 349.126 670.583 348.652 673.222Z" fill="#E0E0E0"/>
<path d="M353.426 673.222C352.952 670.583 352.952 667.88 353.426 665.24C353.884 667.881 353.884 670.581 353.426 673.222Z" fill="#E0E0E0"/>
<path d="M358.176 673.222C357.702 670.583 357.702 667.88 358.176 665.24C358.634 667.881 358.634 670.581 358.176 673.222Z" fill="#E0E0E0"/>
<path d="M362.941 673.222C362.483 670.581 362.483 667.881 362.941 665.24C363.415 667.88 363.415 670.583 362.941 673.222Z" fill="#E0E0E0"/>
<path d="M367.695 673.222C367.237 670.581 367.237 667.881 367.695 665.24C368.169 667.88 368.169 670.583 367.695 673.222Z" fill="#E0E0E0"/>
<path d="M308.131 681.594H269.965V696.626H308.131V681.594Z" fill="#FAFAFA"/>
<path d="M388.24 679.023H268.383V682.175H388.24V679.023Z" fill="#FFB000"/>
<path d="M388.223 695.967H268.93V699.118H388.223V695.967Z" fill="#FFB000"/>
<path d="M308.133 679.771L308.317 698.507H388.23V679.771H308.133Z" fill="#FFB000"/>
<path d="M327.557 689.125C327.493 689.967 327.184 690.771 326.669 691.441C326.154 692.11 325.455 692.614 324.657 692.892C323.86 693.17 322.999 693.21 322.179 693.006C321.36 692.802 320.618 692.363 320.044 691.744C319.47 691.124 319.089 690.351 318.948 689.518C318.807 688.686 318.912 687.83 319.25 687.057C319.587 686.283 320.144 685.624 320.85 685.162C321.557 684.7 322.383 684.453 323.228 684.453C323.819 684.475 324.4 684.614 324.938 684.86C325.475 685.107 325.959 685.458 326.361 685.892C326.763 686.325 327.076 686.834 327.281 687.389C327.486 687.944 327.58 688.534 327.557 689.125Z" fill="#1E1E1E"/>
<path d="M323.226 694.455C322.156 694.527 321.089 694.275 320.164 693.732C319.239 693.189 318.498 692.38 318.039 691.411C317.579 690.442 317.422 689.357 317.587 688.297C317.753 687.238 318.233 686.252 318.966 685.469C319.699 684.686 320.651 684.141 321.697 683.906C322.744 683.67 323.837 683.755 324.835 684.149C325.832 684.543 326.689 685.228 327.292 686.115C327.895 687.002 328.218 688.049 328.218 689.122C328.258 690.489 327.755 691.817 326.82 692.816C325.886 693.815 324.594 694.404 323.226 694.455ZM323.226 685.125C322.422 685.058 321.616 685.236 320.914 685.634C320.212 686.033 319.647 686.634 319.292 687.359C318.938 688.084 318.81 688.899 318.927 689.698C319.043 690.497 319.398 691.241 319.944 691.835C320.491 692.429 321.204 692.844 321.99 693.026C322.777 693.209 323.6 693.149 324.352 692.856C325.104 692.563 325.75 692.049 326.206 691.383C326.661 690.717 326.905 689.929 326.906 689.122C326.939 688.11 326.571 687.126 325.882 686.384C325.192 685.642 324.238 685.203 323.226 685.161V685.125Z" fill="#E0E0E0"/>
<path d="M305.261 692.951C305.261 693.135 297.424 693.295 287.748 693.295C278.071 693.295 270.234 693.135 270.234 692.951C270.234 692.767 278.071 692.596 287.748 692.596C297.424 692.596 305.261 692.755 305.261 692.951Z" fill="#1E1E1E"/>
<path d="M305.261 690.326C305.261 690.522 297.424 690.681 287.748 690.681C278.071 690.681 270.234 690.522 270.234 690.326C270.234 690.13 278.071 689.982 287.748 689.982C297.424 689.982 305.261 690.13 305.261 690.326Z" fill="#1E1E1E"/>
<path d="M305.261 687.713C305.261 687.897 297.424 688.056 287.748 688.056C278.071 688.056 270.234 687.897 270.234 687.713C270.234 687.529 278.071 687.357 287.748 687.357C297.424 687.357 305.261 687.517 305.261 687.713Z" fill="#1E1E1E"/>
<path d="M305.261 685.089C305.261 685.286 297.424 685.433 287.748 685.433C278.071 685.433 270.234 685.286 270.234 685.089C270.234 684.893 278.071 684.746 287.748 684.746C297.424 684.746 305.261 684.893 305.261 685.089Z" fill="#1E1E1E"/>
<path d="M379.367 683.754H343.348V693.784H379.367V683.754Z" fill="white"/>
<path d="M348.961 692.766C348.503 690.121 348.503 687.417 348.961 684.771C349.435 687.415 349.435 690.122 348.961 692.766Z" fill="#E0E0E0"/>
<path d="M353.727 692.766C353.253 690.122 353.253 687.415 353.727 684.771C354.185 687.417 354.185 690.121 353.727 692.766Z" fill="#E0E0E0"/>
<path d="M358.488 692.766C358.014 690.122 358.014 687.415 358.488 684.771C358.946 687.417 358.946 690.121 358.488 692.766Z" fill="#E0E0E0"/>
<path d="M363.242 692.766C362.784 690.121 362.784 687.417 363.242 684.771C363.716 687.415 363.716 690.122 363.242 692.766Z" fill="#E0E0E0"/>
<path d="M368.016 692.766C367.542 690.122 367.542 687.415 368.016 684.771C368.474 687.417 368.474 690.121 368.016 692.766Z" fill="#E0E0E0"/>
<path d="M372.832 692.766C372.358 690.122 372.358 687.415 372.832 684.771C373.29 687.417 373.29 690.121 372.832 692.766Z" fill="#E0E0E0"/>
<path d="M230.176 321.173L220.303 319.199C211.933 323.903 202.105 325.307 192.752 323.134C183.399 320.961 175.197 315.369 169.759 307.457C164.321 299.545 162.039 289.885 163.364 280.377C164.688 270.868 169.522 262.199 176.916 256.074C184.309 249.948 193.727 246.809 203.318 247.274C212.91 247.738 221.98 251.773 228.746 258.585C235.512 265.397 239.485 274.493 239.884 284.085C240.282 293.676 237.078 303.07 230.899 310.42L230.176 321.173Z" fill="white"/>
<path d="M230.174 321.172C230.174 321.172 230.174 320.914 230.174 320.448C230.174 319.982 230.235 319.222 230.284 318.364C230.395 316.525 230.554 313.852 230.75 310.406L230.971 310.529C230.944 310.553 230.909 310.566 230.873 310.566C230.837 310.566 230.802 310.553 230.775 310.529C230.757 310.504 230.747 310.474 230.747 310.443C230.747 310.412 230.757 310.382 230.775 310.357C234.757 305.587 237.515 299.918 238.808 293.841C239.644 289.868 239.855 285.789 239.433 281.751C238.925 277.153 237.582 272.687 235.472 268.57C233.127 264.037 229.909 260.012 226.004 256.726C221.804 253.135 216.856 250.525 211.52 249.087C205.844 247.571 199.897 247.366 194.13 248.486C188.077 249.669 182.413 252.336 177.647 256.248C175.202 258.217 173.006 260.477 171.11 262.979C170.227 264.205 169.331 265.517 168.571 266.854L167.504 268.877L166.977 269.894L166.547 270.949C164.259 276.428 163.261 282.36 163.629 288.287C163.984 293.849 165.59 299.26 168.326 304.116C170.825 308.617 174.193 312.576 178.235 315.764C181.898 318.635 186.054 320.812 190.499 322.189L193.614 322.986C194.645 323.219 195.675 323.33 196.68 323.501C198.621 323.783 200.582 323.898 202.543 323.845C208.737 323.71 214.806 322.073 220.228 319.075H220.326L227.598 320.608L229.512 321.024L230.174 321.184L229.548 321.086L227.66 320.742L220.301 319.345H220.399C214.96 322.433 208.845 324.138 202.592 324.311C200.608 324.382 198.622 324.28 196.656 324.004C195.638 323.832 194.596 323.734 193.553 323.501L190.389 322.704C185.88 321.327 181.662 319.137 177.941 316.243C173.824 313.022 170.393 309.012 167.847 304.447C165.042 299.515 163.394 294.01 163.028 288.348C162.638 282.329 163.636 276.3 165.947 270.728L166.376 269.649L166.915 268.607L167.995 266.547C168.78 265.186 169.687 263.899 170.582 262.599C172.512 260.054 174.744 257.752 177.23 255.745C182.084 251.761 187.854 249.047 194.019 247.848C199.894 246.716 205.95 246.934 211.729 248.486C217.154 249.957 222.182 252.621 226.446 256.284C231.828 260.787 235.871 266.68 238.134 273.322C240.396 279.965 240.79 287.1 239.274 293.951C237.927 300.079 235.092 305.78 231.02 310.553L230.836 310.345C230.849 310.331 230.864 310.321 230.881 310.314C230.898 310.306 230.916 310.302 230.934 310.302C230.953 310.302 230.971 310.306 230.988 310.314C231.005 310.321 231.02 310.331 231.032 310.345C231.043 310.372 231.043 310.403 231.032 310.431C230.763 313.913 230.542 316.561 230.395 318.474C230.321 319.345 230.26 320.031 230.223 320.522C230.186 321.012 230.174 321.172 230.174 321.172Z" fill="#1E1E1E"/>
<path d="M184.551 288.224L189.358 283.075L199.243 291.278L217.456 272.518L222.239 277.336L198.851 300.89L184.551 288.224Z" fill="#FFB000"/>
<path d="M496.584 256.729H465.372L374.262 311.549C374.605 312.052 385.361 319.826 399.403 329.868L267.465 572.741L157.088 523.99L59.2812 699.671H112.704L180.071 576.641L281.397 623.565L324.322 628.69L440.598 359.185C455.205 369.546 466.427 377.466 466.427 377.466H497.676C497.676 377.466 488.576 301.066 488.576 300.465C488.576 299.864 496.584 256.729 496.584 256.729Z" fill="#FFB000"/>
<path opacity="0.3" d="M496.584 256.729H465.372L374.262 311.549C374.605 312.052 385.361 319.826 399.403 329.868L267.465 572.741L157.088 523.99L59.2812 699.671H112.704L180.071 576.641L281.397 623.565L324.322 628.69L440.598 359.185C455.205 369.546 466.427 377.466 466.427 377.466H497.676C497.676 377.466 488.576 301.066 488.576 300.465C488.576 299.864 496.584 256.729 496.584 256.729Z" fill="black"/>
<path d="M90.8906 699.673L189.053 522.484L299.075 572.743L440.971 311.551L483.221 333.732L324.351 628.692L211.68 576.642L144.313 699.673H90.8906Z" fill="#FFB000"/>
<path d="M405.484 311.549C406.49 313.057 497.674 377.466 497.674 377.466L496.582 256.729L405.484 311.549Z" fill="#FFB000"/>
<path d="M405.482 311.547C405.482 311.719 398.492 311.866 389.87 311.866C381.248 311.866 374.258 311.719 374.258 311.547C374.258 311.376 381.248 311.229 389.87 311.229C398.492 311.229 405.482 311.363 405.482 311.547Z" fill="#1E1E1E"/>
<path d="M429.872 330.383C429.872 330.555 422.894 330.702 414.272 330.702C405.651 330.702 398.66 330.555 398.66 330.383C398.66 330.212 405.638 330.064 414.272 330.064C422.906 330.064 429.872 330.212 429.872 330.383Z" fill="#1E1E1E"/>
<path d="M195.387 439.742C195.387 439.742 193.486 440.563 193.192 438.038C192.897 435.512 198.171 430.239 199.851 428.572C201.531 426.904 203.947 427.26 206.093 427.738C208.24 428.216 216.984 429.099 219.891 430.963C222.797 432.826 227.249 442.17 228.169 442.611C229.089 443.052 256.376 444.475 256.376 444.475L255.15 466.852C255.15 466.852 228.353 461.751 223.042 458.428C217.732 455.105 218.431 453.793 216.91 450.691C215.39 447.589 213.783 444.315 213.783 444.315L211.33 443.898L207.332 446.069C207.332 446.069 206.854 451.746 202.88 451.599L200.93 450.569C200.93 450.569 199.63 452.077 198.146 449.747C196.662 447.418 196.92 446.988 196.92 446.988C196.92 446.988 195.35 448.926 193.67 446.522C191.99 444.119 195.387 439.742 195.387 439.742Z" fill="#E6B9AA"/>
<path d="M224.811 449.244C224.719 449.292 224.619 449.321 224.516 449.33C224.222 449.392 223.922 449.424 223.621 449.428C222.488 449.41 221.379 449.093 220.408 448.509C218.916 447.623 217.727 446.306 216.999 444.732C216.123 442.756 215.644 440.627 215.588 438.467L216.03 438.724C212.697 440.24 208.95 440.586 205.397 439.705C204.633 439.589 203.918 439.257 203.336 438.749C203.176 438.568 203.083 438.338 203.071 438.097C203.06 437.856 203.132 437.619 203.275 437.424C203.538 437.141 203.867 436.927 204.232 436.799C206.684 435.806 208.953 435.033 210.866 434.445C212.78 433.856 214.362 433.464 215.453 433.219C216.014 433.061 216.589 432.958 217.17 432.912C216.637 433.148 216.083 433.333 215.515 433.464C214.448 433.783 212.902 434.236 211.014 434.874C209.125 435.512 206.893 436.333 204.465 437.326C204.198 437.414 203.955 437.56 203.753 437.755C203.683 437.832 203.643 437.933 203.643 438.037C203.643 438.142 203.683 438.242 203.753 438.319C204.259 438.724 204.865 438.982 205.507 439.067C208.921 439.894 212.512 439.571 215.723 438.148L216.14 437.964V438.417C216.16 440.5 216.577 442.56 217.366 444.487C218.023 445.995 219.111 447.274 220.494 448.165C221.406 448.75 222.444 449.107 223.523 449.208C224.431 449.269 224.799 449.195 224.811 449.244Z" fill="#6F4439"/>
<path d="M210.942 433.895C210.174 434.373 209.257 434.552 208.366 434.398C207.557 434.398 206.6 434.25 205.582 434.324C205.044 434.349 204.518 434.486 204.036 434.726C203.554 434.967 203.129 435.306 202.786 435.722C201.357 437.302 199.605 438.557 197.648 439.4C196.864 439.808 196.003 440.046 195.121 440.099C195.121 440.001 196.053 439.719 197.464 438.996C199.311 438.055 200.973 436.788 202.369 435.256C202.789 434.778 203.297 434.387 203.865 434.103C204.409 433.857 204.998 433.724 205.595 433.711C206.547 433.717 207.498 433.791 208.44 433.932C209.273 434.009 210.112 433.997 210.942 433.895Z" fill="#6F4439"/>
<path d="M205.354 439.863C204.563 441.675 203.372 443.285 201.871 444.572C200.369 445.859 198.596 446.789 196.684 447.294C198.335 446.321 199.928 445.253 201.454 444.093C202.832 442.757 204.134 441.345 205.354 439.863Z" fill="#6F4439"/>
<path d="M206.34 443.298C206.093 444.871 205.469 446.36 204.524 447.641C203.578 448.922 202.337 449.955 200.907 450.655C200.797 450.496 202.538 449.294 204.022 447.234C205.506 445.174 206.156 443.237 206.34 443.298Z" fill="#6F4439"/>
<path d="M288.814 396.125L264.372 440.217L226.451 439.555L223.594 462.337L262.729 471.925L278.844 454.232L288.814 396.125Z" fill="#E0E0E0"/>
<path d="M267.432 447.702C267.236 447.702 267.003 445.9 266.205 443.852C265.408 441.805 264.28 440.345 264.427 440.174C265.458 441.117 266.266 442.277 266.795 443.571C267.323 444.864 267.557 446.258 267.481 447.653L267.432 447.702Z" fill="#1E1E1E"/>
<path d="M298.101 318.108C296.573 318.253 295.044 317.84 293.796 316.947C292.548 316.053 291.665 314.739 291.31 313.246C290.954 311.753 291.15 310.182 291.862 308.823C292.574 307.463 293.753 306.406 295.182 305.847C294.192 304.869 293.535 303.605 293.305 302.233C293.075 300.861 293.282 299.451 293.899 298.204C294.515 296.956 295.509 295.935 296.738 295.284C297.968 294.634 299.372 294.387 300.75 294.579C300.781 293.208 301.167 291.87 301.871 290.693C302.574 289.517 303.571 288.543 304.764 287.867C305.956 287.191 307.304 286.837 308.675 286.837C310.046 286.838 311.393 287.194 312.585 287.872C314.103 286.588 316.008 285.85 317.995 285.774C319.982 285.698 321.937 286.29 323.549 287.455C324.877 287.187 326.257 287.352 327.484 287.926C328.712 288.499 329.724 289.45 330.371 290.641C331.019 291.831 331.268 293.197 331.082 294.539C330.896 295.881 330.284 297.128 329.338 298.098" fill="#1E1E1E"/>
<path d="M325 293.648H323.602C316.814 293.772 310.321 296.449 305.42 301.147C300.519 305.845 297.57 312.217 297.161 318.993C296.363 332.051 295.652 346.495 295.873 353.496C296.327 367.977 310.872 369.951 310.872 369.951L309.977 387.387L311.694 400.666L345.126 385.609L347.076 322.45C348.057 307.381 340.122 294.237 325 293.648Z" fill="#E6B9AA"/>
<path d="M310.778 369.952C317.507 369.826 324.058 367.77 329.652 364.029C329.652 364.029 325.164 375.248 310.68 374.231L310.778 369.952Z" fill="#6F4439"/>
<path d="M301.898 333.779C301.902 334.319 302.117 334.837 302.497 335.219C302.878 335.602 303.394 335.821 303.934 335.827C304.198 335.844 304.462 335.807 304.711 335.72C304.96 335.633 305.189 335.497 305.384 335.32C305.58 335.142 305.738 334.928 305.849 334.689C305.96 334.449 306.022 334.19 306.031 333.927C306.025 333.388 305.809 332.872 305.429 332.49C305.049 332.108 304.535 331.888 303.996 331.879C303.732 331.862 303.468 331.899 303.219 331.986C302.97 332.073 302.741 332.209 302.546 332.386C302.35 332.564 302.192 332.778 302.081 333.017C301.97 333.257 301.908 333.516 301.898 333.779Z" fill="#1E1E1E"/>
<path d="M300.469 326.043C300.739 326.312 302.284 325.123 304.504 325.086C306.724 325.049 308.392 326.128 308.625 325.846C308.858 325.564 308.465 325.246 307.754 324.743C306.773 324.095 305.618 323.761 304.443 323.787C303.286 323.81 302.167 324.196 301.242 324.89C300.543 325.43 300.322 325.908 300.469 326.043Z" fill="#1E1E1E"/>
<path d="M320.766 333.325C320.769 333.865 320.984 334.382 321.365 334.765C321.745 335.148 322.261 335.366 322.801 335.372C323.065 335.387 323.33 335.349 323.579 335.261C323.828 335.172 324.057 335.035 324.252 334.857C324.447 334.679 324.605 334.463 324.716 334.223C324.827 333.983 324.889 333.724 324.899 333.46C324.892 332.921 324.676 332.405 324.296 332.023C323.916 331.641 323.402 331.422 322.863 331.412C322.598 331.396 322.334 331.432 322.084 331.52C321.834 331.608 321.604 331.745 321.409 331.924C321.213 332.102 321.055 332.318 320.945 332.559C320.834 332.8 320.773 333.06 320.766 333.325Z" fill="#1E1E1E"/>
<path d="M322.349 326.03C322.606 326.299 324.164 325.11 326.384 325.073C328.603 325.036 330.259 326.115 330.504 325.846C330.75 325.576 330.345 325.233 329.621 324.73C328.646 324.08 327.493 323.75 326.322 323.786C325.165 323.803 324.043 324.19 323.121 324.889C322.447 325.429 322.226 325.907 322.349 326.03Z" fill="#1E1E1E"/>
<path d="M314.585 342.704C313.388 342.355 312.152 342.157 310.906 342.116C310.341 342.116 309.802 341.968 309.679 341.588C309.623 341.003 309.743 340.414 310.023 339.896C310.538 338.511 311.065 337.052 311.629 335.531C313.837 329.315 315.431 324.214 315.186 324.128C314.94 324.042 312.929 329.033 310.722 335.163C310.182 336.696 309.679 338.155 309.189 339.553C308.871 340.277 308.824 341.09 309.054 341.846C309.138 342.046 309.267 342.224 309.431 342.366C309.594 342.508 309.788 342.611 309.998 342.667C310.316 342.742 310.641 342.779 310.967 342.778C312.171 342.905 313.387 342.88 314.585 342.704Z" fill="#1E1E1E"/>
<path d="M320.252 317.51C320.559 318.062 322.448 317.425 324.802 317.302C327.157 317.179 329.132 317.523 329.34 316.934C329.426 316.652 328.997 316.162 328.114 315.708C327.014 315.184 325.797 314.952 324.582 315.034C323.374 315.1 322.207 315.485 321.197 316.149C320.449 316.689 320.093 317.241 320.252 317.51Z" fill="#1E1E1E"/>
<path d="M300.161 316.871C300.639 317.362 302.466 316.798 304.674 316.737C306.881 316.675 308.77 316.994 309.187 316.455C309.371 316.197 309.064 315.694 308.243 315.228C307.103 314.66 305.834 314.402 304.564 314.48C303.294 314.511 302.057 314.884 300.982 315.559C300.197 316.099 299.952 316.626 300.161 316.871Z" fill="#1E1E1E"/>
<path d="M298.456 312.348C298.456 312.348 302.135 303.201 306.44 300.994C311.689 298.333 314.081 304.096 319.109 302.588C324.137 301.08 329.141 298.529 334.365 302.33C340.105 306.487 337.517 309.54 337.983 315.953C339.909 341.996 344.814 349.267 345.931 336.969C346.053 335.62 349.757 334.517 350.198 328.791C350.775 321.434 350.885 312.446 349.144 307.26C347.672 302.87 345.097 299.903 340.559 296.604C333.348 291.442 323.573 291.516 316.95 292.313C310.328 293.11 297.634 300.994 298.456 312.348Z" fill="#1E1E1E"/>
<path d="M344.999 336.587C345.006 336.055 345.121 335.531 345.337 335.046C345.553 334.56 345.866 334.123 346.256 333.762C346.646 333.401 347.105 333.123 347.606 332.944C348.106 332.766 348.638 332.691 349.169 332.724C351.879 332.921 354.908 334.404 354.847 339.983C354.724 349.903 344.79 347.732 344.778 347.438C344.766 347.144 344.901 340.743 344.999 336.587Z" fill="#E6B9AA"/>
<path d="M346.987 343.746C346.987 343.746 347.159 343.869 347.441 344.004C347.857 344.175 348.325 344.175 348.741 344.004C349.783 343.636 350.691 341.981 350.764 340.203C350.795 339.362 350.64 338.525 350.311 337.75C350.222 337.438 350.058 337.152 349.834 336.917C349.609 336.682 349.331 336.505 349.023 336.402C348.826 336.347 348.615 336.364 348.429 336.449C348.243 336.535 348.093 336.683 348.005 336.868C347.87 337.137 347.919 337.334 347.87 337.358C347.821 337.383 347.662 337.186 347.747 336.782C347.804 336.535 347.942 336.314 348.14 336.156C348.417 335.959 348.76 335.875 349.097 335.923C349.502 336.01 349.88 336.199 350.193 336.471C350.506 336.743 350.745 337.091 350.887 337.481C351.296 338.345 351.489 339.296 351.451 340.252C351.365 342.25 350.311 344.102 348.876 344.494C348.61 344.573 348.33 344.588 348.057 344.539C347.785 344.49 347.528 344.378 347.306 344.212C346.999 343.979 346.95 343.758 346.987 343.746Z" fill="#6F4439"/>
<path d="M344.433 317.408C343.23 318.411 341.797 319.102 340.263 319.418C339.495 319.552 338.704 319.402 338.038 318.996C337.373 318.59 336.878 317.955 336.645 317.211C336.51 316.525 336.645 315.728 336.204 315.2C335.762 314.673 334.646 314.796 333.824 314.894C330.942 315.262 327.521 312.147 326.736 309.364C326.364 309.903 325.803 310.282 325.164 310.425C324.525 310.568 323.856 310.465 323.289 310.137C322.356 309.596 321.525 308.895 320.837 308.064C320.442 307.531 319.923 307.104 319.324 306.819C318.725 306.535 318.065 306.402 317.403 306.434C316.708 306.681 315.988 306.854 315.256 306.949C313.956 306.85 313.294 305.342 313.073 304.055C312.853 302.767 312.669 301.272 311.553 300.585C310.437 299.898 309.198 300.364 308.008 300.585C306.819 300.806 305.261 300.585 304.93 299.359C304.872 299.045 304.878 298.722 304.948 298.41C305.017 298.098 305.149 297.804 305.335 297.544C306.12 296.333 307.289 295.421 308.654 294.954C310.02 294.487 311.503 294.492 312.865 294.969C313.321 293.311 314.259 291.826 315.56 290.702C316.861 289.577 318.466 288.863 320.173 288.651C321.879 288.438 323.611 288.736 325.148 289.507C326.685 290.278 327.959 291.488 328.808 292.983C329.842 292.007 331.096 291.296 332.464 290.909C333.831 290.521 335.272 290.47 336.664 290.759C338.056 291.048 339.358 291.668 340.458 292.568C341.559 293.467 342.426 294.619 342.986 295.926C344.19 295.595 345.465 295.623 346.653 296.007C347.842 296.392 348.892 297.115 349.674 298.089C350.456 299.063 350.936 300.244 351.055 301.487C351.174 302.73 350.927 303.98 350.344 305.085C351.27 305.529 352.07 306.198 352.67 307.031C353.27 307.865 353.651 308.836 353.778 309.854C353.852 311.902 351.889 313.987 349.903 313.533C350.377 314.336 350.516 315.293 350.289 316.197C350.062 317.102 349.488 317.881 348.691 318.365C347.894 318.849 346.938 318.999 346.031 318.783C345.123 318.567 344.338 318.002 343.844 317.211" fill="#1E1E1E"/>
<path d="M312.211 297.889C312.211 297.889 312.211 297.889 312.211 298.073C312.225 298.25 312.249 298.426 312.285 298.6C312.43 299.271 312.687 299.914 313.045 300.5C313.603 301.43 314.372 302.215 315.289 302.793C316.491 303.591 317.922 303.971 319.361 303.872L319.189 303.652C318.919 304.562 319.011 305.542 319.447 306.386C319.899 307.287 320.486 308.114 321.188 308.838C321.521 309.252 321.899 309.626 322.317 309.954C322.791 310.265 323.334 310.455 323.899 310.506C324.486 310.577 325.082 310.502 325.634 310.288C326.186 310.074 326.677 309.728 327.063 309.28L326.695 309.181C326.853 310.207 327.223 311.189 327.783 312.063C328.343 312.937 329.079 313.685 329.945 314.258C330.901 314.935 332.048 315.287 333.219 315.263C334.318 315.188 335.397 314.927 336.408 314.491L336.138 314.38C336.689 315.576 337.533 316.613 338.591 317.397C339.064 317.794 339.621 318.078 340.22 318.229C340.819 318.38 341.445 318.393 342.05 318.267C343.087 318.024 344.031 317.482 344.763 316.709C345.496 315.935 345.985 314.963 346.17 313.914L345.95 314.025C347.005 314.562 348.214 314.718 349.371 314.466C350.234 314.286 351.041 313.904 351.726 313.35C352.154 313.008 352.52 312.593 352.805 312.124C352.977 311.793 353.051 311.609 353.051 311.609C352.67 312.228 352.185 312.776 351.616 313.228C350.937 313.73 350.153 314.069 349.322 314.221C348.225 314.438 347.087 314.273 346.097 313.755L345.839 313.645V313.853C345.649 314.83 345.179 315.732 344.487 316.448C343.795 317.164 342.91 317.664 341.939 317.887C341.386 317.993 340.816 317.974 340.271 317.832C339.725 317.69 339.219 317.428 338.787 317.065C337.81 316.315 337.035 315.333 336.531 314.209L336.445 314.025H336.261C335.292 314.44 334.259 314.689 333.207 314.76C332.124 314.779 331.063 314.453 330.178 313.828C329.362 313.286 328.668 312.58 328.14 311.754C327.612 310.929 327.262 310.003 327.112 309.034L327.038 308.568L326.732 308.936C326.389 309.329 325.954 309.632 325.467 309.818C324.979 310.004 324.453 310.067 323.935 310.003C323.437 309.96 322.957 309.796 322.537 309.525C322.146 309.216 321.788 308.866 321.47 308.483C320.797 307.798 320.223 307.022 319.766 306.177C319.36 305.426 319.267 304.544 319.508 303.725L319.582 303.48H319.336C317.962 303.587 316.59 303.247 315.424 302.511C314.533 301.961 313.775 301.219 313.204 300.341C312.729 299.59 312.393 298.759 312.211 297.889Z" fill="#455A64"/>
<path d="M315.184 350.307C315.184 349.939 317.636 350.405 319.807 348.639C321.978 346.874 322.174 344.225 322.518 344.274C322.861 344.323 322.885 344.936 322.702 346.052C322.455 347.492 321.703 348.796 320.58 349.73C319.505 350.625 318.123 351.065 316.729 350.957C315.723 350.871 315.184 350.429 315.184 350.307Z" fill="#1E1E1E"/>
<path d="M244.594 490.568L263.468 469.724L279.24 422.052C282.465 413.775 285.237 403.28 289.137 395.432C291.071 391.598 294.286 388.562 298.225 386.849L304.933 383.87L308.931 377.408C306.626 391.864 326.898 393.642 348.447 375.691C348.447 375.691 355.56 380.51 365.616 388.823C370.007 392.502 373.993 396.438 375.648 402.458C378.665 413.371 365.702 445.655 351.611 476.026C347.392 485.112 327.291 525.844 327.291 525.844L320.092 531.166C320.092 531.166 256.098 511.805 250.346 501.248L244.594 490.568Z" fill="#E0E0E0"/>
<path d="M255.09 478.154C255.241 477.926 255.418 477.716 255.617 477.528L257.248 475.824L263.38 469.595V469.681L267.538 456.88C269.169 452.037 270.812 446.654 272.444 440.94C275.669 429.795 278.711 419.728 281.531 412.641C282.893 409.098 284.18 406.29 285.076 404.365L286.179 402.17C286.301 401.911 286.44 401.661 286.596 401.422C286.526 401.703 286.423 401.974 286.29 402.231L285.309 404.463C284.475 406.425 283.261 409.245 281.948 412.8C279.25 419.912 276.282 429.966 273.057 441.124C271.389 446.801 269.721 452.16 268.065 457.064C266.41 461.969 264.901 466.211 263.675 469.828L257.445 475.959L255.74 477.59C255.547 477.803 255.329 477.993 255.09 478.154Z" fill="#1E1E1E"/>
<path d="M313.763 398.753L291.65 489.389L268.68 500.817V478.648L308.428 396.791L313.763 398.753Z" fill="#FFB000"/>
<g opacity="0.3">
<path opacity="0.3" d="M271.473 481.234C277.74 483.589 283.381 487.365 288.925 491.043C294.468 494.722 299.962 498.682 306.094 501.343C312.226 504.004 319.119 505.438 325.717 504.09C332.315 502.741 338.41 498.253 340.569 491.914L271.473 481.234Z" fill="black"/>
</g>
<path d="M304.934 383.561L310.587 374.904L312.807 386.761L318.436 380.397L346.386 367.314L351.231 377.712L320.35 395.969L311.789 395.332L305.547 387.914L304.934 383.561Z" fill="#E0E0E0"/>
<path d="M304.932 383.536C305.142 384.114 305.282 384.715 305.349 385.326C305.631 386.675 305.95 388.208 306.305 389.888L305.741 389.814L307.262 387.018L309.617 382.862L309.923 382.322L310.12 382.886C310.61 384.309 310.88 385.498 311.101 386.319C311.253 386.746 311.348 387.192 311.383 387.644C311.108 387.278 310.907 386.861 310.794 386.418C310.475 385.621 310.132 384.431 309.568 383.095H310.07C309.371 384.321 308.599 385.792 307.789 387.3L306.232 390.059L305.827 390.783L305.668 389.986C305.151 387.875 304.904 385.708 304.932 383.536Z" fill="#1E1E1E"/>
<path d="M314.337 387.927L310.781 387.498C309.812 388.577 307.457 390.809 306.488 391.9V391.998C306.905 394.364 307.322 396.743 307.715 399.11C309.706 399.011 311.701 399.172 313.651 399.588L316.925 393.849L314.337 387.927Z" fill="#FFB000"/>
<path d="M320.411 521.622C319.404 520.747 318.446 519.818 317.541 518.838C315.262 516.59 312.871 514.458 310.379 512.45C307.873 510.453 305.265 508.587 302.566 506.859C301.413 506.192 300.299 505.459 299.23 504.664C299.579 504.753 299.913 504.889 300.224 505.069C300.849 505.375 301.732 505.853 302.799 506.466C305.588 508.095 308.252 509.927 310.771 511.947C313.296 513.961 315.666 516.162 317.86 518.532C318.706 519.439 319.356 520.199 319.785 520.739C320.036 521.001 320.247 521.298 320.411 521.622Z" fill="#1E1E1E"/>
<path d="M314.605 388.66L318.555 386.711L319.904 393.626L316.605 393.921L314.605 388.66Z" fill="#FFB000"/>
<path opacity="0.3" d="M318.02 383.929V399.587L347.135 380.361L320.043 396.129L318.02 383.929Z" fill="black"/>
<path d="M351.231 377.713C350.697 378.162 350.131 378.572 349.538 378.939C348.422 379.711 346.766 380.803 344.632 382.053C340.475 384.616 334.502 387.743 328.064 391.433C325.353 393.015 322.79 394.597 320.472 396.166L320.092 396.424L320.006 395.97C319.123 391.188 318.363 387.044 317.786 383.917L318.117 384.027L315.039 386.884C314.69 387.242 314.308 387.566 313.898 387.853C314.188 387.446 314.521 387.072 314.892 386.737C315.652 385.977 316.633 384.972 317.835 383.745L318.093 383.488L318.166 383.844C318.792 386.958 319.638 391.09 320.619 395.86L320.165 395.664C322.471 394.07 325.071 392.463 327.769 390.882C334.232 387.203 340.217 384.113 344.424 381.673C346.546 380.447 348.214 379.429 349.33 378.731C349.934 378.34 350.57 377.999 351.231 377.713Z" fill="#1E1E1E"/>
<path d="M310.818 388.821L309.186 384.824L306.488 389.778L307.641 391.568L310.818 388.821Z" fill="#FFB000"/>
<path d="M315.278 388.244C315.413 388.367 313.463 390.623 311.378 393.627C309.294 396.631 307.81 399.206 307.699 399.12C308.446 397.008 309.527 395.029 310.9 393.259C312.078 391.361 313.557 389.668 315.278 388.244Z" fill="#1E1E1E"/>
<path d="M313.308 399.708C312.292 399.779 311.272 399.676 310.291 399.402C309.277 399.342 308.281 399.105 307.348 398.703C309.39 398.459 311.459 398.808 313.308 399.708Z" fill="#1E1E1E"/>
<path d="M166.559 456.086L148.162 404.024C148.081 403.758 148.056 403.479 148.087 403.203C148.119 402.927 148.207 402.66 148.347 402.42C148.486 402.179 148.673 401.97 148.897 401.805C149.12 401.64 149.375 401.523 149.646 401.461L192.203 390.352C192.714 390.245 193.246 390.329 193.699 390.589C194.151 390.849 194.492 391.267 194.656 391.762L214.021 450.396L274.115 489.841L271.233 492.784L255.866 489.044L166.559 456.086Z" fill="#455A64"/>
<path d="M271.167 492.785C271.058 492.741 270.955 492.683 270.861 492.613L269.978 492.061L266.654 489.879L254.464 481.762C244.162 474.846 230.009 465.319 214.384 454.787L211.196 452.629L211.11 452.567V452.469L196.724 409.052L192.468 395.993L191.34 392.45C191.23 392.07 191.132 391.763 191.07 391.53C191.036 391.422 191.007 391.311 190.984 391.199C191.046 391.293 191.091 391.397 191.119 391.506C191.217 391.739 191.328 392.045 191.463 392.413L192.689 395.92C193.756 399.022 195.265 403.448 197.141 408.917L211.711 452.273L211.588 452.102L214.777 454.247L254.746 481.382L266.826 489.658L270.088 491.939L270.934 492.552C271.032 492.662 271.18 492.773 271.167 492.785Z" fill="#1E1E1E"/>
<path d="M173.891 454.968C173.891 454.796 182.255 454.257 192.581 453.742C202.908 453.227 211.296 452.994 211.309 453.178C211.321 453.362 202.944 453.889 192.618 454.404C182.292 454.919 173.903 455.139 173.891 454.968Z" fill="#1E1E1E"/>
<path d="M180.69 425.224C181.425 427.59 181.008 429.822 179.758 430.214C178.507 430.607 176.875 428.988 176.14 426.658C175.404 424.329 175.808 422.06 177.072 421.668C178.335 421.276 179.941 422.894 180.69 425.224Z" fill="#E0E0E0"/>
<path d="M233.114 443.827C233.114 443.827 231.532 444.612 231.287 442.074C231.066 439.83 236.463 436.495 238.486 435.257C240.51 434.018 244.765 434.864 246.936 435.146C249.867 435.526 256.747 438.592 258.881 441.191C261.015 443.791 262.561 450.62 263.407 451.258C264.253 451.895 291.406 462.6 291.406 462.6L285.213 484.082C285.213 484.082 260.255 473.046 255.779 468.644C251.302 464.243 252.345 463.078 251.572 459.718C250.799 456.359 249.953 452.803 249.953 452.803L247.611 451.834L243.183 453.06C242.844 454.168 242.308 455.207 241.601 456.126C241.277 456.493 240.878 456.788 240.43 456.99C239.983 457.192 239.498 457.296 239.007 457.296C238.517 457.296 238.032 457.192 237.584 456.99C237.137 456.788 236.738 456.493 236.414 456.126C235.739 456.33 235.01 456.26 234.386 455.932C233.762 455.604 233.292 455.044 233.078 454.372C232.815 453.522 232.773 452.619 232.955 451.748C232.955 451.748 230.944 452.153 230.931 449.652C230.858 446.893 233.114 443.827 233.114 443.827Z" fill="#E6B9AA"/>
<path d="M247.274 446.669C247.274 446.779 246.367 446.743 244.969 447.049C243.145 447.423 241.451 448.266 240.055 449.497C238.659 450.727 237.609 452.301 237.009 454.063C236.519 455.411 236.445 456.319 236.335 456.307C236.222 455.506 236.302 454.691 236.568 453.928C237.096 452.032 238.16 450.329 239.634 449.023C241.106 447.711 242.931 446.859 244.883 446.571C245.675 446.399 246.498 446.433 247.274 446.669Z" fill="#6F4439"/>
<path d="M245.274 442.047C245.274 442.169 244.281 442.047 242.822 442.341C240.885 442.841 239.118 443.853 237.707 445.271C236.289 446.726 235.053 448.348 234.028 450.102C233.636 450.861 233.159 451.573 232.605 452.223C232.84 451.399 233.186 450.611 233.636 449.882C234.549 448.028 235.745 446.328 237.18 444.842C238.671 443.339 240.582 442.322 242.662 441.924C243.526 441.709 244.434 441.752 245.274 442.047Z" fill="#6F4439"/>
<path d="M244.846 436.997C244.846 437.107 243.987 436.997 242.675 437.23C240.978 437.582 239.379 438.302 237.99 439.339C236.605 440.41 235.324 441.608 234.164 442.919C233.709 443.499 233.181 444.019 232.594 444.464C232.903 443.79 233.317 443.169 233.82 442.625C234.905 441.187 236.184 439.908 237.622 438.824C239.08 437.721 240.801 437.02 242.614 436.788C243.362 436.648 244.136 436.721 244.846 436.997Z" fill="#6F4439"/>
<path d="M360.893 388.084C368.546 389.58 373.513 396.299 375.071 404.698C377.278 416.604 349.966 472.896 344.876 485.194C339.517 498.142 327.706 500.962 320.753 500.803C313.799 500.644 265.441 477.948 265.441 477.948L272.53 453.425L315.54 466.189L332.588 418.247" fill="#E0E0E0"/>
<path d="M332.592 418.224C332.592 418.224 332.506 418.518 332.322 419.082L331.476 421.535L328.14 431.086C325.209 439.399 320.99 451.391 315.766 466.203L315.692 466.411L315.484 466.35L272.461 453.672L272.817 453.476C270.56 461.331 268.201 469.505 265.74 477.998L265.581 477.63C276.876 482.878 288.969 488.384 301.564 493.681C306.69 495.814 311.755 497.923 316.882 499.554L318.807 500.106C319.457 500.277 320.095 500.326 320.733 500.449C322.049 500.48 323.365 500.406 324.67 500.228C327.263 499.899 329.793 499.184 332.175 498.107C336.838 496.014 340.691 492.458 343.152 487.979C344.378 485.809 345.237 483.467 346.267 481.223C347.297 478.979 348.266 476.748 349.259 474.565C357.206 457.105 364.246 441.263 369.299 427.678C371.752 420.872 373.935 414.619 374.818 408.93C375.039 407.568 375.072 406.181 374.916 404.81C374.69 403.563 374.375 402.333 373.971 401.132C373.289 398.994 372.302 396.966 371.04 395.111C369.29 392.523 366.846 390.479 363.988 389.214C363.248 388.884 362.481 388.617 361.695 388.417C361.168 388.282 360.898 388.184 360.898 388.184L361.72 388.355C362.513 388.53 363.289 388.776 364.038 389.091C366.947 390.331 369.444 392.372 371.237 394.976C372.543 396.837 373.564 398.883 374.266 401.046C374.674 402.278 375.001 403.535 375.247 404.81C375.412 406.213 375.387 407.632 375.173 409.028C374.315 414.779 372.181 421.044 369.728 427.886C364.712 441.557 357.709 457.411 349.799 474.933C348.801 477.132 347.804 479.355 346.806 481.603C345.801 483.835 344.93 486.164 343.691 488.408C341.17 493.006 337.217 496.657 332.433 498.806C329.998 499.915 327.41 500.651 324.755 500.988C323.414 501.171 322.061 501.248 320.708 501.221C320.034 501.099 319.322 501.037 318.66 500.854L316.698 500.302C311.522 498.647 306.457 496.538 301.319 494.416C288.699 489.107 276.606 483.59 265.311 478.329L265.078 478.219L265.152 477.962C267.605 469.477 269.984 461.262 272.265 453.439L272.338 453.157L272.621 453.243L315.619 466.056L315.324 466.203C320.635 451.416 324.927 439.448 327.895 431.16C329.391 427.04 330.556 423.803 331.341 421.645C331.746 420.578 332.04 419.757 332.261 419.193C332.482 418.629 332.592 418.224 332.592 418.224Z" fill="#1E1E1E"/>
<path d="M322.408 484.18C322.212 484.18 321.55 479.901 319.636 474.923C317.723 469.944 315.368 466.266 315.54 466.168C316.208 466.854 316.77 467.635 317.208 468.485C318.399 470.458 319.409 472.535 320.225 474.69C321.055 476.842 321.684 479.067 322.101 481.335C322.332 482.265 322.436 483.222 322.408 484.18Z" fill="#1E1E1E"/>
<path d="M357.923 388.195C357.923 388.306 356.341 388.833 353.901 390.059C352.482 390.785 351.114 391.604 349.804 392.511C348.214 393.622 346.709 394.852 345.303 396.19C343.924 397.564 342.649 399.04 341.489 400.604C340.548 401.893 339.696 403.245 338.938 404.65C337.712 407.102 337.099 408.66 336.988 408.611C337.043 408.215 337.146 407.828 337.295 407.458C337.634 406.426 338.044 405.418 338.521 404.442C339.225 402.984 340.045 401.586 340.974 400.261C342.138 398.663 343.439 397.17 344.862 395.797C346.285 394.416 347.828 393.165 349.473 392.058C350.816 391.154 352.231 390.363 353.704 389.691C354.69 389.207 355.711 388.798 356.758 388.465C357.133 388.325 357.525 388.235 357.923 388.195Z" fill="#1E1E1E"/>
<path d="M89.5284 564.805L66.2266 535.758C66.2266 535.758 156.135 461.711 164.634 456.414C171.073 452.417 184.159 447.096 196.521 451.252C208.883 455.409 229.879 469.902 237.606 474.549C245.332 479.196 312.736 520.971 320.094 531.16C320.094 531.16 305.451 557.644 295.861 562.083C288.355 565.565 266.696 560.366 254.052 552.678C241.408 544.991 183.374 495.307 183.374 495.307L89.5284 564.805Z" fill="#1E1E1E"/>
<path d="M98.2266 598.858L129.635 621.407L190.085 522.948L251.099 550.744L210.076 482.215C210.076 482.215 176.962 482.595 171.787 482.019C165.115 481.259 152.925 491.828 146.278 504.641C140.477 515.824 98.2266 598.858 98.2266 598.858Z" fill="#1E1E1E"/>
<path d="M231.335 542.628C231.2 542.75 217.427 528.699 200.552 511.239C183.676 493.778 170.112 479.531 170.247 479.359C170.382 479.187 184.142 493.288 201.018 510.748C217.893 528.208 231.457 542.505 231.335 542.628Z" fill="#455A64"/>
<path opacity="0.3" d="M115.883 545.315C115.883 545.315 142.864 494.785 155.655 491.426C155.655 491.426 137.259 516.39 131.127 534.059L115.883 545.315Z" fill="black"/>
<path d="M175.999 485.391C174.836 485.062 173.646 484.836 172.443 484.717C169.155 484.513 165.873 485.208 162.95 486.728C159.197 488.53 155.506 492 152.244 496.439C148.752 501.311 145.549 506.383 142.653 511.631C136.521 522.825 131.787 533.407 128.01 540.886C126.158 544.651 124.576 547.642 123.472 549.715L122.147 552.069C122.007 552.351 121.839 552.618 121.645 552.866C121.756 552.571 121.887 552.285 122.037 552.008C122.344 551.394 122.736 550.597 123.263 549.555C124.294 547.459 125.814 544.43 127.617 540.653C131.296 533.125 135.957 522.519 142.101 511.287C145.013 506.012 148.249 500.922 151.79 496.047C155.089 491.596 158.903 488.077 162.828 486.237C165.828 484.721 169.192 484.076 172.541 484.374C173.744 484.509 174.915 484.853 175.999 485.391Z" fill="#455A64"/>
<path d="M113.645 580.562L96.4755 612.258C96.4755 612.258 58.1377 607.721 54.7773 613.484L117.079 645.364L142.944 595.423L113.645 580.562Z" fill="#1E1E1E"/>
<path d="M117.101 619.408C119.64 621.689 116.255 625.735 113.606 623.516C110.785 620.965 114.832 616.846 117.285 619.604" fill="#E0E0E0"/>
<path d="M116.997 645.341L119.45 640.203L58.767 611.597C58.767 611.597 55.3821 611.389 54.6953 613.498L116.997 645.341Z" fill="#455A64"/>
<path d="M95.6549 611.427C95.5077 611.734 96.9671 612.653 97.9605 614.394C98.9539 616.136 99.1011 617.815 99.4445 617.84C101.125 616.785 97.3596 610.373 95.6549 611.427Z" fill="white"/>
<path d="M87.6866 610.789C87.4658 611.046 88.5083 612.236 88.913 614.05C89.3177 615.865 88.913 617.373 89.2073 617.52C91.1696 617.104 89.6611 610.298 87.6866 610.789Z" fill="white"/>
<path d="M79.9688 616.714C81.6489 616.922 81.8942 610.178 80.214 610.276C80.2876 610.485 80.0546 616.505 79.9688 616.714Z" fill="white"/>
<path d="M99.8945 604.361C100.115 604.361 106.027 607.856 106.162 608.04C107.13 606.605 100.667 602.829 99.8945 604.361Z" fill="white"/>
<path d="M90.2497 524.074L60.8157 544.845C60.8157 544.845 28.4506 523.792 22.7969 527.446L64.495 583.616L108.646 548.818L90.2497 524.074Z" fill="#1E1E1E"/>
<path d="M76.1025 560.419C77.3289 563.595 72.5337 565.716 71.1969 562.552C69.7987 559.009 75.244 557.108 76.2374 560.676" fill="#E0E0E0"/>
<path d="M64.5295 583.617L68.9569 580.086L27.2588 527.546C27.2588 527.546 24.3031 525.854 22.7578 527.448L64.5295 583.617Z" fill="#455A64"/>
<path d="M60.3785 543.73C60.1087 543.939 61.004 545.41 61.1266 547.409C61.2493 549.407 60.6238 550.989 60.9182 551.161C62.954 550.989 62.4021 543.595 60.3785 543.73Z" fill="white"/>
<path d="M53.5801 539.65C53.2612 539.785 53.6782 541.318 53.2122 543.108C52.7461 544.898 51.716 546.088 51.9858 546.345C53.9603 546.872 55.5546 540.092 53.5801 539.65Z" fill="white"/>
<path d="M44.0312 541.535C45.4416 542.479 48.6548 536.545 47.0973 535.883C47.085 536.104 44.1416 541.4 44.0312 541.535Z" fill="white"/>
<path opacity="0.3" d="M226.713 537.845C226.713 537.845 192.373 511.703 184.156 501.612C179.268 495.584 175.11 488.999 171.77 481.994L226.713 537.845Z" fill="black"/>
</svg>
