<svg width="52" height="52" viewBox="0 0 52 52" fill="none" xmlns="http://www.w3.org/2000/svg">
<path d="M48.9643 7.24305H48.1445L46.6736 3.20114C46.3737 2.38027 45.7607 1.71202 44.9687 1.34249C44.1764 0.972962 43.2702 0.933008 42.4487 1.23099L34.4256 4.15146C33.7897 4.37941 33.2406 4.79955 32.8535 5.35328C32.4665 5.90738 32.261 6.56767 32.2655 7.2431H12.017L8.95652 6.12916C8.37883 5.9191 7.74632 5.91529 7.16597 6.11812C6.58562 6.32134 6.09314 6.71865 5.77232 7.24308H3.03569C2.23081 7.24384 1.45899 7.56427 0.890131 8.13321C0.321196 8.70214 0.00113986 9.47395 0 10.2785V36.276C0.000761074 37.0809 0.320816 37.8523 0.890131 38.4216C1.45907 38.9909 2.23088 39.3109 3.03569 39.3121H18.9674V45.8505L16.6943 45.8501C16.0161 45.8509 15.3661 46.1207 14.8866 46.6002C14.4075 47.0797 14.1377 47.7297 14.1369 48.4075V50.1124C14.1369 50.3388 14.2267 50.5554 14.3865 50.7152C14.5464 50.875 14.7633 50.9649 14.9894 50.9649H37.01C37.2361 50.9649 37.453 50.875 37.6128 50.7152C37.7727 50.5554 37.8625 50.3388 37.8625 50.1124V48.4075C37.8617 47.7297 37.5919 47.0797 37.1124 46.6002C36.6329 46.1207 35.9829 45.8508 35.3051 45.8501H33.032V39.3117H48.9647L48.9643 39.3121C49.7692 39.3109 50.541 38.9905 51.1102 38.4216C51.6792 37.8522 51.9992 37.0804 52 36.2756V10.2781C51.9989 9.47358 51.6788 8.70177 51.1099 8.13282C50.5409 7.56388 49.7691 7.24345 48.9643 7.24269L48.9643 7.24305ZM34.111 6.57517C34.2888 6.19232 34.6122 5.89624 35.0092 5.75277L43.0318 2.8323C43.4287 2.68845 43.8664 2.70748 44.2488 2.88596C44.6317 3.06444 44.9278 3.38754 45.0724 3.78409L47.9925 11.8067H47.9921C48.1367 12.2033 48.118 12.6409 47.9396 13.0238C47.7615 13.4066 47.4384 13.7027 47.0414 13.8469H47.041L39.018 16.7674C38.6215 16.9116 38.1834 16.8926 37.801 16.7141C37.4186 16.5356 37.1225 16.2125 36.9778 15.816L34.0578 7.79332H34.0581C33.9124 7.3964 33.9314 6.95799 34.111 6.57514L34.111 6.57517ZM7.64104 7.76325C7.76739 7.7035 7.90552 7.6723 8.04557 7.6723C8.15783 7.67268 8.26896 7.69208 8.37437 7.7309L17.5867 11.084C17.8256 11.1712 18.0205 11.3497 18.1278 11.5803C18.2351 11.8109 18.2466 12.0746 18.1594 12.3136L17.7031 13.5668L16.84 11.6864H16.8404C16.7441 11.4756 16.566 11.3131 16.3472 11.2366C16.1283 11.1601 15.8878 11.1761 15.6812 11.2807L11.4886 13.4005L10.2734 10.9755C10.0782 10.5862 9.62112 10.4066 9.21314 10.5592L5.87033 11.8078L7.14522 8.3043V8.30392C7.23161 8.06455 7.4101 7.87008 7.64109 7.76314L7.64104 7.76325ZM3.79241 17.5163L4.04815 16.8146L15.0629 20.8238L14.8071 21.5251V21.5255C14.6252 22.0222 14.0753 22.2783 13.5779 22.0983L4.36536 18.7459C3.86758 18.5644 3.61109 18.0141 3.79262 17.5163L3.79241 17.5163ZM15.645 19.222L4.63123 15.2129L5.10427 13.9128L9.09221 12.4241L10.3477 14.9297C10.4497 15.1322 10.6278 15.2859 10.8428 15.3567C11.0578 15.4279 11.2923 15.4104 11.4947 15.3084L15.6608 13.2024L16.8744 15.8462L15.645 19.222ZM36.1575 48.4073V49.2597H15.8418V48.4073C15.8422 47.9369 16.2235 47.5552 16.6942 47.5548H35.3051C35.7755 47.5552 36.1572 47.9369 36.1575 48.4073ZM31.3271 45.8499H20.6718V39.3115L31.3271 39.3119V45.8499ZM50.2955 36.2758C50.2951 37.0106 49.6995 37.6062 48.9647 37.607H3.03621C2.30134 37.6062 1.70579 37.0106 1.7054 36.2758V33.7709C1.94097 33.7709 2.13163 33.5799 2.13163 33.3447C2.13163 33.1091 1.94097 32.9184 1.7054 32.9184V10.2781C1.70616 9.54366 2.30136 8.94851 3.03621 8.94773H5.09692L2.19018 16.9338H2.1898C1.94814 17.5975 1.98012 18.3301 2.27885 18.9706C2.57759 19.6107 3.11799 20.1062 3.7821 20.3479L12.994 23.7002H12.9944C13.6581 23.9419 14.3907 23.9103 15.0311 23.6115C15.6716 23.3132 16.1667 22.7724 16.4084 22.1083L19.7611 12.896C20.0028 12.2323 19.9708 11.4997 19.6721 10.8593C19.3737 10.2192 18.8329 9.72369 18.1688 9.48198L16.7007 8.94767H32.6645L35.376 16.3983L35.3764 16.398C35.674 17.2207 36.2867 17.8909 37.0797 18.2608C37.8724 18.6303 38.7801 18.6691 39.6014 18.3685L47.6244 15.448C48.446 15.1493 49.1155 14.5362 49.4846 13.7439C49.8541 12.9516 49.8937 12.0447 49.5946 11.2235L48.7661 8.94734H48.9651C49.7 8.9481 50.2956 9.54368 50.2959 10.2781V32.9184C50.0604 32.9184 49.8697 33.1091 49.8697 33.3447C49.8697 33.5799 50.0604 33.7709 50.2959 33.7709L50.2955 36.2758ZM6.32036 33.3447C6.32036 33.4577 6.27545 33.5662 6.19554 33.6461C6.11562 33.726 6.00716 33.7709 5.89413 33.7709H4.21815C3.98258 33.7709 3.79192 33.5799 3.79192 33.3447C3.79192 33.1091 3.98258 32.9184 4.21815 32.9184H5.89413C6.00716 32.9184 6.11562 32.9634 6.19554 33.0433C6.27546 33.1232 6.32036 33.2316 6.32036 33.3447ZM10.5088 33.3447C10.5088 33.4577 10.4639 33.5662 10.384 33.6461C10.3041 33.726 10.1956 33.7709 10.0826 33.7709H8.40737C8.1718 33.7709 7.98114 33.5799 7.98114 33.3447C7.98114 33.1091 8.1718 32.9184 8.40737 32.9184H10.0826C10.1956 32.9184 10.3041 32.9634 10.384 33.0433C10.4639 33.1232 10.5088 33.2316 10.5088 33.3447ZM44.0196 33.3447C44.0196 33.4577 43.9747 33.5662 43.8948 33.6461C43.8145 33.726 43.7064 33.7709 43.5934 33.7709H41.9174C41.6822 33.7709 41.4912 33.5799 41.4912 33.3447C41.4912 33.1091 41.6822 32.9184 41.9174 32.9184H43.5934C43.8286 32.9184 44.0196 33.1091 44.0196 33.3447ZM35.642 33.3447C35.642 33.4577 35.5971 33.5662 35.5168 33.6461C35.4368 33.726 35.3288 33.7709 35.2157 33.7709H33.5398C33.3046 33.7709 33.1135 33.5799 33.1135 33.3447C33.1135 33.1091 33.3046 32.9184 33.5398 32.9184H35.2157C35.4509 32.9184 35.642 33.1091 35.642 33.3447ZM14.6978 33.3447H14.6974C14.6974 33.4577 14.6525 33.5662 14.5726 33.6461C14.4927 33.726 14.3842 33.7709 14.2712 33.7709H12.596C12.3604 33.7709 12.1698 33.5799 12.1698 33.3447C12.1698 33.1091 12.3604 32.9184 12.596 32.9184H14.2712C14.3842 32.9184 14.4927 32.9634 14.5726 33.0433C14.6525 33.1232 14.6974 33.2316 14.6974 33.3447H14.6978ZM39.8312 33.3447H39.8308C39.8308 33.4577 39.7859 33.5662 39.706 33.6461C39.6261 33.726 39.5176 33.7709 39.4046 33.7709H37.7294C37.4938 33.7709 37.3032 33.5799 37.3032 33.3447C37.3032 33.1091 37.4938 32.9184 37.7294 32.9184H39.4046C39.5176 32.9184 39.6261 32.9634 39.706 33.0433C39.7859 33.1232 39.8308 33.2316 39.8308 33.3447H39.8312ZM48.2088 33.3447H48.2085C48.2085 33.4577 48.1636 33.5662 48.0836 33.6461C48.0037 33.726 47.8953 33.7709 47.7822 33.7709H46.107C45.8715 33.7709 45.6808 33.5799 45.6808 33.3447C45.6808 33.1091 45.8715 32.9184 46.107 32.9184H47.7822C47.8953 32.9184 48.0037 32.9634 48.0836 33.0433C48.1636 33.1232 48.2085 33.2316 48.2085 33.3447H48.2088ZM31.4539 33.3447H31.4535C31.4535 33.4577 31.4086 33.5662 31.3287 33.6461C31.2488 33.726 31.1403 33.7709 31.0273 33.7709H29.3521C29.1165 33.7709 28.9259 33.5799 28.9259 33.3447C28.9259 33.1091 29.1165 32.9184 29.3521 32.9184H31.0273C31.1403 32.9184 31.2488 32.9634 31.3287 33.0433C31.4086 33.1232 31.4535 33.2316 31.4535 33.3447H31.4539ZM23.0763 33.3447H23.0759C23.0759 33.4577 23.031 33.5662 22.9511 33.6461C22.8711 33.726 22.7627 33.7709 22.6497 33.7709H20.9745C20.7389 33.7709 20.5482 33.5799 20.5482 33.3447C20.5482 33.1091 20.7389 32.9184 20.9745 32.9184H22.6497C22.7627 32.9184 22.8711 32.9634 22.9511 33.0433C23.031 33.1232 23.0759 33.2316 23.0759 33.3447H23.0763ZM18.8878 33.3447H18.8874C18.8874 33.4577 18.8425 33.5662 18.7626 33.6461C18.6827 33.726 18.5742 33.7709 18.4612 33.7709H16.786C16.5504 33.7709 16.3598 33.5799 16.3598 33.3447C16.3598 33.1091 16.5504 32.9184 16.786 32.9184H18.4616C18.6968 32.9184 18.8875 33.1095 18.8875 33.3447H18.8878ZM27.2655 33.3447H27.2651C27.2651 33.4577 27.2202 33.5662 27.1403 33.6461C27.0604 33.726 26.9519 33.7709 26.8389 33.7709H25.1629C24.9277 33.7709 24.7367 33.5799 24.7367 33.3447C24.7367 33.1091 24.9277 32.9184 25.1629 32.9184H26.8389C26.9519 32.9184 27.0604 32.9634 27.1403 33.0433C27.2202 33.1232 27.2651 33.2316 27.2651 33.3447H27.2655ZM38.5978 13.1965H38.597C38.6956 13.472 38.8661 13.7167 39.0902 13.9051C39.3148 14.0935 39.5854 14.2187 39.8742 14.2678C39.972 14.2849 40.0713 14.2936 40.1711 14.2933C40.6616 14.294 41.127 14.0752 41.4398 13.6973L44.4743 10.0808H44.4747C44.7267 9.78056 44.8644 9.40114 44.8644 9.00955C44.8644 8.61758 44.7263 8.23815 44.4743 7.93789C44.222 7.63763 43.8727 7.43594 43.4864 7.36781L38.8382 6.54922C38.4523 6.48072 38.0546 6.55037 37.7152 6.74635C37.3758 6.94234 37.1162 7.25136 36.9822 7.61974C36.8479 7.98811 36.8483 8.3919 36.9822 8.75989L38.5978 13.1965ZM43.1272 9.03658L40.1995 12.6139L38.5426 8.22757L43.1272 9.03658ZM33.8849 16.8035C33.8849 16.5478 33.7696 16.3053 33.5713 16.1432C33.3731 15.9815 33.1128 15.9175 32.862 15.9685L21.8229 18.2272C21.426 18.3083 21.1409 18.6572 21.1409 19.0622V25.8834V25.883C20.6249 25.5759 20.0362 25.4122 19.436 25.4088C18.5314 25.4088 17.6641 25.7681 17.0248 26.4078C16.3854 27.0471 16.0262 27.9145 16.0262 28.8186C16.0262 29.7232 16.3854 30.5906 17.0248 31.2299C17.6641 31.8692 18.5314 32.2285 19.436 32.2285C20.3402 32.2285 21.2076 31.8692 21.8469 31.2299C22.4866 30.5905 22.8459 29.7232 22.8459 28.8186V23.2434L32.1802 21.3269V23.3256C31.6642 23.0185 31.0754 22.8549 30.4753 22.8514C29.5707 22.8514 28.7034 23.2107 28.0641 23.85C27.4247 24.4897 27.0655 25.3571 27.0655 26.2613C27.0655 27.1654 27.4247 28.0328 28.0641 28.6725C28.7034 29.3118 29.5707 29.6711 30.4753 29.6711C31.3795 29.6711 32.2468 29.3118 32.8861 28.6725C33.5259 28.0328 33.8851 27.1654 33.8851 26.2613L33.8849 16.8035ZM19.436 30.5237C18.9839 30.5237 18.5501 30.344 18.2304 30.0244C17.9107 29.7047 17.7311 29.2709 17.7311 28.8188C17.7311 28.3667 17.9107 27.9332 18.2304 27.6131C18.5501 27.2935 18.9839 27.1138 19.436 27.1138C19.8881 27.1138 20.3216 27.2935 20.6416 27.6131C20.9613 27.9332 21.1409 28.3667 21.1409 28.8188C21.1402 29.2709 20.9606 29.7043 20.6409 30.024C20.3212 30.3437 19.8878 30.5233 19.4357 30.5237L19.436 30.5237ZM22.8459 19.7584L32.1802 17.8486V19.5867L22.8459 21.5032V19.7584ZM30.4753 27.9667C30.0232 27.9667 29.5893 27.7871 29.2697 27.4674C28.95 27.1477 28.7704 26.7139 28.7704 26.2618C28.7704 25.8097 28.95 25.3762 29.2697 25.0562C29.5893 24.7365 30.0232 24.5569 30.4753 24.5569C30.9274 24.5569 31.3609 24.7365 31.6809 25.0562C32.0006 25.3762 32.1802 25.8097 32.1802 26.2618C32.1795 26.7139 31.9998 27.1473 31.6802 27.467C31.3605 27.7863 30.9274 27.9663 30.4753 27.9667L30.4753 27.9667Z" fill="#FFB000"/>
</svg>
