<svg width="52" height="52" viewBox="0 0 52 52" fill="none" xmlns="http://www.w3.org/2000/svg">
<path d="M47.3601 46.1059L43.725 42.4704V8.19543C43.7254 7.67533 43.5026 7.17976 43.1133 6.83481L35.9417 0.4603C35.6087 0.163474 35.1785 -0.000428655 34.7325 8.41968e-07H10.2368C9.52744 0.000431 8.84778 0.282632 8.34615 0.784229C7.84455 1.28583 7.56235 1.9659 7.56149 2.67534V3.85403H6.38236C5.67298 3.85489 4.99332 4.13709 4.49169 4.63869C3.99009 5.14029 3.70789 5.82036 3.70703 6.5298V49.3242C3.70789 50.0336 3.99009 50.7137 4.49169 51.2153C4.99329 51.7169 5.67303 51.9991 6.38236 52H37.196C37.9054 51.9991 38.5851 51.7169 39.0867 51.2153C39.5883 50.7137 39.8705 50.0337 39.8713 49.3242V48.1455H40.397L42.8594 50.6079L42.8589 50.6074C43.663 51.4119 44.8352 51.7259 45.9339 51.4313C47.0322 51.137 47.8904 50.2788 48.1847 49.1805C48.4794 48.0818 48.1649 46.91 47.3609 46.1055L47.3601 46.1059ZM36.0214 3.10006L40.269 6.84692H36.7695C36.3565 6.84649 36.0218 6.5118 36.0214 6.09883V3.10006ZM37.943 49.3239C37.9421 49.7368 37.6079 50.0715 37.1949 50.0724H6.38122C5.96825 50.0715 5.63356 49.7368 5.63313 49.3239V6.52942C5.63356 6.11645 5.96825 5.78176 6.38122 5.7809H7.56036V45.4697C7.56122 46.1791 7.84342 46.8592 8.34502 47.3608C8.84661 47.8624 9.52635 48.1446 10.2357 48.1455H37.9427L37.943 49.3239ZM10.236 46.2179C9.82304 46.2171 9.48835 45.8824 9.48792 45.4694V2.67498C9.48835 2.262 9.82304 1.92731 10.236 1.92645L34.094 1.90021V6.09882C34.0949 6.80819 34.3767 7.48785 34.8783 7.98949C35.3799 8.49108 36.0599 8.77328 36.7694 8.77414H41.7973V40.5426L39.6632 38.408C39.1616 37.9107 38.3529 37.9116 37.8526 38.4097L37.1888 39.0735L35.4895 37.3742H35.4891C38.4596 33.9289 39.4219 29.1857 38.0293 24.8549C36.6367 20.5247 33.0908 17.2312 28.6694 16.1626C24.2475 15.094 19.589 16.4044 16.3725 19.6208C13.156 22.8373 11.8461 27.4967 12.9151 31.9176C13.9841 36.3387 17.2776 39.8851 21.6083 41.2767C25.939 42.6688 30.6818 41.706 34.1265 38.7356L35.8258 40.4349L35.1624 41.0982H35.1629C34.922 41.3383 34.7864 41.6639 34.7864 42.0042C34.786 42.3441 34.9211 42.6702 35.162 42.9106L38.4684 46.217L10.236 46.2179ZM25.6428 39.9772V39.9768C22.7026 39.9768 19.8826 38.8089 17.8035 36.7298C15.7244 34.6507 14.5565 31.8309 14.5565 28.8905C14.5565 25.9502 15.7244 23.1303 17.8035 21.0512C19.8826 18.9721 22.7024 17.8042 25.6428 17.8042C28.5832 17.8042 31.4031 18.9721 33.4822 21.0512C35.5613 23.1303 36.7292 25.9501 36.7292 28.8905C36.7257 31.8299 35.5565 34.6476 33.4782 36.7258C31.4 38.8045 28.5818 39.9733 25.6428 39.9768V39.9772ZM45.9977 49.2451V49.2447C45.5064 49.7338 44.7119 49.7338 44.221 49.2447L36.9827 42.006L38.7594 40.2293C42.8345 44.3049 41.8459 43.3163 45.9977 47.468C46.4868 47.9588 46.4868 48.7534 45.9977 49.2447V49.2451Z" fill="#FFB000"/>
<path d="M22.6171 34.0341L19.2934 30.2618C18.9476 29.8622 18.9884 29.2582 19.3851 28.9089C19.7813 28.5591 20.3857 28.5944 20.7389 28.9876L23.3397 31.9391L30.5583 23.748C30.9114 23.3543 31.5163 23.3186 31.9129 23.6684C32.31 24.0181 32.3504 24.6225 32.0037 25.0222L24.0625 34.0337V34.0341C23.875 34.2333 23.6134 34.346 23.3398 34.346C23.0662 34.346 22.8047 34.2333 22.6171 34.0341L22.6171 34.0341Z" fill="#FFB000"/>
<path d="M30.8185 9.61864H21.1824C20.6502 9.61864 20.2188 9.18716 20.2188 8.65502C20.2188 8.12289 20.6502 7.69141 21.1824 7.69141H30.8185C31.3506 7.69141 31.7821 8.12289 31.7821 8.65502C31.7821 9.18716 31.3506 9.61864 30.8185 9.61864Z" fill="#FFB000"/>
<path d="M37.076 13.4722H14.9128C14.3807 13.4722 13.9492 13.0407 13.9492 12.5085C13.9492 11.9764 14.3807 11.5449 14.9128 11.5449H37.076C37.6081 11.5449 38.0396 11.9764 38.0396 12.5085C38.0396 13.0407 37.6081 13.4722 37.076 13.4722Z" fill="#FFB000"/>
</svg>
