<svg width="52" height="52" viewBox="0 0 52 52" fill="none" xmlns="http://www.w3.org/2000/svg">
<path d="M42.463 26.8666H32.9296V24.2666C32.9296 24.0368 32.8383 23.8163 32.6758 23.6538C32.5133 23.4913 32.2928 23.4 32.063 23.4H30.3296V0.866666C30.3296 0.636846 30.2383 0.416307 30.0758 0.253809C29.9133 0.0913119 29.6928 0 29.463 0H25.9963C25.5177 0 25.1296 0.388068 25.1296 0.866666V23.4H23.3963C22.9177 23.4 22.5296 23.788 22.5296 24.2666V26.8666H12.9963C12.3068 26.8666 11.6452 27.1406 11.1578 27.6281C10.6704 28.1156 10.3963 28.7772 10.3963 29.4666V36.3999V36.451C10.5697 39.4626 10.5929 47.7464 8.58486 49.8759C8.39334 50.1169 8.10432 50.2601 7.79635 50.2667C7.31776 50.2667 6.92969 50.6547 6.92969 51.1333C6.92969 51.6119 7.31776 52 7.79635 52H40.7297C41.7465 52 45.063 50.8733 45.063 36.4V29.4667C45.063 28.7772 44.7891 28.1156 44.3016 27.6282C43.8141 27.1408 43.1524 26.8667 42.4631 26.8667L42.463 26.8666ZM26.863 1.73333H28.5963V23.4H26.863V1.73333ZM24.263 25.1333H31.1963V26.8666H24.263V25.1333ZM12.1296 29.4666C12.1296 28.988 12.5177 28.6 12.9963 28.6H42.463C42.6928 28.6 42.9133 28.6913 43.0758 28.8538C43.2383 29.0163 43.3296 29.2368 43.3296 29.4666V35.5333H12.1296V29.4666ZM40.6484 50.2666H34.6634C35.4832 48.7472 36.3967 45.9055 36.3967 40.7333H34.6634C34.6634 47.3935 33.0922 49.6971 32.5834 50.2666H31.1967C32.0165 48.7472 32.93 45.9055 32.93 40.7333H31.1967C31.1967 47.3935 29.6255 49.6971 29.1167 50.2666H23.3967C24.2165 48.7472 25.13 45.9055 25.13 40.7333H23.3967C23.3967 47.3935 21.8255 49.6971 21.3167 50.2666H18.1967C19.0165 48.7472 19.93 45.9055 19.93 40.7333H18.1967C18.1967 47.3935 16.6255 49.6971 16.1167 50.2666H14.73C15.5499 48.7472 16.4634 45.9055 16.4634 40.7333H14.73C14.73 47.3935 13.1588 49.6971 12.65 50.2666H10.4365C12.3347 47.041 12.2685 39.9231 12.1698 37.2666H43.3302C43.2157 48.8096 40.9035 50.1537 40.6486 50.2666H40.6484Z" fill="#FFB000"/>
<path d="M40.7328 30.332H38.1328V32.0654H39.8662V33.7987H41.5995V31.1987C41.5995 30.9689 41.5082 30.7483 41.3457 30.5858C41.1832 30.4233 40.9626 30.332 40.7328 30.332Z" fill="#FFB000"/>
<path d="M33.7964 17.3328C34.4858 17.3328 35.1475 17.6067 35.6349 18.0942C36.1223 18.5817 36.3963 19.2433 36.3963 19.9327C36.3963 20.4113 36.7844 20.7994 37.263 20.7994C37.7416 20.7994 38.1296 20.4113 38.1296 19.9327C38.1296 19.2432 38.4035 18.5816 38.8911 18.0942C39.3786 17.6068 40.0402 17.3328 40.7296 17.3328C41.2082 17.3328 41.5962 16.9447 41.5962 16.4661C41.5962 15.9875 41.2082 15.5994 40.7296 15.5994C40.0401 15.5994 39.3785 15.3255 38.8911 14.838C38.4036 14.3505 38.1296 13.6888 38.1296 12.9995C38.1296 12.5209 37.7416 12.1328 37.263 12.1328C36.7844 12.1328 36.3963 12.5209 36.3963 12.9995C36.3963 13.6889 36.1224 14.3506 35.6349 14.838C35.1474 15.3254 34.4857 15.5994 33.7964 15.5994C33.3178 15.5994 32.9297 15.9875 32.9297 16.4661C32.9297 16.9447 33.3178 17.3328 33.7964 17.3328ZM37.263 15.5727C37.5157 15.9124 37.8167 16.2134 38.1564 16.466C37.8167 16.7187 37.5156 17.0197 37.263 17.3594C37.0104 17.0197 36.7094 16.7187 36.3697 16.466C36.7094 16.2134 37.0104 15.9124 37.263 15.5727Z" fill="#FFB000"/>
<path d="M13.8667 21.6667C14.5561 21.6667 15.2178 21.9407 15.7052 22.4282C16.1926 22.9157 16.4666 23.5773 16.4666 24.2667C16.4666 24.7453 16.8547 25.1334 17.3333 25.1334C17.8119 25.1334 18.1999 24.7453 18.1999 24.2667C18.1999 23.5772 18.4739 22.9156 18.9614 22.4282C19.4489 21.9408 20.1105 21.6667 20.7999 21.6667C21.2785 21.6667 21.6666 21.2787 21.6666 20.8001C21.6666 20.3215 21.2785 19.9334 20.7999 19.9334C20.1104 19.9334 19.4488 19.6595 18.9614 19.172C18.474 18.6845 18.1999 18.0228 18.1999 17.3335C18.1999 16.8549 17.8119 16.4668 17.3333 16.4668C16.8547 16.4668 16.4666 16.8549 16.4666 17.3335C16.4666 18.0229 16.1927 18.6846 15.7052 19.172C15.2177 19.6594 14.556 19.9334 13.8667 19.9334C13.3881 19.9334 13 20.3215 13 20.8001C13 21.2787 13.3881 21.6667 13.8667 21.6667ZM17.3333 19.9067C17.586 20.2464 17.887 20.5474 18.2267 20.8C17.887 21.0527 17.586 21.3537 17.3333 21.6934C17.0807 21.3537 16.7797 21.0527 16.44 20.8C16.7797 20.5474 17.0807 20.2464 17.3333 19.9067Z" fill="#FFB000"/>
<path d="M13.8594 30.332H15.5927V32.0654H13.8594V30.332Z" fill="#FFB000"/>
<path d="M32.9297 30.332H36.3964V32.0654H32.9297V30.332Z" fill="#FFB000"/>
</svg>
