<svg width="52" height="52" viewBox="0 0 52 52" fill="none" xmlns="http://www.w3.org/2000/svg">
<g clip-path="url(#clip0_2049_2196)">
<path d="M50.6683 44.547L36.6049 30.4925C36.2676 30.1571 35.7231 30.1571 35.3858 30.4925L34.7723 31.106L31.3232 27.657V27.6573C33.9222 24.1338 35.0933 19.7582 34.6024 15.4076C34.1112 11.0571 31.9938 7.05313 28.6752 4.19717C25.3561 1.342 21.0804 -0.153753 16.706 0.0102353C12.3308 0.174243 8.17939 1.9856 5.08357 5.08162C1.98775 8.17763 0.17618 12.329 0.0121918 16.704C-0.151816 21.0789 1.34386 25.3545 4.19913 28.6732C7.05469 31.9919 11.0588 34.1092 15.4096 34.6005C19.7601 35.0913 24.1357 33.9201 27.6593 31.3212L31.1084 34.7703L30.4948 35.3838H30.4945C30.1591 35.7211 30.1591 36.2656 30.4945 36.6029L44.549 50.6663C45.6422 51.7595 47.2356 52.1868 48.729 51.7866C50.2223 51.3864 51.3889 50.2199 51.7891 48.7264C52.1893 47.2331 51.7621 45.6397 50.6689 44.5465L50.6683 44.547ZM17.4242 32.9819C13.2975 32.9819 9.34015 31.3426 6.42214 28.4249C3.50444 25.5068 1.86515 21.5495 1.86515 17.4229C1.86515 13.2964 3.50444 9.3389 6.42214 6.4209C9.34024 3.5032 13.2976 1.86391 17.4242 1.86391C21.5507 1.86391 25.5082 3.5032 28.4262 6.4209C31.3439 9.339 32.9832 13.2964 32.9832 17.4229C32.9801 21.5485 31.3397 25.5043 28.4223 28.421C25.5054 31.3383 21.5497 32.9788 17.4243 32.9818L17.4242 32.9819ZM28.9982 30.2244C29.4285 29.8373 29.8383 29.4275 30.2253 28.9972L33.5533 32.3252L32.3258 33.5527L28.9982 30.2244ZM49.4414 49.4406C48.9478 49.9126 48.2914 50.1761 47.6088 50.1761C46.9257 50.1761 46.2693 49.9126 45.7761 49.4406L32.3261 35.9995L35.9999 32.3258L49.441 45.7758C49.9276 46.2612 50.2012 46.9207 50.2012 47.6084C50.2012 48.296 49.9276 48.9552 49.441 49.441L49.4414 49.4406Z" fill="#FFB000"/>
<path d="M39.8984 29.5234H48.5424V31.2522H39.8984V29.5234Z" fill="#FFB000"/>
<path d="M36.1157 22.7988L35.0352 24.1491L39.3571 27.6066V27.6063C39.5103 27.729 39.7009 27.7957 39.8974 27.7957H51.9989V26.0669H40.2006L36.1157 22.7988Z" fill="#FFB000"/>
<path d="M50.2695 0.134766H51.9983V8.77871H50.2695V0.134766Z" fill="#FFB000"/>
<path d="M46.8125 1.86328H48.5413V8.77843H46.8125V1.86328Z" fill="#FFB000"/>
<path d="M43.3555 3.59375H45.0843V8.78012H43.3555V3.59375Z" fill="#FFB000"/>
<path d="M39.8984 5.32031H41.6273V8.77789H39.8984V5.32031Z" fill="#FFB000"/>
<path d="M50.2695 29.5234H51.9983V31.2522H50.2695V29.5234Z" fill="#FFB000"/>
<path d="M39.8984 19.1523H48.5424V20.8812H39.8984V19.1523Z" fill="#FFB000"/>
<path d="M50.2695 19.1523H51.9983V20.8812H50.2695V19.1523Z" fill="#FFB000"/>
<path d="M19.5077 50.27L18.3061 49.0683H18.3064C19.4155 47.6957 20.0194 45.9839 20.0178 44.2192C20.0221 42.2913 19.309 40.4309 18.017 39.0001C16.7254 37.5692 14.9473 36.6701 13.029 36.4779C11.1107 36.2861 9.18979 36.8148 7.63961 37.9609L5.11547 35.0135C4.9507 34.8225 4.71106 34.7121 4.45869 34.7109H0.136719V36.4397H4.06127L6.36925 39.1278H6.36887C4.65084 41.0963 4.03806 43.7968 4.73728 46.3139C5.43652 48.831 7.35477 50.828 9.84186 51.6284C12.3289 52.4283 15.0513 51.9247 17.0874 50.2874L18.5394 51.7484L18.5398 51.748C18.7046 51.9074 18.9242 51.9973 19.1534 51.9988H26.0686V50.2701L19.5077 50.27ZM7.50991 40.4592L8.98787 42.188L10.3019 41.0642L8.76333 39.2749C9.53974 38.7281 10.4342 38.3727 11.3739 38.2376V43.3549H6.25658C6.40863 42.2952 6.84121 41.2954 7.51001 40.4593L7.50991 40.4592ZM17.0788 47.8324L14.5806 45.3342L13.353 46.5617L15.8513 49.0599C14.146 50.3419 11.8901 50.627 9.91895 49.8101C7.94823 48.9936 6.55552 47.1961 6.25649 45.0837H12.2382C12.4674 45.0837 12.6874 44.9926 12.8494 44.8306C13.0115 44.6685 13.1026 44.4485 13.1026 44.2193V38.2376C15.215 38.5367 17.0124 39.9293 17.829 41.9001C18.6459 43.8712 18.3608 46.1271 17.0788 47.8324L17.0788 47.8324Z" fill="#FFB000"/>
<path d="M46.8125 22.6094H51.9989V24.3382H46.8125V22.6094Z" fill="#FFB000"/>
<path d="M39.8984 22.6094H45.0848V24.3382H39.8984V22.6094Z" fill="#FFB000"/>
<path d="M46.8125 12.2363H51.9989V13.9651H46.8125V12.2363Z" fill="#FFB000"/>
<path d="M39.8984 12.2363H45.0848V13.9651H39.8984V12.2363Z" fill="#FFB000"/>
<path d="M46.8125 15.6953H51.9989V17.4241H46.8125V15.6953Z" fill="#FFB000"/>
<path d="M39.8984 15.6953H45.0848V17.4241H39.8984V15.6953Z" fill="#FFB000"/>
<path d="M28.6586 8.77734H21.7434C17.389 8.78197 13.2145 10.5138 10.1358 13.5929C7.05681 16.6719 5.32496 20.8465 5.32031 25.2005C5.32031 25.4297 5.41138 25.6496 5.57346 25.8117C5.73553 25.9738 5.95549 26.0649 6.18471 26.0649H13.0999C17.4542 26.0602 21.6288 24.3284 24.7075 21.2493C27.7865 18.1703 29.5183 13.9957 29.523 9.64174C29.523 9.41252 29.4319 9.19256 29.2698 9.03049C29.1078 8.86842 28.8878 8.77734 28.6586 8.77734V8.77734ZM13.0995 24.3365H7.0738C7.29877 20.5968 8.94188 17.084 11.6678 14.514C14.3938 11.9443 17.9972 10.5108 21.7432 10.5061H27.7689C27.5439 14.2458 25.9008 17.7586 23.1749 20.3286C20.4489 22.8983 16.8455 24.3318 13.0995 24.3365V24.3365Z" fill="#FFB000"/>
<path d="M17.4247 12.2363C16.0489 12.2363 14.73 12.7827 13.7571 13.7552C12.7847 14.728 12.2383 16.047 12.2383 17.4227C12.2383 18.7984 12.7847 20.1173 13.7571 21.0902C14.73 22.0626 16.0489 22.6091 17.4247 22.6091C18.8004 22.6091 20.1193 22.0626 21.0922 21.0902C22.0646 20.1174 22.611 18.7984 22.611 17.4227C22.6095 16.0478 22.0627 14.7291 21.0906 13.7568C20.1181 12.7847 18.7996 12.2379 17.4247 12.2363ZM20.8656 17.261C20.2521 17.4921 19.5725 17.4771 18.9694 17.2193C18.3663 16.9615 17.8858 16.4811 17.6285 15.878C17.3711 15.2748 17.356 14.5953 17.5872 13.9817C18.4438 14.0222 19.2546 14.3807 19.8609 14.9874C20.4671 15.5936 20.8256 16.4044 20.8657 17.2611L20.8656 17.261ZM17.4247 20.8803C16.4005 20.8834 15.4284 20.4307 14.7713 19.6454C14.1142 18.8601 13.8401 17.8233 14.0238 16.8156C14.2075 15.8085 14.83 14.9348 15.7218 14.432C15.7098 14.5643 15.696 14.6963 15.696 14.8295C15.6975 15.9752 16.1532 17.0738 16.9632 17.8842C17.7736 18.6942 18.8722 19.1498 20.0179 19.1514C20.1511 19.1514 20.2834 19.1375 20.4154 19.1256C20.1167 19.6562 19.6822 20.098 19.157 20.4064C18.6314 20.7147 18.0337 20.8783 17.4248 20.8802L17.4247 20.8803Z" fill="#FFB000"/>
</g>
<defs>
<clipPath id="clip0_2049_2196">
<rect width="52.0001" height="52" fill="white"/>
</clipPath>
</defs>
</svg>
