<svg width="33" height="20" viewBox="0 0 33 20" fill="none" xmlns="http://www.w3.org/2000/svg">
<path d="M0.458282 8.89396L0.459686 8.89248L8.62406 0.767494C9.2357 0.158823 10.225 0.161088 10.8338 0.772806C11.4426 1.38445 11.4402 2.37374 10.8286 2.98249L5.34703 8.43748H31C31.863 8.43748 32.5625 9.13701 32.5625 9.99998C32.5625 10.8629 31.863 11.5625 31 11.5625H5.34711L10.8285 17.0175C11.4402 17.6262 11.4425 18.6155 10.8337 19.2271C10.2249 19.8389 9.23555 19.8411 8.62398 19.2325L0.45961 11.1075L0.458202 11.106C-0.153751 10.4952 -0.151794 9.50271 0.458282 8.89396Z" fill="#FFB000"/>
</svg>
