<svg width="33" height="20" viewBox="0 0 33 20" fill="none" xmlns="http://www.w3.org/2000/svg">
<path d="M32.5417 8.89396L32.5403 8.89248L24.3759 0.767494C23.7643 0.158823 22.775 0.161088 22.1662 0.772806C21.5574 1.38445 21.5598 2.37374 22.1714 2.98249L27.653 8.43748H2C1.13703 8.43748 0.4375 9.13701 0.4375 9.99998C0.4375 10.8629 1.13703 11.5625 2 11.5625H27.6529L22.1715 17.0175C21.5598 17.6262 21.5575 18.6155 22.1663 19.2271C22.7751 19.8389 23.7645 19.8411 24.376 19.2325L32.5404 11.1075L32.5418 11.106C33.1538 10.4952 33.1518 9.50271 32.5417 8.89396Z" fill="#FFB000"/>
</svg>
