<svg width="308" height="304" viewBox="0 0 308 304" fill="none" xmlns="http://www.w3.org/2000/svg">
<path d="M200.541 82.5762V121.162H205.963V130.53L215.332 121.162H266.739V82.5762H200.541Z" fill="#EBEBEB"/>
<path d="M246.154 101.87C246.153 102.491 246.336 103.098 246.68 103.615C247.024 104.132 247.514 104.535 248.088 104.774C248.661 105.013 249.293 105.076 249.902 104.955C250.512 104.835 251.072 104.537 251.512 104.099C251.952 103.66 252.252 103.101 252.374 102.492C252.495 101.884 252.434 101.252 252.196 100.679C251.959 100.105 251.556 99.6145 251.04 99.2695C250.523 98.9244 249.916 98.7402 249.294 98.7402C248.463 98.7402 247.665 99.0698 247.077 99.6565C246.488 100.243 246.156 101.039 246.154 101.87Z" fill="white"/>
<path d="M230.506 101.87C230.504 102.491 230.688 103.099 231.032 103.616C231.377 104.133 231.867 104.536 232.441 104.775C233.015 105.013 233.647 105.076 234.257 104.955C234.867 104.834 235.427 104.535 235.866 104.096C236.306 103.657 236.605 103.097 236.726 102.488C236.847 101.879 236.784 101.247 236.546 100.674C236.307 100.1 235.903 99.6101 235.386 99.2659C234.868 98.9217 234.26 98.7388 233.639 98.7402C232.808 98.7422 232.013 99.0726 231.426 99.6591C230.838 100.246 230.508 101.041 230.506 101.87Z" fill="white"/>
<path d="M214.846 101.87C214.844 102.491 215.027 103.098 215.371 103.615C215.716 104.132 216.205 104.535 216.779 104.774C217.353 105.013 217.984 105.076 218.594 104.955C219.203 104.835 219.764 104.537 220.204 104.099C220.643 103.66 220.943 103.101 221.065 102.492C221.187 101.884 221.125 101.252 220.888 100.679C220.65 100.105 220.248 99.6145 219.731 99.2695C219.215 98.9244 218.607 98.7402 217.986 98.7402C217.154 98.7402 216.357 99.0698 215.768 99.6565C215.179 100.243 214.848 101.039 214.846 101.87Z" fill="white"/>
<path d="M306.237 178.557C307.21 165.683 297.554 154.459 284.669 153.486C271.784 152.514 260.55 162.162 259.577 175.035C258.604 187.909 268.26 199.133 281.144 200.106C294.029 201.078 305.264 191.43 306.237 178.557Z" fill="#EBEBEB"/>
<path opacity="0.5" d="M272.727 197.843C269.422 196.246 266.539 193.894 264.313 190.977C262.086 188.061 260.577 184.662 259.909 181.055C259.24 177.448 259.431 173.734 260.465 170.215C261.499 166.695 263.348 163.468 265.861 160.794C268.375 158.121 271.483 156.076 274.934 154.824C278.386 153.573 282.083 153.151 285.728 153.593C289.373 154.034 292.863 155.326 295.915 157.364C298.967 159.402 301.497 162.13 303.299 165.326C300.738 161.177 296.767 158.09 292.113 156.629C287.459 155.168 282.434 155.432 277.959 157.372C273.483 159.312 269.858 162.798 267.746 167.192C265.634 171.585 265.178 176.592 266.461 181.295C267.744 185.997 270.679 190.08 274.73 192.796C278.781 195.512 283.676 196.678 288.518 196.081C293.359 195.483 297.823 193.163 301.092 189.545C304.36 185.927 306.214 181.253 306.314 176.38C306.384 180.374 305.43 184.319 303.541 187.839C301.652 191.359 298.892 194.337 295.524 196.49C292.156 198.642 288.293 199.896 284.302 200.133C280.311 200.37 276.326 199.581 272.727 197.843Z" fill="#DBDBDB"/>
<path d="M277.845 169.211C277.561 169.796 277.11 170.285 276.548 170.614C275.987 170.944 275.34 171.1 274.69 171.062C274.039 171.025 273.415 170.795 272.895 170.403C272.375 170.011 271.984 169.474 271.769 168.859C271.555 168.245 271.528 167.58 271.691 166.951C271.855 166.321 272.202 165.753 272.688 165.32C273.174 164.887 273.778 164.608 274.423 164.517C275.068 164.427 275.725 164.53 276.312 164.812C277.096 165.195 277.698 165.872 277.985 166.696C278.272 167.52 278.222 168.424 277.845 169.211Z" fill="#C7C7C7"/>
<path d="M297.955 178.931C297.671 179.517 297.219 180.005 296.657 180.334C296.095 180.663 295.447 180.818 294.797 180.78C294.147 180.742 293.522 180.511 293.003 180.118C292.484 179.725 292.092 179.187 291.879 178.572C291.666 177.957 291.64 177.293 291.804 176.663C291.969 176.033 292.316 175.466 292.803 175.034C293.29 174.602 293.895 174.323 294.54 174.234C295.186 174.145 295.843 174.249 296.429 174.533C296.818 174.722 297.167 174.985 297.454 175.308C297.741 175.631 297.962 176.008 298.104 176.416C298.246 176.825 298.305 177.257 298.28 177.689C298.254 178.12 298.144 178.542 297.955 178.931Z" fill="#C7C7C7"/>
<path d="M289.84 173.896C289.556 174.482 289.158 175.006 288.671 175.439C288.183 175.872 287.615 176.204 286.999 176.418C286.383 176.631 285.73 176.721 285.079 176.683C284.428 176.644 283.791 176.478 283.205 176.194C282.618 175.909 282.093 175.512 281.66 175.025C281.227 174.538 280.894 173.97 280.68 173.354C280.467 172.739 280.376 172.087 280.415 171.437C280.453 170.786 280.62 170.15 280.904 169.563L289.84 173.896Z" fill="#C7C7C7"/>
<path d="M287.503 176.222C286.832 176.54 286.098 176.704 285.356 176.701C284.613 176.699 283.88 176.53 283.212 176.207C282.543 175.884 281.955 175.416 281.492 174.836C281.028 174.256 280.701 173.58 280.533 172.857C281.906 172.495 283.362 172.635 284.641 173.252C285.919 173.869 286.934 174.922 287.503 176.222Z" fill="#DBDBDB"/>
<path d="M0.439453 173.179V227.166H8.02553V240.257L21.1287 227.166H93.057V173.179H0.439453Z" fill="white"/>
<path d="M0.440198 173.178C0.63095 189.092 0.770346 211.515 0.880395 227.165L0.440198 226.74L8.02627 226.703H8.50315V227.187L8.56918 240.279L7.63743 239.898L20.6893 226.74L20.8727 226.557C42.1489 226.52 72.0677 226.447 93.0578 226.469L92.3241 227.202L92.4122 173.215L93.0431 173.838C69.9547 173.757 23.5066 173.413 0.425524 173.215L0.440198 173.178ZM0.440198 173.178C23.844 172.98 70.2776 172.643 93.6814 172.548V173.178L93.7768 227.165V227.898C72.6986 227.964 42.5158 227.81 21.1442 227.81L21.5917 227.627L8.40777 240.667L7.47602 241.591V240.279L7.54939 227.187L8.02627 227.664L0.440198 227.598H0C0 211.706 0.359495 189.261 0.440198 173.178Z" fill="#EBEBEB"/>
<path d="M64.252 200.169C64.252 201.038 64.5101 201.889 64.9938 202.612C65.4775 203.335 66.165 203.899 66.9694 204.232C67.7737 204.565 68.6588 204.652 69.5127 204.482C70.3666 204.313 71.151 203.894 71.7666 203.279C72.3822 202.663 72.8015 201.88 72.9713 201.027C73.1412 200.173 73.054 199.289 72.7208 198.486C72.3876 197.682 71.8234 196.995 71.0995 196.512C70.3756 196.028 69.5246 195.771 68.6539 195.771C67.4865 195.771 66.3668 196.234 65.5413 197.059C64.7157 197.883 64.252 199.002 64.252 200.169Z" fill="#EBEBEB"/>
<path d="M42.3555 200.169C42.3555 201.038 42.6136 201.889 43.0973 202.612C43.581 203.335 44.2685 203.899 45.0729 204.232C45.8772 204.565 46.7623 204.652 47.6162 204.482C48.4701 204.313 49.2545 203.894 49.8701 203.279C50.4857 202.663 50.905 201.88 51.0748 201.027C51.2447 200.173 51.1575 199.289 50.8243 198.486C50.4912 197.682 49.9269 196.995 49.203 196.512C48.4791 196.028 47.6281 195.771 46.7574 195.771C45.59 195.771 44.4703 196.234 43.6448 197.059C42.8192 197.883 42.3555 199.002 42.3555 200.169Z" fill="#EBEBEB"/>
<path d="M20.459 200.169C20.459 201.038 20.7172 201.889 21.2009 202.612C21.6845 203.335 22.372 203.899 23.1764 204.232C23.9808 204.565 24.8658 204.652 25.7197 204.482C26.5736 204.313 27.358 203.894 27.9736 203.279C28.5893 202.663 29.0085 201.88 29.1784 201.027C29.3482 200.173 29.261 199.289 28.9279 198.486C28.5947 197.682 28.0305 196.995 27.3066 196.512C26.5827 196.028 25.7316 195.771 24.861 195.771C23.6935 195.771 22.5738 196.234 21.7483 197.059C20.9228 197.883 20.459 199.002 20.459 200.169Z" fill="#EBEBEB"/>
<path d="M77.6216 35.3306C80.0266 24.4559 73.1528 13.6923 62.2686 11.2893C51.3843 8.88645 40.6112 15.7542 38.2062 26.6289C35.8012 37.5036 42.675 48.2673 53.5592 50.6702C64.4435 53.0731 75.2166 46.2053 77.6216 35.3306Z" fill="#EBEBEB"/>
<path opacity="0.5" d="M61.0933 50.9009C57.9669 51.3925 54.7687 51.143 51.7566 50.1723C48.7445 49.2017 46.003 47.5373 43.7533 45.3132C41.5035 43.0892 39.8086 40.3679 38.8052 37.3689C37.8018 34.3699 37.5182 31.1773 37.977 28.0486C38.4359 24.92 39.6245 21.9429 41.4469 19.3576C43.2693 16.7724 45.6744 14.6514 48.4682 13.1658C51.262 11.6802 54.3663 10.8716 57.5304 10.8052C60.6946 10.7389 63.8301 11.4166 66.6838 12.7838C63.1099 11.2357 59.1221 10.9196 55.3486 11.8853C51.5751 12.851 48.2305 15.0436 45.8416 18.1177C43.4527 21.1918 42.1553 24.9726 42.1539 28.8645C42.1525 32.7564 43.4471 36.5381 45.8338 39.6139C48.2205 42.6897 51.5636 44.8847 55.3364 45.8532C59.1091 46.8216 63.0972 46.5083 66.6722 44.9628C70.2472 43.4173 73.2059 40.7273 75.0822 37.3167C76.9586 33.9061 77.6458 29.9687 77.0358 26.1248C76.6371 23.6324 75.7063 21.2549 74.3066 19.1538C76.3249 21.949 77.5934 25.2139 77.9911 28.6377C78.3888 32.0614 77.9026 35.5299 76.5786 38.7126C75.2547 41.8954 73.1372 44.6865 70.4278 46.82C67.7184 48.9535 64.5074 50.3584 61.1006 50.9009H61.0933Z" fill="#DBDBDB"/>
<path d="M50.5778 28.0928C50.6648 28.6466 50.5857 29.2137 50.3505 29.7226C50.1152 30.2314 49.7343 30.6593 49.2559 30.9521C48.7775 31.2448 48.2229 31.3895 47.6623 31.3676C47.1017 31.3458 46.5601 31.1585 46.106 30.8294C45.6518 30.5004 45.3054 30.0442 45.1105 29.5186C44.9155 28.9929 44.8809 28.4214 45.0108 27.8761C45.1407 27.3308 45.4294 26.8362 45.8404 26.4546C46.2515 26.0731 46.7664 25.8218 47.3203 25.7325C48.0655 25.6142 48.8272 25.7964 49.438 26.239C50.0488 26.6816 50.4587 27.3484 50.5778 28.0928Z" fill="#C7C7C7"/>
<path d="M69.6174 25.0768C69.7076 25.6324 69.6309 26.2023 69.3968 26.7143C69.1627 27.2263 68.7818 27.6573 68.3024 27.9529C67.823 28.2485 67.2665 28.3953 66.7035 28.3747C66.1405 28.3542 65.5963 28.1672 65.1397 27.8374C64.6832 27.5076 64.3348 27.0499 64.1388 26.5222C63.9428 25.9945 63.9079 25.4205 64.0385 24.873C64.1692 24.3254 64.4595 23.8289 64.8728 23.4464C65.286 23.0638 65.8035 22.8123 66.3599 22.7238C67.1037 22.6074 67.8635 22.7894 68.4736 23.2301C69.0837 23.6708 69.4948 24.3346 69.6174 25.0768Z" fill="#C7C7C7"/>
<path d="M61.6961 29.9147C62.1363 32.6415 60.7644 35.1265 58.6368 35.4637C56.5091 35.8008 54.4329 33.8657 54 31.1462C53.5671 28.4267 54.9318 25.9417 57.0594 25.5972C59.187 25.2527 61.2633 27.1952 61.6961 29.9147Z" fill="#C7C7C7"/>
<path d="M43.5215 25.1593C43.5215 25.1593 45.1355 21.8827 49.3908 23.1069L43.5215 25.1593Z" fill="#C7C7C7"/>
<path d="M69.7806 20.9603C69.7806 20.9603 67.2201 18.3508 63.5371 20.8357L69.7806 20.9603Z" fill="#C7C7C7"/>
<path d="M112.223 23.6221L114.894 27.595L119.501 28.8998L116.545 32.6675L116.721 37.4468L112.223 35.8049L107.726 37.4468L107.902 32.6675L104.945 28.8998L109.553 27.595L112.223 23.6221Z" fill="#EBEBEB"/>
<path d="M132.801 23.6221L135.472 27.595L140.079 28.8998L137.123 32.6675L137.299 37.4468L132.801 35.8049L128.304 37.4468L128.48 32.6675L125.523 28.8998L130.131 27.595L132.801 23.6221Z" fill="#EBEBEB"/>
<path d="M153.379 23.6221L156.05 27.595L160.657 28.8998L157.701 32.6675L157.877 37.4468L153.379 35.8049L148.882 37.4468L149.066 32.6675L146.102 28.8998L150.709 27.595L153.379 23.6221Z" fill="#EBEBEB"/>
<path d="M173.956 23.6221L176.626 27.595L181.234 28.8998L178.277 32.6675L178.453 37.4468L173.956 35.8049L169.458 37.4468L169.642 32.6675L166.678 28.8998L171.285 27.595L173.956 23.6221Z" fill="#EBEBEB"/>
<path d="M194.549 23.6221L197.213 27.595L201.82 28.8998L198.863 32.6675L199.047 37.4468L194.549 35.8049L190.052 37.4468L190.228 32.6675L187.271 28.8998L191.879 27.595L194.549 23.6221Z" stroke="#EBEBEB" stroke-width="0.789346" stroke-miterlimit="10"/>
<path d="M194.549 35.8049V23.6221L191.879 27.595L187.271 28.8998L190.228 32.6675L190.052 37.4468L194.549 35.8049Z" fill="#EBEBEB"/>
<path d="M38.1443 257.529C33.9551 257.676 29.2817 257.91 25.8114 255.198C22.6127 252.691 19.7514 248.953 20.1769 244.664C20.2943 243.448 20.5804 242.693 21.8864 243.198C23.8893 243.99 25.4299 246.196 26.8166 247.743C28.5722 249.76 30.518 251.604 32.6272 253.248C34.0945 254.392 35.7232 255.381 37.2419 256.488C37.4424 256.62 37.6332 256.759 37.8142 256.906L38.0343 257.074H38.1443C38.1778 257.072 38.2113 257.079 38.241 257.095C38.2708 257.11 38.2957 257.134 38.3131 257.162C38.317 257.187 38.317 257.211 38.3131 257.236C38.323 257.266 38.3265 257.298 38.3232 257.33C38.32 257.362 38.3101 257.392 38.2942 257.42C38.2782 257.448 38.2567 257.472 38.2309 257.49C38.205 257.509 38.1756 257.522 38.1443 257.529Z" fill="#455A64"/>
<path d="M38.3295 257.229C34.6611 257.163 30.67 257.331 27.7207 254.832C26.3672 253.639 25.213 252.239 24.3018 250.683C23.8763 249.95 22.5997 247.927 23.128 247.106C24.0817 245.64 28.4764 251.68 29.078 252.237C31.3811 254.32 34.1836 255.775 37.2143 256.459C37.4148 256.591 37.6056 256.73 37.7865 256.877C35.6387 256.455 33.5743 255.685 31.6751 254.597C29.0633 253.036 27.6106 250.734 25.5637 248.579C25.1235 248.117 23.7883 246.549 23.282 247.523C22.9519 248.169 24.1844 250.184 24.4559 250.624C25.3281 252.093 26.4163 253.422 27.684 254.568C30.6187 257.133 34.5804 257.038 38.2928 257.192C38.3064 257.203 38.3187 257.215 38.3295 257.229Z" fill="white"/>
<path d="M40.4377 260.06C40.4377 260.221 40.3643 260.382 40.335 260.543C40.3329 260.564 40.3248 260.583 40.3117 260.598C40.2987 260.614 40.2812 260.626 40.2616 260.631C40.2214 260.647 40.1768 260.648 40.1362 260.633C40.0956 260.618 40.0619 260.589 40.0415 260.551C40.0303 260.517 40.0303 260.481 40.0415 260.448V260.382L40.0929 260.235C40.0929 260.235 40.0929 260.199 40.0929 260.184C39.3592 257.413 39.0584 254.533 38.2734 251.762C37.5397 249.116 36.6006 246.521 36.0724 243.823C35.7349 242.123 34.5464 233.561 38.3174 234.638C39.9828 235.115 41.1273 237.526 41.7583 238.971C42.5863 240.919 43.0584 242.999 43.1523 245.113C43.4017 250.325 41.4942 255.068 40.4377 260.06Z" fill="#455A64"/>
<path d="M41.639 249.422C41.7146 247.471 41.5121 245.519 41.0374 243.624C40.8686 242.972 40.0469 239.827 38.9831 239.908C38.2935 239.952 38.1761 241.308 38.1174 241.755C37.8753 243.661 38.4915 245.596 38.851 247.451C39.5909 251.214 40.0543 255.026 40.2377 258.856C40.2377 259.098 40.1643 259.347 40.1349 259.589C40.1056 259.831 40.0836 259.993 40.0616 260.19C40.0616 260.264 40.0616 260.33 40.0616 260.396V260.557C40.0832 260.596 40.1178 260.626 40.1594 260.642C40.2009 260.658 40.2468 260.659 40.289 260.645C40.289 260.491 40.333 260.33 40.3477 260.176C40.3477 260.308 40.3477 260.432 40.3477 260.557C40.3477 260.418 40.3991 260.286 40.4284 260.161C40.4578 260.036 40.4284 260.102 40.4284 260.066C40.4284 259.853 40.4284 259.641 40.4284 259.435C41.0252 256.124 41.4294 252.781 41.639 249.422ZM40.3477 258.05C40.245 255.807 40.0249 253.579 39.7094 251.358C39.4526 249.562 39.1152 247.795 38.741 246.028C38.4988 245.034 38.3369 244.022 38.2568 243.001C38.2568 242.224 38.3375 239.336 39.8268 241.125C40.898 242.422 41.1547 245.186 41.2941 246.776C41.4213 248.542 41.3869 250.316 41.1914 252.076C40.9933 254.077 40.6632 256.064 40.3477 258.05Z" fill="white"/>
<path d="M42.6932 271.552C42.6419 271.557 42.5904 271.557 42.5391 271.552C38.702 271.361 33.6031 271.72 30.4117 269.184C28.0566 267.315 25.7456 263.621 26.4866 260.483C27.3376 256.943 32.1138 261.216 33.383 262.213C36.6813 265.078 39.8165 268.125 42.7739 271.339L42.8179 271.405C42.8619 271.493 42.7812 271.53 42.6932 271.552Z" fill="#455A64"/>
<path d="M42.8219 271.453L42.1616 271.043C39.6378 269.46 37.1923 267.764 34.825 265.956C34.2307 265.501 29.9168 261.66 29.2638 263.024C28.875 263.852 30.2983 265.545 30.7311 266.117C31.5584 267.139 32.5502 268.016 33.6658 268.712C36.2189 270.303 39.315 270.647 42.2056 271.409L42.6165 271.512L42.6899 271.563C42.7779 271.527 42.8586 271.49 42.8219 271.453ZM35.2138 269.254C34.0042 268.712 32.8954 267.968 31.9344 267.055C31.2887 266.447 28.9997 264.16 29.6307 263.214C29.9461 262.716 30.2102 262.98 30.8265 263.28C31.1045 263.421 31.3739 263.577 31.6336 263.749C32.2792 264.167 32.8734 264.666 33.4677 265.135C34.5242 265.978 35.588 266.791 36.6812 267.583C38.4566 268.88 40.2908 270.105 42.1616 271.248C39.8579 270.522 37.4148 270.244 35.2138 269.254Z" fill="white"/>
<path d="M49.6887 263.667C48.6775 268.057 46.3785 272.046 43.0858 275.124C43.0659 275.145 43.0405 275.16 43.0124 275.168C42.9769 275.177 42.9395 275.175 42.9053 275.162C42.8711 275.148 42.8418 275.125 42.8216 275.094C42.807 275.08 42.7954 275.063 42.7874 275.044C42.7795 275.025 42.7754 275.005 42.7754 274.984C42.7754 274.964 42.7795 274.944 42.7874 274.925C42.7954 274.906 42.807 274.889 42.8216 274.875L43.0197 274.677C43.6507 269.472 44.355 264.297 44.8906 259.078C45.0153 257.846 45.9764 250.018 48.3828 251.293C49.8501 252.085 49.9675 255.288 50.0996 256.732C50.3191 259.051 50.1806 261.39 49.6887 263.667Z" fill="#455A64"/>
<path d="M48.3066 256.685C48.1745 256.252 47.9471 255.798 47.4555 256.106C46.5238 256.692 46.1569 260.372 45.9882 261.391C45.3499 265.591 44.3521 269.623 43.3397 273.735C43.2516 274.08 43.1709 274.431 43.0829 274.776C43.0095 274.886 42.9288 274.988 42.8555 275.091C42.8749 275.122 42.904 275.147 42.9385 275.16C42.9729 275.173 43.0108 275.175 43.0462 275.164C43.0462 275.128 43.0462 275.091 43.0462 275.062C43.1489 274.923 43.259 274.776 43.3544 274.637C44.9976 272.387 46.2775 269.894 47.1474 267.248C47.6971 265.581 48.0709 263.861 48.2626 262.117C48.49 260.46 48.7908 258.261 48.3066 256.685ZM43.3837 274.387C43.3397 274.461 43.2883 274.527 43.2443 274.593L43.3764 274.175C44.3601 271.052 45.1419 267.869 45.7168 264.646C45.9955 263.004 46.1716 261.354 46.5091 259.72C46.6558 259.038 46.9933 257.066 47.5656 256.788C48.1378 256.509 48.1232 257.235 48.1819 257.675C48.1819 257.997 48.1819 258.569 48.2259 258.869C48.2863 264.422 46.5918 269.853 43.3837 274.387Z" fill="white"/>
<path d="M43.7605 286.344H43.0268C43.0268 285.67 43.0268 284.996 42.9828 284.328C42.8948 281.609 42.7847 278.889 42.616 276.17C42.5279 274.616 42.4179 273.077 42.2565 271.552C42.2528 271.501 42.2528 271.449 42.2565 271.398C42.2565 271.273 42.2565 271.156 42.2124 271.024C42.1684 270.892 42.2124 270.76 42.1611 270.621C41.8157 267.17 40.9268 263.796 39.5272 260.623C39.043 259.567 38.5074 258.534 37.9499 257.507C37.8985 257.412 37.8398 257.317 37.7885 257.214L37.7444 257.141C37.6931 257.038 37.6344 256.936 37.5757 256.833C37.5274 256.76 37.4833 256.684 37.4436 256.606C35.6682 253.49 33.6433 250.514 31.7211 247.516C31.1708 246.659 30.6132 245.794 30.0777 244.929C30.0407 244.881 30.0087 244.829 29.9823 244.775C29.934 244.716 29.8922 244.652 29.8576 244.584C27.4365 240.78 25.0594 236.931 22.5209 233.193C22.4256 233.061 22.653 232.936 22.7484 233.076C24.4431 235.553 26.1966 237.994 27.9354 240.443C28.1701 240.772 28.3976 241.102 28.669 241.425C29.1312 242.077 29.5861 242.715 30.041 243.367C30.9507 244.665 31.8458 245.962 32.7188 247.282C35.3021 250.936 37.6591 254.745 39.7767 258.687C39.9234 258.981 40.0702 259.281 40.2095 259.589C40.3049 259.772 40.393 259.963 40.4737 260.153C40.5544 260.344 40.6718 260.586 40.7671 260.806C42.3075 264.647 43.1593 268.728 43.2836 272.864C43.2836 273.15 43.3203 273.443 43.3349 273.736C43.3349 273.868 43.3349 274 43.3349 274.14C43.3313 274.21 43.3313 274.281 43.3349 274.352C43.3349 274.44 43.3349 274.535 43.3349 274.631C43.3349 274.697 43.3349 274.77 43.3349 274.836C43.3349 275.085 43.3349 275.334 43.3349 275.569C43.445 278.288 43.5184 281.008 43.5771 283.72C43.6944 284.607 43.7238 285.479 43.7605 286.344Z" fill="#455A64"/>
<path d="M20.8841 237.077C18.7858 234.263 16.1006 228.45 19.1893 225.422C19.7522 224.832 20.5145 224.473 21.3281 224.413C22.1416 224.353 22.9483 224.598 23.5913 225.1C25.2274 226.28 25.961 228.508 26.4893 230.356C27.9052 235.289 28.8443 240.317 30.6124 245.148C30.6887 245.317 30.7549 245.491 30.8105 245.668C30.8472 245.764 30.6858 245.808 30.6491 245.712L30.4731 245.236C27.1422 242.817 23.3712 240.42 20.8841 237.077Z" fill="#455A64"/>
<path d="M30.618 245.157C30.6036 245.128 30.5864 245.101 30.5667 245.076C29.8384 243.894 29.1842 242.667 28.6078 241.404C27.4362 238.781 26.4292 236.088 25.5925 233.341C25.255 232.278 23.7436 227.103 21.9241 229.162C21.1465 230.035 21.2565 231.574 21.3812 232.637C21.5889 234.345 22.1351 235.995 22.988 237.489C24.6534 240.48 27.2359 242.753 29.9577 244.761L30.3246 245.04L30.4053 245.171C30.417 245.201 30.4345 245.229 30.4566 245.252C30.4598 245.263 30.4655 245.272 30.4731 245.28C30.4808 245.287 30.4903 245.293 30.5007 245.296C30.5159 245.303 30.5326 245.307 30.5494 245.307C30.5662 245.307 30.5828 245.303 30.5981 245.296C30.6134 245.289 30.627 245.279 30.6381 245.266C30.6491 245.254 30.6573 245.239 30.6621 245.223C30.661 245.209 30.6564 245.196 30.6487 245.184C30.641 245.172 30.6305 245.163 30.618 245.157ZM29.8037 244.585C27.5453 242.925 25.5537 240.93 23.8977 238.67C23.0735 237.465 22.4354 236.143 22.0048 234.748C21.8144 234.127 21.6745 233.492 21.5867 232.849C21.5152 232.364 21.4882 231.873 21.506 231.383C21.506 230.32 21.9755 229.184 22.6064 229.045C23.3841 228.906 23.6482 229.36 24.1618 230.255C24.3349 230.558 24.4892 230.871 24.624 231.193C24.9615 231.992 25.233 232.82 25.4897 233.641C25.9299 235.012 26.3701 236.375 26.8617 237.724C27.1918 238.64 27.5513 239.549 27.9402 240.436C28.6026 241.977 29.3698 243.471 30.2365 244.908L29.8037 244.585Z" fill="white"/>
<path d="M268.998 244.956C268.646 247.749 268.118 250.52 267.531 253.276C267.215 254.838 266.878 256.399 266.562 257.968C266.21 259.69 265.696 261.449 266.166 263.187C266.176 263.265 266.176 263.343 266.166 263.421C266.144 263.451 266.113 263.475 266.078 263.489C266.044 263.503 266.006 263.507 265.968 263.501C265.931 263.495 265.897 263.479 265.868 263.454C265.84 263.43 265.818 263.398 265.807 263.363C265.804 263.324 265.804 263.284 265.807 263.245V263.209C265.548 262.746 265.346 262.254 265.205 261.743C263.551 257.72 262.619 253.437 262.454 249.091C262.373 246.505 262.635 243.919 263.231 241.401C263.73 239.371 264.435 236.344 265.953 234.804C267.325 233.404 268.462 235.647 268.888 236.791C269.754 239.334 269.321 242.31 268.998 244.956Z" fill="#455A64"/>
<path d="M266.486 239.028C265.466 239.028 264.725 242.32 264.365 243.742C263.797 245.982 263.504 248.284 263.492 250.595C263.497 254.743 264.204 258.859 265.583 262.771C265.634 262.932 265.686 263.093 265.745 263.247V263.284C265.741 263.321 265.741 263.357 265.745 263.394C265.757 263.43 265.778 263.462 265.807 263.487C265.836 263.512 265.871 263.528 265.908 263.535C265.946 263.542 265.985 263.538 266.02 263.525C266.056 263.512 266.087 263.489 266.111 263.46C266.045 263.115 265.994 262.778 265.95 262.434C265.906 262.089 265.884 261.818 265.862 261.517C265.583 258.175 266.06 254.752 266.486 251.431C267.05 247.539 267.843 239.036 266.486 239.028ZM265.752 262.17C265.803 262.624 265.877 263.071 265.965 263.511C265.857 263.189 265.754 262.866 265.657 262.544C264.535 259.064 263.889 255.45 263.734 251.798C263.667 249.74 263.817 247.681 264.182 245.655C264.38 244.569 264.645 243.497 264.974 242.444C265.121 242.004 265.855 239.248 266.486 239.387C266.933 239.483 267.036 241.968 267.043 242.019C267.043 242.51 267.043 243.009 267.043 243.485C267.043 244.511 266.962 245.538 266.874 246.556C266.684 248.755 266.361 250.955 266.097 253.154C265.626 256.135 265.51 259.161 265.752 262.17Z" fill="white"/>
<path d="M285.046 252.676C283.175 256.342 280.02 259.12 276.77 261.517C275.017 262.792 273.219 263.994 271.444 265.233C269.795 266.255 268.253 267.441 266.844 268.774L266.667 268.957C266.303 269.361 265.983 269.803 265.714 270.276C265.705 270.292 265.693 270.306 265.677 270.315C265.662 270.324 265.644 270.328 265.626 270.328C265.611 270.383 265.591 270.437 265.567 270.489C265.567 270.499 265.563 270.508 265.556 270.515C265.549 270.522 265.54 270.525 265.53 270.525C265.521 270.525 265.511 270.522 265.504 270.515C265.497 270.508 265.494 270.499 265.494 270.489C265.494 270.43 265.494 270.364 265.494 270.313C265.479 270.293 265.471 270.268 265.471 270.243C265.471 270.218 265.479 270.194 265.494 270.174V270.115C265.49 270.056 265.49 269.998 265.494 269.939C266.022 265.673 269.008 261.363 271.532 258.079C274.055 254.795 277.174 251.892 281.069 250.389C282.052 250.016 284.283 248.975 285.273 249.774C286.264 250.573 285.449 251.899 285.046 252.676Z" fill="#455A64"/>
<path d="M282.157 252.692C281.269 251.805 278.65 253.997 277.997 254.51C276.041 256.105 274.227 257.866 272.575 259.773C269.76 262.727 267.425 266.103 265.657 269.779L265.569 269.896C265.565 269.955 265.565 270.014 265.569 270.072V270.131C265.552 270.152 265.543 270.178 265.543 270.204C265.543 270.231 265.552 270.257 265.569 270.278C265.62 270.226 265.657 270.175 265.701 270.124C266.024 269.728 266.368 269.332 266.721 268.951L266.897 268.767C269.43 266.214 272.126 263.827 274.967 261.621C276.923 260.044 278.729 258.29 280.359 256.379C280.748 255.896 282.905 253.44 282.157 252.692ZM281.343 254.65C279.142 258.315 275.304 260.983 272.054 263.651C269.815 265.402 267.751 267.366 265.892 269.515C267.613 266.243 269.764 263.216 272.289 260.514C273.67 258.924 275.139 257.414 276.691 255.991C277.526 255.216 278.416 254.503 279.354 253.858C279.919 253.464 280.527 253.137 281.166 252.883C282.406 252.509 281.724 254.019 281.343 254.65Z" fill="white"/>
<path d="M265.12 278.962C265.1 278.995 265.072 279.022 265.039 279.042C265.005 279.061 264.968 279.071 264.929 279.072L264.981 279.138C264.987 279.143 264.992 279.15 264.995 279.158C264.999 279.165 265 279.174 265 279.182C265 279.19 264.999 279.198 264.995 279.206C264.992 279.214 264.987 279.22 264.981 279.226C264.975 279.232 264.968 279.237 264.961 279.241C264.953 279.244 264.945 279.246 264.937 279.246C264.928 279.246 264.92 279.244 264.912 279.241C264.905 279.237 264.898 279.232 264.893 279.226C261.43 275.707 258.099 271.434 256.375 266.765C255.631 264.8 255.212 262.728 255.135 260.629C255.098 259.163 255.025 256.304 256.25 255.256C258.722 253.16 260.982 262.073 261.312 263.422C261.929 265.87 262.332 268.37 262.897 270.833C263.513 273.523 264.364 276.169 265.142 278.808C265.151 278.834 265.154 278.861 265.15 278.888C265.146 278.915 265.136 278.94 265.12 278.962Z" fill="#455A64"/>
<path d="M265.121 278.964C264.989 278.737 264.857 278.51 264.732 278.275C262.641 274.545 261.139 270.515 260.279 266.327C259.908 264.205 259.358 262.118 258.635 260.089C258.43 259.598 257.813 257.7 256.999 258.66C256.574 259.158 256.926 262.757 257.094 263.688C257.51 265.806 258.185 267.864 259.105 269.816C260.599 273.11 262.504 276.201 264.776 279.016C264.835 279.104 264.901 279.184 264.967 279.265C264.973 279.26 264.978 279.253 264.981 279.245C264.985 279.238 264.987 279.229 264.987 279.221C264.987 279.213 264.985 279.205 264.981 279.197C264.978 279.189 264.973 279.183 264.967 279.177L264.923 279.111C264.967 279.109 265.009 279.094 265.044 279.068C265.079 279.042 265.106 279.006 265.121 278.964ZM260.102 271.297C259.104 269.404 258.307 267.412 257.725 265.352C257.504 264.53 257.33 263.695 257.205 262.853C257.101 262.193 257.045 261.527 257.036 260.859C257.036 259.232 257.183 258.806 257.454 258.748C257.725 258.689 257.857 258.894 258.334 259.869C258.633 260.504 258.866 261.167 259.031 261.849C259.281 262.826 259.508 263.803 259.714 264.781C260.132 266.716 260.528 268.673 261.093 270.571C261.889 273.312 263.046 275.935 264.534 278.371C262.862 276.141 261.379 273.774 260.102 271.297Z" fill="white"/>
<path d="M276.22 270.407C275.812 272.125 275.039 273.735 273.953 275.128C271.899 277.957 269.273 280.318 267.028 282.993C266.698 283.396 266.367 283.799 266.052 284.217C266.015 284.269 265.758 284.855 265.766 284.811C265.773 284.767 265.802 284.569 265.876 284.195C266.243 282.319 267.417 276.652 268.891 273.75C269.771 271.912 270.873 270.189 272.171 268.619C272.802 267.886 274.298 266.346 275.421 266.683C276.543 267.021 276.397 269.513 276.22 270.407Z" fill="#455A64"/>
<path d="M274.389 269.258C273.186 268.525 270.09 274.038 269.672 274.756C268.131 277.4 266.942 280.234 266.135 283.186C266.04 283.516 265.959 283.845 265.871 284.183C265.783 284.52 265.754 284.791 265.754 284.806C265.754 284.82 266.018 284.263 266.047 284.212L266.209 283.999C266.473 283.655 266.752 283.318 267.023 282.988C268.366 280.979 269.752 278.986 271.058 276.94C272.014 275.478 272.85 273.941 273.56 272.344C273.721 271.993 274.925 269.588 274.389 269.258ZM274.044 270.812C272.335 275.621 268.85 279.418 266.187 283.684C266.135 283.757 266.099 283.823 266.055 283.897L266.165 283.516C267.305 279.599 269.061 275.887 271.366 272.52C271.812 271.804 272.302 271.116 272.834 270.461C273.083 270.189 273.788 269.471 274.03 269.596C274.272 269.72 274.162 270.504 274.052 270.82L274.044 270.812Z" fill="white"/>
<path d="M288.328 230.715C284.755 238.91 275.386 242.729 271.321 250.631V250.668C271.196 250.91 271.079 251.159 270.962 251.401C270.949 251.425 270.931 251.445 270.909 251.46C270.887 251.475 270.862 251.485 270.835 251.489C270.809 251.492 270.782 251.49 270.757 251.481C270.731 251.472 270.709 251.457 270.69 251.438C270.677 251.418 270.67 251.395 270.67 251.372C270.67 251.348 270.677 251.325 270.69 251.306C270.715 251.245 270.745 251.186 270.778 251.13C271.409 246.197 273.434 241.124 275.789 236.777C277.843 233.002 280.653 229.447 284.542 227.475C285.503 226.984 287.374 225.943 288.445 226.742C289.516 227.541 288.731 229.674 288.328 230.715Z" fill="#455A64"/>
<path d="M285.076 231.068C284.621 230.731 283.931 231.141 283.542 231.339C282.568 231.846 281.657 232.466 280.828 233.186C279.143 234.674 277.689 236.403 276.514 238.318C274.405 241.535 272.705 245.002 271.452 248.638C271.18 249.459 270.945 250.295 270.718 251.138C270.718 251.241 270.674 251.343 270.645 251.446C270.663 251.465 270.686 251.48 270.711 251.489C270.736 251.498 270.763 251.501 270.79 251.497C270.816 251.494 270.841 251.484 270.863 251.468C270.885 251.453 270.903 251.433 270.916 251.409C271.026 251.16 271.136 250.933 271.253 250.676C271.251 250.654 271.251 250.632 271.253 250.61C271.946 248.972 272.799 247.405 273.799 245.934C275.443 243.709 277.229 241.593 279.148 239.6C279.903 238.816 286.646 232.219 285.076 231.068ZM284.503 232.959C283.418 234.887 281.738 236.463 280.263 238.09C278.788 239.718 277.284 241.382 275.861 243.053C274.701 244.385 273.655 245.812 272.735 247.319C271.965 248.572 271.309 249.892 270.777 251.263C271.155 249.868 271.623 248.5 272.178 247.165C272.178 247.165 272.178 247.128 272.178 247.121C273.186 244.751 274.342 242.448 275.641 240.223C275.658 240.198 275.673 240.171 275.685 240.143C276.774 238.152 278.102 236.3 279.639 234.63C280.482 233.73 281.425 232.928 282.449 232.241C283.623 231.508 284.65 230.987 284.944 231.369C285.134 231.632 284.826 232.395 284.503 232.959Z" fill="white"/>
<path d="M275.852 240.326C274.781 242.635 273.754 244.974 272.741 247.327C272.257 248.434 271.788 249.526 271.318 250.633C271.316 250.655 271.316 250.677 271.318 250.699C271.149 251.094 270.98 251.49 270.804 251.886C269.264 255.485 267.562 259.165 266.615 262.977C266.14 264.998 265.852 267.06 265.757 269.134C265.757 269.347 265.757 269.567 265.757 269.779C265.757 269.896 265.757 270.014 265.757 270.124C265.753 270.19 265.753 270.256 265.757 270.322C265.691 272.117 265.72 273.921 265.757 275.68C265.808 278.121 266.014 280.555 266.248 283.01C266.245 283.081 266.245 283.152 266.248 283.223C266.248 283.333 266.248 283.443 266.248 283.553V283.721V284.036C266.329 284.813 266.402 285.59 266.461 286.375H265.727C265.243 283.997 264.939 281.586 264.818 279.162V279.008C264.818 278.773 264.803 278.529 264.774 278.275C264.774 277.982 264.774 277.696 264.774 277.403C264.774 276.706 264.73 276.01 264.715 275.321C264.642 271.326 264.715 267.155 265.573 263.233C265.573 263.123 265.625 263.021 265.654 262.911C265.648 262.864 265.648 262.818 265.654 262.771C265.654 262.698 265.654 262.618 265.705 262.544L265.801 262.17C265.859 261.95 265.926 261.731 265.992 261.518L266.05 261.32C267.194 257.914 268.572 254.59 270.173 251.373C270.445 250.779 270.724 250.193 271.002 249.614L271.465 248.639C271.707 248.148 271.956 247.657 272.198 247.173C272.198 247.173 272.198 247.136 272.198 247.129C273.343 244.82 274.531 242.54 275.661 240.231C275.683 240.128 275.852 240.216 275.852 240.326Z" fill="#455A64"/>
<path d="M2.57812 286.344C99.1868 285.897 207.563 285.897 304.18 286.344C207.563 286.799 99.1868 286.799 2.57812 286.344Z" fill="#1E1E1E"/>
<path d="M208.57 1.23438V63.9222H217.374V79.1251L232.598 63.9222H297.101V1.23438H208.57Z" fill="white"/>
<path d="M208.572 1.23557C208.491 1.23557 209.071 64.781 208.572 63.7182H217.376H217.596V63.9381V79.1409L217.185 78.9723L232.46 63.6669C232.556 63.7328 296.978 63.5276 297.081 63.5716L296.722 63.9381C297.037 64.224 296.296 -0.0398874 297.081 1.51411C275.013 1.51411 230.611 1.34552 208.55 1.25023L208.572 1.23557ZM208.572 1.23557C230.633 1.1476 275.042 0.97168 297.133 0.97168H297.397V1.23557C297.463 1.82931 297.455 63.7108 297.499 64.2753H297.133C297.169 64.1507 231.961 64.3632 232.812 64.0993L217.574 79.2875L217.171 79.6907V79.1189V63.9161L217.383 64.1287H208.359V63.9234L208.572 1.23557Z" fill="#1E1E1E"/>
<path fill-rule="evenodd" clip-rule="evenodd" d="M247.577 49.5064C246.645 48.9346 245.831 48.0843 244.591 48.2089C244.114 48.2603 244.217 47.8644 244.217 47.6079C244.217 42.9312 244.197 38.2619 244.158 33.5999C244.158 33.2627 244.158 32.9841 244.547 32.7935C248.105 30.983 249.646 27.4425 251.818 24.4151C252.936 22.9098 253.738 21.1945 254.177 19.3719C254.616 17.5493 254.682 15.657 254.371 13.8083C254.224 12.7601 254.708 12.291 255.655 12.0711C256.799 11.8072 257.936 12.115 258.325 12.8994C259.361 14.8027 260.059 16.8712 260.387 19.0128C260.6 20.7793 259.969 22.5093 259.749 24.2612C259.594 25.544 259.301 26.8121 259.059 28.1095C259.374 28.3368 259.734 28.2122 260.071 28.2195L271.913 28.1828C273.578 28.1828 274.392 28.652 274.627 29.7515C274.758 30.4315 274.661 31.1355 274.353 31.7553C274.044 32.3751 273.54 32.8764 272.918 33.182C272.624 33.3286 272.096 33.182 272.059 33.6585C272.023 34.135 272.573 34.0763 272.844 34.2669C274.312 35.2418 274.018 37.265 272.368 38.4378C271.971 38.7163 271.201 38.5917 271.186 39.1708C271.172 39.7499 271.92 39.6326 272.228 39.9551C273.387 41.0913 272.815 43.2171 271.098 44.082C270.86 44.1559 270.627 44.2465 270.401 44.3533C270.211 44.4852 270.02 44.6318 270.401 44.903C272.111 46.1198 272.081 47.8351 270.365 49.0592L269.851 49.4331C269.227 49.8056 268.499 49.9675 267.775 49.8949L249.206 49.9609C248.918 49.9961 248.626 49.9741 248.346 49.8961C248.066 49.8181 247.805 49.6857 247.577 49.5064Z" fill="#FFB000"/>
<path fill-rule="evenodd" clip-rule="evenodd" d="M229.948 41.3332C229.948 38.4011 229.948 35.4031 229.904 32.4343C229.904 31.8332 229.963 31.54 230.704 31.54C234.323 31.5742 237.943 31.5742 241.562 31.54C242.296 31.54 242.384 31.7746 242.384 32.405C242.384 38.3718 242.403 44.341 242.443 50.3127C242.443 51.0457 242.245 51.2876 241.482 51.2729C237.967 51.2729 234.46 51.2729 230.946 51.3169C230.073 51.3169 229.956 51.031 229.963 50.2614C229.992 47.2706 229.956 44.3019 229.948 41.3332Z" fill="#FFB000"/>
<path d="M91.1875 109.788V156.987H84.5552V168.437L73.0953 156.987H24.5195V109.788H91.1875Z" fill="white"/>
<path d="M91.1915 109.788C91.1915 123.84 91.4336 143.331 91.397 157.193H91.1915H84.5886L84.8087 156.973V168.423V169.002L84.3978 168.591L72.916 157.178C73.9211 157.42 24.3035 157.259 24.4943 157.354H24.1348V156.987L24.2301 109.788V109.524H24.4943C41.1191 109.524 74.5521 109.664 91.1622 109.788H91.1915ZM91.1915 109.788C74.5814 109.913 41.1337 110.016 24.5236 110.045L24.7877 109.788L24.8904 156.987L24.5236 156.628L73.2095 156.724L73.2902 156.804L84.728 168.269L84.3245 168.437V156.987V156.775H91.1695L90.9641 156.98C90.9641 149.137 90.9641 141.301 91.0595 133.428L91.1695 109.781L91.1915 109.788Z" fill="#1E1E1E"/>
<path fill-rule="evenodd" clip-rule="evenodd" d="M54.6605 121.547C53.9268 121.98 53.3545 122.617 52.4154 122.529C52.056 122.493 52.1367 122.793 52.1367 122.984C52.1367 126.502 52.1367 130.019 52.1367 133.532C52.1367 133.789 52.1367 134.001 52.4301 134.141C55.1153 135.489 56.2819 138.157 57.9326 140.43C58.7765 141.562 59.3835 142.852 59.7176 144.223C60.0516 145.595 60.1058 147.02 59.8768 148.412C59.7668 149.197 60.1336 149.556 60.8526 149.717C61.2099 149.841 61.5976 149.846 61.9584 149.733C62.3191 149.619 62.6337 149.393 62.8555 149.087C63.6313 147.651 64.1503 146.09 64.3888 144.476C64.5502 143.142 64.066 141.845 63.9046 140.525C63.7799 139.565 63.5524 138.612 63.369 137.63C63.6038 137.461 63.8826 137.549 64.1027 137.542H73.046C74.2933 137.542 74.9095 137.183 75.0856 136.354C75.1793 135.842 75.1033 135.312 74.8689 134.847C74.6346 134.381 74.2548 134.005 73.787 133.774C73.5669 133.664 73.1634 133.774 73.1414 133.422C73.1194 133.07 73.5229 133.1 73.7284 132.96C74.8068 132.227 74.6087 130.703 73.3615 129.823C73.0607 129.61 72.4811 129.706 72.4665 129.266C72.4518 128.826 73.002 128.921 73.2515 128.68C74.1172 127.822 73.6843 126.217 72.3857 125.572C72.2069 125.517 72.0327 125.449 71.8648 125.366C71.7181 125.271 71.5714 125.161 71.8648 124.956C73.1561 124.04 73.1267 122.757 71.8648 121.826L71.4833 121.547C71.0104 121.267 70.4601 121.147 69.9133 121.203C65.257 121.203 60.5958 121.203 55.9297 121.203C55.7058 121.17 55.4776 121.184 55.2593 121.243C55.0409 121.302 54.8371 121.406 54.6605 121.547Z" fill="#455A64"/>
<path fill-rule="evenodd" clip-rule="evenodd" d="M41.4112 127.741C41.4112 129.977 41.4112 132.212 41.4112 134.441C41.4112 134.895 41.4552 135.122 42.0128 135.115C44.7493 135.115 47.4492 135.115 50.1784 135.115C50.714 135.115 50.7947 134.932 50.7947 134.463C50.7947 129.962 50.7947 125.466 50.7947 120.975C50.7947 120.403 50.648 120.242 50.061 120.242C47.4199 120.242 44.7713 120.279 42.1301 120.242C41.4699 120.242 41.3965 120.469 41.3965 121.041C41.4258 123.277 41.4112 125.505 41.4112 127.741Z" fill="#455A64"/>
<path d="M108.11 38.627V96.0151H100.047V109.942L86.1147 96.0151H9.65234V38.627H108.11Z" fill="white"/>
<path d="M108.11 38.6296L108.315 96.0177V96.223H108.11H100.039L100.259 96.0031V109.93V110.51L99.8485 110.099L85.9089 96.1717C86.9361 96.4209 9.40259 96.245 9.60802 96.3403H9.25586V95.9811L9.3439 38.593V38.3584H9.60802C34.1564 38.4024 83.5319 38.4977 108.066 38.6223L108.11 38.6296ZM108.11 38.6296C83.5759 38.7616 34.1784 38.8642 9.65204 38.9008C10.2757 37.2369 9.85013 96.3769 10.0042 96.0177L9.65204 95.6659C9.84279 95.7465 86.1951 95.6072 86.3051 95.8345L100.245 109.762L99.8412 109.923V95.9957V95.7832H108.124C107.611 97.022 108.264 38.3584 108.124 38.6076L108.11 38.6296Z" fill="#1E1E1E"/>
<path d="M99.583 48.7715H18.1758V49.6511H99.583V48.7715Z" fill="#1E1E1E"/>
<path d="M99.583 55.751H18.1758V56.6306H99.583V55.751Z" fill="#1E1E1E"/>
<path d="M99.583 62.7207H18.1758V63.6003H99.583V62.7207Z" fill="#1E1E1E"/>
<path d="M99.583 69.6943H18.1758V70.574H99.583V69.6943Z" fill="#1E1E1E"/>
<path d="M99.583 76.6709H18.1758V77.5505H99.583V76.6709Z" fill="#1E1E1E"/>
<path d="M69.943 83.6387H18.1758V84.5183H69.943V83.6387Z" fill="#1E1E1E"/>
<path d="M105.95 111.732C103.323 133.048 96.5663 158.198 104.057 179.169C109.926 195.589 124.093 207.435 139.045 215.498C171.95 233.215 219.506 238.881 246.006 206.944C256.593 194.189 260.408 166.195 245.404 154.672C237.694 148.808 228.127 146.799 219.154 143.611C207.298 139.425 199.096 131.963 194.371 120.264C185.141 97.467 188.553 81.6045 188.333 57.6861C188.274 53.2513 187.599 48.8312 183.513 44.7849C180.138 40.702 175.34 37.7186 170.035 35.8714C165.575 33.6723 160.82 32.2063 155.795 32.3676C145.186 32.6461 134.335 41.5523 125.715 46.9547C117.094 52.357 112.722 58.529 111.276 68.7986C109.317 83.0705 107.733 97.4231 105.95 111.732Z" fill="#1E1E1E"/>
<path d="M102.505 121.613C106.173 102.225 110.23 82.9465 114.155 63.6167C114.155 63.4995 114.361 63.5141 114.346 63.6167C111.573 79.6186 109.027 95.6277 106.048 111.6C103.114 127.243 99.0564 143.12 97.5231 158.975C94.0748 194.549 129.606 211.907 160.06 212.522C161.447 212.522 161.249 214.721 159.848 214.677C133.128 213.292 102.006 201.718 96.2171 172.162C93.0477 155.97 99.5039 137.454 102.505 121.613Z" fill="#1E1E1E"/>
<path d="M186.751 55.6775C186.758 55.5997 186.797 55.5282 186.857 55.4787C186.918 55.4292 186.996 55.4058 187.074 55.4136C187.151 55.4213 187.223 55.4597 187.272 55.5202C187.322 55.5807 187.345 55.6583 187.338 55.7361C186.707 75.403 184.124 98.2513 193.941 116.196C198.796 125.027 206.213 132.182 215.217 136.72C222.341 140.29 230.132 141.155 237.711 143.266C267.358 151.52 264.482 192.158 241.379 206.306C240.888 206.599 240.359 205.778 240.836 205.455C257.19 194.394 263.998 172.506 252.722 155.17C243.668 141.243 223.991 143.918 210.8 135.76C183.471 118.856 183.933 84.082 186.751 55.6775Z" fill="#1E1E1E"/>
<path d="M250.477 245.802C245.628 267.793 216.421 271.575 212.122 266.656C194.785 246.77 176.994 208.696 157.75 166.233C142.702 133.034 153.157 132.367 166.943 141.574C198.996 162.971 253.104 233.964 250.477 245.802Z" fill="#FFB000"/>
<path opacity="0.4" d="M159.747 137.614C158.661 138.298 157.559 138.95 156.438 139.571C154.489 140.662 152.461 141.608 150.371 142.4C150.371 142.085 150.371 141.792 150.408 141.506C153.317 140.348 156.112 138.922 158.757 137.247C159.08 137.35 159.41 137.474 159.747 137.614ZM194.119 165.468C189.638 166.863 184.994 167.666 180.305 167.858C172.708 168.094 165.109 167.479 157.649 166.025L157.744 166.231C157.847 166.465 157.957 166.692 158.06 166.964C168.331 168.782 178.683 169.705 189.094 167.697C191.026 167.333 192.933 166.843 194.802 166.231L194.119 165.468ZM229.629 219.25C230.511 216.197 231.047 213.055 231.228 209.882L230.494 208.848C230.358 213.719 229.29 218.519 227.347 222.988C225.469 227.079 222.402 231.601 217.941 233.126C213.481 234.651 209.614 232.071 207.406 228.369C202.05 219.433 206.614 208.519 206.438 198.894C206.313 191.938 203.73 183.794 196.585 181.162C189.982 178.729 182.439 182.32 178.316 187.584C175.184 191.586 174.032 196.512 174.061 201.511C174.377 202.171 174.692 202.823 175 203.475C174.589 196.607 176.24 189.731 181.875 185.15C184.963 182.636 188.976 180.994 193.012 181.258C197.553 181.551 201.229 184.483 203.283 188.448C208.022 197.714 204.083 208.145 204.053 217.894C204.053 224.235 206.68 233.229 214.075 234.321C222.211 235.538 227.648 225.781 229.629 219.25ZM242.761 227.042C241.228 228.867 239.629 230.656 237.978 232.386C231.375 239.283 224.038 245.947 220.01 254.757C217.992 259.041 216.988 263.731 217.076 268.465L217.985 268.538C217.837 266.053 218.067 263.559 218.668 261.142C221.096 251.202 228.205 243.66 235.146 236.535C237.934 233.668 240.641 230.758 243.216 227.738C243.018 227.511 242.879 227.277 242.732 227.042H242.761Z" fill="white"/>
<path opacity="0.1" d="M250.475 245.8C245.633 267.79 216.419 271.573 212.127 266.654C194.798 246.767 176.999 208.694 157.755 166.231C150.47 150.148 148.892 140.179 152.084 137.364L250.219 241.402C250.625 242.831 250.713 244.333 250.475 245.8Z" fill="black"/>
<path d="M218.667 261.569C209.724 249.972 212.798 225.9 219.247 168.219C220.142 160.243 280.288 156.732 279.774 165.287C279.129 176.084 270.464 219.046 267.97 225.394C255.761 256.65 224.727 269.434 218.667 261.569Z" fill="#E5B9AA"/>
<path d="M281.979 142.893C283.351 154.496 276.844 179.331 272.992 184.719C269.14 190.106 226.5 180.489 223.617 174.317C220.733 168.145 219.156 128.716 225.473 118.608C231.79 108.499 280.556 130.864 281.979 142.893Z" fill="#E5B9AA"/>
<path d="M218.883 136.112C224.591 138.524 226.271 133.715 226.271 133.715C226.271 133.715 223.637 145.444 229.513 148.962C235.185 152.341 239.205 143.391 239.499 142.753C239.367 143.376 237.232 154.21 243.497 157.143C250.012 160.185 252.506 150.509 252.668 149.886C252.727 150.509 253.629 158.777 258.897 159.921C267.95 161.885 266.233 140.686 271.31 135.181C271.31 135.181 281.633 142.731 281.978 142.893C281.978 142.893 280.745 122.683 272.924 116.24C271.805 115.292 270.397 114.752 268.93 114.709C267.464 114.666 266.026 115.124 264.854 116.005C264.854 116.005 265.177 109.408 260.313 106.982C257.818 105.729 253.578 108.602 253.578 108.602C253.578 108.602 253.578 103.339 249.176 101.418C245.625 99.8717 241.927 102.994 241.927 102.994C241.927 102.994 247.51 76.7449 240.79 74.4799C229.213 70.5802 220.416 127.411 215.581 129.808C213.138 130.996 216.425 135.057 218.883 136.112Z" fill="#E5B9AA"/>
<path d="M241.22 103.397C241.228 103.387 241.233 103.377 241.236 103.366C241.239 103.355 241.24 103.343 241.239 103.331C241.237 103.32 241.234 103.309 241.228 103.298C241.222 103.288 241.215 103.279 241.206 103.272C241.196 103.265 241.186 103.259 241.175 103.256C241.164 103.253 241.152 103.252 241.14 103.254C241.129 103.255 241.117 103.259 241.107 103.264C241.097 103.27 241.088 103.278 241.081 103.287C233.392 111.497 227.457 122.866 226.041 134.074C225.997 134.44 226.775 135.987 226.841 135.576C228.792 125.373 234.544 113.285 241.22 103.397Z" fill="#1E1E1E"/>
<path d="M253.574 108.426C253.647 108.316 253.471 108.191 253.376 108.294C245.496 116.79 239.172 129.794 239.055 142.922C239.055 143.369 239.502 143.78 239.546 143.259C240.28 134.536 247.521 117.296 253.574 108.426Z" fill="#1E1E1E"/>
<path d="M252.981 150.802C253.568 138.216 258.116 127.089 264.477 116.35C264.565 116.211 264.36 116.108 264.257 116.211C259.723 120.609 256.392 127.902 254.287 133.803C252.228 139.225 251.626 145.09 252.541 150.816C252.577 151.014 252.966 151.073 252.981 150.802Z" fill="#1E1E1E"/>
<path d="M226.087 133.816C226.029 134.256 227.21 133.553 227.173 133.992C226.755 138.816 226.439 147.48 230.291 148.704C233.38 149.679 236.835 146.212 237.628 144.357L239.645 139.703L239.374 144.782C239.227 147.035 239.452 149.296 240.042 151.475C240.636 153.593 241.802 155.55 243.607 156.393C244.457 156.869 245.444 157.039 246.404 156.875C247.364 156.711 248.239 156.223 248.882 155.492C250.288 153.826 251.247 151.831 251.67 149.694L253.035 143.829L253.658 149.789C253.831 151.446 254.216 153.075 254.803 154.634C255.301 156.134 256.23 157.454 257.473 158.431C258.052 158.846 258.735 159.091 259.445 159.139C260.155 159.187 260.865 159.036 261.494 158.702C262.748 157.969 263.651 156.452 264.37 154.942C265.786 151.834 266.571 148.345 267.495 144.988C267.95 143.287 268.405 141.579 268.962 139.893C269.52 138.207 270.1 136.477 271.325 135.172C270.254 136.587 269.858 138.346 269.432 140.025C269.007 141.704 268.698 143.456 268.383 145.156C267.826 148.678 266.934 152.139 265.72 155.492C264.986 157.141 264.172 158.915 262.426 160.11C261.524 160.664 260.48 160.944 259.422 160.914C258.363 160.884 257.337 160.546 256.468 159.941C254.886 158.776 253.688 157.165 253.027 155.316C252.345 153.589 251.892 151.78 251.677 149.936L253.666 150.031C253.212 152.567 252.102 154.94 250.445 156.914C249.492 157.985 248.194 158.69 246.777 158.908C245.384 159.076 243.972 158.82 242.727 158.175C240.181 156.914 238.831 154.326 238.2 151.951C237.59 149.544 237.38 147.053 237.576 144.577L239.323 144.995C238.222 147.311 234.788 151.592 229.785 150.705C223.483 148.587 225.544 136.081 226.087 133.816Z" fill="#1E1E1E"/>
<path d="M223.617 174.315C223.617 174.315 203.808 148.755 204.608 137.847C205.407 126.94 226.801 115.52 235.275 112.602C246.969 108.571 248.686 117.352 244.812 122.799C240.322 129.103 230.733 135.927 230.073 136.411C230.073 136.411 247.145 144.657 248.576 158.401C250.007 172.145 223.617 174.315 223.617 174.315Z" fill="#E5B9AA"/>
<path d="M219.597 120.522C223.627 117.728 227.899 115.299 232.362 113.265C234.608 112.165 237.011 111.423 239.486 111.066C246.148 110.333 249.266 115.845 246.273 121.563C245.063 123.763 243.571 125.796 241.834 127.61C238.495 131.286 234.628 134.445 230.36 136.985L230.272 135.805C238.841 139.522 245.862 147.028 248.166 156.147C245.069 147.072 237.513 139.808 228.569 136.546C233.108 133.869 237.21 130.514 240.734 126.598C241.335 125.931 242.509 124.553 243.067 123.85C245.774 120.764 248.07 114.467 242.927 112.598C239.516 111.425 235.987 112.862 232.693 114.064C228.179 115.902 223.799 118.05 219.582 120.492L219.597 120.522Z" fill="#1E1E1E"/>
<path d="M281.724 205.663L215.951 190.959C215.951 190.959 201.116 254.153 210.522 265.199C214.726 270.132 228.262 282.315 239.766 280.072C266.229 274.912 281.724 205.663 281.724 205.663Z" fill="#FFB000"/>
<path opacity="0.4" d="M214.036 234.322C211.995 234.025 210.113 233.055 208.688 231.566C208.739 231.156 208.79 230.753 208.834 230.342C211.116 232.9 214.381 234.337 217.924 233.128C222.385 231.603 225.452 227.08 227.33 222.99C231.167 214.589 230.903 204.855 229.956 195.868C229.89 195.26 229.824 194.651 229.751 194.043L230.602 194.226C231.526 202.546 232.025 211.144 229.604 219.251C227.653 225.783 222.216 235.539 214.036 234.322ZM260.198 200.845L259.347 200.655C254.07 212.369 246.835 223.099 237.953 232.387C231.35 239.285 224.014 245.948 219.986 254.759C217.638 259.89 216.318 266.062 217.381 271.699C217.778 272.022 218.181 272.337 218.592 272.652C217.635 268.875 217.635 264.92 218.592 261.144C221.02 251.204 228.13 243.661 235.07 236.536C241.673 229.77 247.762 222.763 252.788 214.736C255.581 210.285 258.057 205.644 260.198 200.845ZM263.441 248.257C260.095 248.521 257.241 250.632 255.128 253.11C249.883 259.282 249.523 267.257 246.86 274.572C246.438 275.75 245.928 276.894 245.334 277.996C245.774 277.754 246.207 277.497 246.64 277.219C247.978 274.102 249.014 270.864 249.736 267.55C250.726 263.504 251.739 259.575 254.013 256.02C256.214 252.626 259.582 249.203 263.874 249.063C264.925 249.024 265.975 249.191 266.962 249.555C267.08 249.305 267.197 249.056 267.307 248.821C266.076 248.35 264.755 248.157 263.441 248.257Z" fill="white"/>
<path d="M215.192 208.232C222.654 209.698 230.174 210.702 237.694 211.721C245.214 212.74 252.749 213.766 260.298 214.602C264.561 215.063 268.823 215.562 273.1 215.877C273.218 215.877 273.254 215.701 273.137 215.679C265.69 214.213 258.17 213.18 250.665 212.109C243.16 211.039 235.603 210.057 228.068 209.141C223.806 208.62 219.536 208.18 215.258 207.858C215.046 207.843 214.958 208.188 215.192 208.232Z" fill="#1E1E1E"/>
<path d="M216.672 190.7C216.004 190.428 215.065 190.121 215.029 190.275C214.031 194.379 213.378 198.858 212.732 203.036C212.087 207.215 211.558 211.298 211.082 215.439C210.817 217.675 210.605 219.903 210.458 222.139C209.247 224.898 208.568 227.859 208.455 230.869C208.455 231.023 208.712 231.038 208.727 230.869C208.934 228.208 209.499 225.587 210.407 223.077C209.994 228.539 210.404 234.032 211.624 239.372C211.624 239.409 211.683 239.372 211.676 239.372C209.915 231.39 211.536 222.894 212.483 214.904C212.96 210.902 213.517 206.914 214.104 202.927C214.691 198.939 215.425 194.988 215.953 191.008C215.953 191.008 216.687 191.176 216.804 191.198C216.922 191.22 216.797 190.751 216.672 190.7Z" fill="#1E1E1E"/>
<path d="M199.079 286.339L193.635 229.105C193.635 229.105 203.334 208.801 192.946 191.201C187.693 182.28 174.281 149.631 158.339 137.874C139.586 124.034 121.582 136.774 114.576 146.252C100.548 165.244 79.7343 205.487 68.2598 286.361L199.079 286.339Z" fill="#FFB000"/>
<path opacity="0.4" d="M158.796 138.2C158.018 138.676 157.233 139.131 156.441 139.571C149.838 143.236 141.826 145.86 134.328 143.588C129.53 142.122 127.065 139.402 126.185 135.993L126.918 135.583C127.178 136.705 127.659 137.764 128.334 138.698C131.049 142.429 136.104 143.61 140.476 143.558C146.852 143.485 152.684 140.912 158.084 137.694L158.356 137.892L158.796 138.2ZM160.183 236.586C154.709 233.133 147.263 233.654 141.702 236.586C134.783 240.251 131.137 248.036 129.838 255.461C128.048 265.687 130.425 276.052 131.834 286.336H132.567C131.217 276.477 128.995 266.544 130.447 256.744C131.672 248.446 135.744 239.708 143.983 236.425C150.843 233.698 160.08 234.761 163.932 241.754C168.898 250.792 162.251 261.655 158.627 269.916C156.426 274.989 154.739 280.706 154.819 286.329H155.678C155.658 285.284 155.698 284.239 155.795 283.199C156.661 273.559 162.303 265.606 165.127 256.531C167.358 249.465 167.086 240.94 160.183 236.586ZM91.9519 238.785C86.6875 238.07 81.3279 238.831 76.4716 240.984C76.3982 241.314 76.3248 241.644 76.2441 241.981C81.6586 239.533 87.9314 238.55 93.6319 239.987C97.3322 240.84 100.578 243.047 102.729 246.174C105.371 250.169 105.715 255.036 104.725 259.617C102.619 269.352 95.7669 277.855 89.23 285.068C88.8338 285.508 88.4303 285.933 88.0194 286.358H89.1713C92.4168 282.847 95.4288 279.127 98.188 275.223C102.883 268.589 107.315 260.057 105.803 251.664C104.549 244.62 98.8776 239.862 91.9665 238.792L91.9519 238.785ZM138.767 181.397C130.557 182.65 123.03 186.469 115.576 189.936C108.122 193.404 100.029 197.039 91.541 196.754C90.7633 196.754 89.971 196.666 89.1786 196.57L88.8925 197.362C96.6253 198.359 104.182 195.896 111.196 192.825C119.215 189.357 126.918 184.959 135.465 182.914C143.763 180.891 155.098 181.243 159.207 190.2C163.044 198.564 158.715 208.313 152.362 214.075C146.008 219.836 137.27 222.739 128.774 223.355C113.089 224.542 98.4301 218.392 83.6321 213.547L83.412 214.28C101.203 219.976 120.051 227.973 138.884 222.343C146.111 220.144 152.883 216.047 157.226 209.779C161.408 203.761 163.176 195.068 159.236 188.478C155.076 181.514 146.155 180.283 138.782 181.404L138.767 181.397ZM180.864 167.814H180.292C158.392 168.84 137.608 159.839 115.884 158.798C112.676 158.632 109.461 158.671 106.258 158.915L105.759 159.787C112.753 159.302 119.78 159.632 126.698 160.77C144.761 163.43 162.941 169.837 181.334 168.657L180.864 167.814ZM195.369 247.266C187.966 236.183 180.292 225.275 176.551 212.279C173.887 203.057 173.748 191.71 181.855 185.157C183.695 183.646 185.817 182.515 188.098 181.829L187.717 181.096C183.988 182.261 180.698 184.522 178.275 187.583C172.787 194.591 173.388 204.443 175.721 212.506C179.632 226.052 187.798 237.429 195.53 249.091L195.369 247.266Z" fill="white"/>
<path d="M141.726 223.852C148.099 223.693 154.475 224.004 160.802 224.783C163.942 225.208 167.045 225.78 170.148 226.417C171.697 226.74 173.237 227.004 174.8 227.268C176.423 227.582 178.079 227.7 179.73 227.62C179.755 227.626 179.778 227.641 179.794 227.661C179.81 227.682 179.818 227.707 179.818 227.733C179.818 227.759 179.81 227.784 179.794 227.805C179.778 227.826 179.755 227.84 179.73 227.847C178.189 228.098 176.632 228.248 175.071 228.294C173.557 228.287 172.044 228.177 170.545 227.964C167.353 227.561 164.184 227.004 161.007 226.571C154.58 225.684 148.161 224.805 141.682 224.372C141.404 224.365 141.426 223.859 141.726 223.852Z" fill="#1E1E1E"/>
<path d="M126.781 231.22C131.91 230.077 137.101 229.228 142.327 228.677C144.946 228.405 147.566 228.288 150.192 228.244C151.454 228.244 152.709 228.244 153.963 228.244C155.35 228.244 156.729 228.464 158.108 228.457C158.255 228.457 158.284 228.677 158.108 228.684C156.802 228.728 155.497 228.985 154.198 229.102L150.288 229.446C147.668 229.681 145.064 229.945 142.445 230.179C137.214 230.597 132.005 231.074 126.781 231.645C126.546 231.682 126.517 231.279 126.781 231.22Z" fill="#1E1E1E"/>
<path d="M112.017 146.923C74.5999 183.985 27.2053 262.279 35.7158 278.354C45.1873 296.254 97.2774 244.305 97.1086 241.234C96.9839 238.91 115.634 191.242 129.764 156.577C143.894 121.913 121.268 137.761 112.017 146.923Z" fill="#E5B9AA"/>
<path d="M97.4401 241.293C99.0762 236.162 124.424 173.342 131.695 153.456C138.224 135.607 134.974 128.218 119.956 139.162C92.2751 159.305 37.2431 221.377 26.8177 253.681C16.7739 284.805 42.6575 287.642 64.0511 273.473C81.5636 261.928 97.4401 241.293 97.4401 241.293Z" fill="#FFB000"/>
<path opacity="0.4" d="M91.9691 238.793C93.9569 239.095 95.8808 239.724 97.6623 240.655C97.5694 240.919 97.496 241.131 97.4422 241.293L97.3688 241.388C96.1904 240.771 94.9414 240.298 93.6492 239.981C86.2685 238.119 77.9341 240.318 71.7347 244.496C63.8258 249.825 58.0225 257.632 51.0601 264.024C45.3302 269.257 38.8813 273.238 31.0311 274.132C29.4752 274.313 27.9063 274.355 26.343 274.257C26.1923 273.974 26.0576 273.682 25.9395 273.384C27.484 273.531 29.039 273.531 30.5835 273.384C39.2187 272.519 46.0565 267.777 52.1385 261.891C58.5801 255.66 64.2513 248.33 71.8741 243.44C77.692 239.687 85.102 237.738 91.9691 238.793ZM68.1251 209.399C63.4472 208.466 58.6836 208.031 53.914 208.102L53.2831 208.937C63.2976 208.571 73.2167 211.085 82.7029 214.068C90.0396 216.399 97.5743 219.156 105.204 221.215C105.292 221.003 105.373 220.79 105.461 220.57C92.9449 217.213 80.7 211.811 68.1251 209.399ZM91.5582 196.762C86.9508 196.601 81.9546 195.362 78.6238 191.99C76.2238 189.406 74.9332 185.985 75.0288 182.461C74.7647 182.768 74.4932 183.069 74.2218 183.377C74.3251 186.644 75.5504 189.776 77.692 192.246C80.4359 195.274 84.4931 196.762 88.4475 197.378C96.3417 198.536 104.06 195.999 111.191 192.899C113.326 191.975 115.446 190.986 117.567 189.967L118.007 188.845L115.571 189.989C108.073 193.441 100.047 197.048 91.5582 196.762ZM115.916 158.843C109.006 158.399 102.07 159.07 95.3733 160.829C94.9478 161.24 94.5222 161.665 94.0967 162.09C94.4709 161.965 94.8304 161.855 95.2266 161.745C105.439 158.813 116.275 159.231 126.693 160.763C127.427 160.866 128.109 160.976 128.821 161.093C128.924 160.836 129.019 160.58 129.114 160.323C124.747 159.574 120.34 159.08 115.916 158.843ZM128.344 138.699C127.559 137.612 127.037 136.357 126.818 135.034C126.576 135.137 126.319 135.254 126.084 135.379C126.818 139.044 129.283 142.042 134.367 143.581L134.536 143.632C134.588 143.354 134.632 143.075 134.668 142.812C132.152 142.193 129.919 140.744 128.329 138.699H128.344Z" fill="white"/>
<path d="M94.2012 249.423C102.516 225.478 111.785 201.897 122.007 178.68C113.692 202.625 104.424 226.206 94.2012 249.423Z" fill="#1E1E1E"/>
<path d="M116.867 192.459C118.372 189.476 120.224 186.681 122.384 184.132C121.074 187.223 119.204 190.046 116.867 192.459Z" fill="#1E1E1E"/>
<path d="M36.3219 277.989C46.3731 288.471 69.1239 287.239 126.687 289.512C134.655 289.827 151.998 234.257 143.51 233.487C132.821 232.512 91.1118 231.046 88.0451 231.325C62.2055 233.67 29.4988 270.871 36.3219 277.989Z" fill="#E5B9AA"/>
<path d="M134.59 235.539C134.59 235.539 156.226 229.008 168.654 229.096C185.294 229.213 199.615 236.155 205.44 239.431C217.597 246.256 242.27 271.171 236.335 279.527C230.949 287.085 206.988 260.344 206.988 260.344C206.988 260.344 235.894 283.588 227.743 291.498C219.592 299.407 193.577 266.795 193.577 266.795C193.577 266.795 222.74 291.336 213.041 298.168C205.704 303.299 180.481 275.115 180.481 275.115C180.481 275.115 205.425 296.372 198.089 302.016C190.018 308.247 165.074 283.654 165.074 283.654C144.084 294.855 129.506 291.608 119.403 288.052C117.012 287.195 134.59 235.539 134.59 235.539Z" fill="#E5B9AA"/>
<path d="M197.542 251.664C201.034 254.273 204.592 256.89 207.813 259.8C211.034 262.71 214.211 265.73 217.175 268.926C224.445 276.77 227.776 282.817 227.527 282.465C221.709 274.16 210.234 263.568 206.984 260.658C203.734 257.748 200.645 254.691 197.402 251.788C197.351 251.708 197.454 251.598 197.542 251.664Z" fill="#1E1E1E"/>
<path d="M186.813 263.194C191.127 266.713 195.544 270.055 199.711 273.764C203.878 277.473 207.458 281.329 211.332 285.302C211.633 285.61 211.369 285.669 211.061 285.375C207.025 281.564 202.99 278.346 198.926 274.578C194.861 270.81 190.914 266.889 186.718 263.289C186.652 263.231 186.747 263.143 186.813 263.194Z" fill="#1E1E1E"/>
<path d="M175.821 271.456C182.696 276.499 188.631 282.803 194.302 289.129C194.588 289.444 194.243 289.488 193.935 289.18C187.897 283.191 183.209 278.449 175.645 271.697C175.528 271.573 175.682 271.331 175.821 271.456Z" fill="#1E1E1E"/>
<path d="M133.166 226.837L93.0498 301.114C93.0498 301.114 36.1176 289.781 29.0377 278.097C23.9755 269.763 58.4576 234.556 86.9971 231.037L133.166 226.837Z" fill="#FFB000"/>
<path opacity="0.4" d="M98.2024 275.218C95.3827 279.205 92.3019 283 88.9802 286.58C85.6787 290.143 81.893 293.214 78.6209 296.784C78.3495 297.084 78.0853 297.385 77.8432 297.693L76.9628 297.48C77.5421 296.741 78.1643 296.036 78.8263 295.369C82.2452 291.873 85.9502 288.699 89.2444 285.063C95.7813 277.85 102.634 269.347 104.739 259.612C105.73 255.031 105.385 250.164 102.744 246.169C100.593 243.042 97.3466 240.835 93.6463 239.982C86.2657 238.12 77.9313 240.319 71.7318 244.498C63.8229 249.827 58.0197 257.633 51.0572 264.025C45.3273 269.259 38.8784 273.239 31.0282 274.133C30.2945 274.221 29.5609 274.273 28.7832 274.302C28.8454 274.019 28.9263 273.739 29.0253 273.466C29.5462 273.466 30.0671 273.408 30.5807 273.357C39.2159 272.492 46.0536 267.749 52.1357 261.863C58.5772 255.632 64.2485 248.302 71.8712 243.413C77.6892 239.689 85.0771 237.732 91.9662 238.795C98.8553 239.858 104.549 244.622 105.818 251.659C107.329 260.052 102.898 268.585 98.2024 275.218Z" fill="white"/>
<path d="M54.8452 247.113C58.4182 242.715 70.5676 233.266 87.0237 230.986C87.1704 230.986 87.2364 231.192 87.0897 231.228C74.9989 234.109 58.807 243.345 55.0213 247.267C54.9039 247.391 54.7572 247.223 54.8452 247.113Z" fill="#1E1E1E"/>
<path d="M84.1351 287.488C87.4365 280.026 91.1342 272.747 94.8465 265.497C98.5589 258.248 102.271 250.932 106.167 243.749C108.368 239.695 110.569 235.627 112.895 231.646C112.961 231.544 113.151 231.646 113.1 231.734C109.806 239.182 106.138 246.483 102.477 253.762C98.8156 261.04 95.0593 268.327 91.2442 275.547C89.0873 279.63 86.8423 283.676 84.5166 287.656C84.3992 287.847 84.0397 287.708 84.1351 287.488Z" fill="#1E1E1E"/>
<path d="M133.063 226.127C129.88 226.034 126.693 226.154 123.526 226.487C120.356 226.729 117.187 227.029 114.025 227.359C107.737 228.004 94.326 228.671 83.211 231.684C83.0937 231.72 83.886 232.146 84.0034 232.109C89.2271 230.401 129.263 227.762 132.425 227.154C132.352 227.393 132.298 227.638 132.264 227.887C132.264 228.063 132.447 228.217 132.579 228.063C132.902 227.696 133.093 227.33 133.379 226.904C133.443 226.841 133.486 226.761 133.504 226.673C133.522 226.585 133.514 226.494 133.48 226.411C133.446 226.328 133.389 226.257 133.315 226.206C133.24 226.156 133.153 226.128 133.063 226.127Z" fill="#1E1E1E"/>
<path d="M118.025 140.59C118.025 140.59 137.629 163.812 154.136 164.78C170.644 165.747 172.537 145.619 172.537 145.619C172.537 145.619 162.075 133.854 147.79 131.765C142.485 130.99 137.075 131.379 131.935 132.903C126.795 134.427 122.049 137.05 118.025 140.59Z" fill="#E5B9AA"/>
<path d="M133.46 138.684C133.973 141.279 144.465 157.449 156.159 155.331C164.369 153.865 161.955 137.306 161.955 137.306L168.001 114.325L139.49 94.7979C139.49 94.7979 133.262 137.584 133.46 138.684Z" fill="#E5B9AA"/>
<path d="M137.326 109.839C139.469 115.678 142.789 121.015 147.08 125.52C151.37 130.025 156.541 133.602 162.271 136.03L167.964 114.333L139.505 94.7979C139.505 94.7979 138.522 101.6 137.326 109.839Z" fill="#1E1E1E"/>
<path d="M198.77 78.4892C204.001 117.061 181.433 124.53 173.091 125.637C165.52 126.649 139.614 129.126 130.414 91.3024C121.214 53.4786 137.538 38.8695 154.728 35.6442C171.918 32.4189 193.539 39.925 198.77 78.4892Z" fill="#E5B9AA"/>
<path d="M189.635 74.1767C188.735 74.0901 187.842 73.9555 186.957 73.7735C185.93 73.6123 185.101 73.583 184.308 72.8426C184.106 72.6114 183.986 72.3192 183.969 72.0124C183.952 71.7056 184.038 71.4018 184.213 71.1493C185.013 70.1084 186.318 69.9985 187.566 70.1451C188.821 70.2589 189.991 70.8303 190.853 71.7504C191.044 71.9697 191.166 72.241 191.203 72.5299C191.24 72.8187 191.19 73.112 191.059 73.3722C190.929 73.6325 190.723 73.848 190.47 73.9913C190.216 74.1346 189.925 74.1991 189.635 74.1767Z" fill="#1E1E1E"/>
<path d="M162.823 76.9498C163.706 76.7529 164.578 76.5082 165.435 76.2168C166.433 75.9382 167.254 75.8136 167.959 74.9926C168.131 74.7374 168.215 74.4324 168.196 74.1249C168.177 73.8175 168.058 73.5247 167.856 73.292C166.932 72.3538 165.618 72.3977 164.408 72.691C163.171 72.942 162.072 73.6452 161.326 74.6628C161.154 74.9031 161.059 75.1896 161.053 75.4849C161.047 75.7802 161.13 76.0704 161.292 76.3176C161.454 76.5648 161.686 76.7575 161.96 76.8703C162.233 76.9831 162.534 77.0108 162.823 76.9498Z" fill="#1E1E1E"/>
<path d="M169.07 85.2024C169.07 85.1071 168.872 85.349 168.886 85.459C169.187 88.0979 169.092 91.1839 166.759 92.2614C166.685 92.2614 166.7 92.4227 166.759 92.408C169.693 91.7556 169.781 87.6654 169.07 85.2024Z" fill="#1E1E1E"/>
<path d="M166.462 82.6309C162.163 82.6309 162.53 91.2366 166.521 91.2146C170.512 91.1926 170.072 82.6089 166.462 82.6309Z" fill="#1E1E1E"/>
<path d="M164.802 83.1493C164.068 83.6698 163.371 84.5567 162.469 84.6887C161.419 84.8353 160.59 83.9557 159.871 83.1347C159.798 83.0467 159.725 83.1347 159.725 83.2373C159.776 84.8866 160.458 86.5432 162.256 86.7118C163.884 86.8731 164.978 85.3631 165.315 83.6918C165.381 83.3839 165.073 82.9441 164.802 83.1493Z" fill="#1E1E1E"/>
<path d="M184.356 83.6764C184.356 83.5738 184.568 83.801 184.568 83.9036C184.568 86.5718 185.038 89.6139 187.503 90.4202C187.577 90.4202 187.577 90.5741 187.503 90.5668C184.51 90.2516 183.938 86.2053 184.356 83.6764Z" fill="#1E1E1E"/>
<path d="M186.635 80.8194C190.912 80.3503 191.551 88.8826 187.589 89.3518C183.627 89.8209 183.048 81.2153 186.635 80.8194Z" fill="#1E1E1E"/>
<path d="M188.474 81.2522C189.207 81.6553 189.941 82.4323 190.733 82.425C191.68 82.425 192.303 81.4428 192.839 80.5045C192.898 80.4092 192.971 80.5045 192.978 80.5925C193.147 82.2271 192.729 83.9717 191.181 84.4042C189.758 84.7927 188.598 83.4659 188.085 81.8679C187.989 81.604 188.187 81.0909 188.474 81.2522Z" fill="#1E1E1E"/>
<path d="M171.343 106.599C171.981 107.222 172.612 108.065 173.581 108.168C174.575 108.15 175.554 107.925 176.457 107.508C176.474 107.499 176.495 107.496 176.514 107.5C176.534 107.504 176.552 107.514 176.565 107.53C176.577 107.545 176.585 107.564 176.585 107.584C176.585 107.604 176.579 107.624 176.567 107.64C176.188 108.168 175.672 108.584 175.075 108.842C174.478 109.1 173.822 109.191 173.177 109.106C171.974 108.893 171.372 107.852 171.086 106.745C171.042 106.562 171.248 106.526 171.343 106.599Z" fill="#1E1E1E"/>
<path d="M181.947 96.3887C181.947 96.3887 182.68 100.332 182.812 102.202C182.812 102.377 182.372 102.487 181.741 102.553C181.705 102.553 181.69 102.553 181.668 102.553C180.072 102.934 178.402 102.869 176.841 102.366C175.279 101.864 173.886 100.942 172.813 99.7019C172.673 99.526 172.901 99.3208 173.084 99.4234C175.652 101.102 178.418 101.425 181.36 101.315C181.463 100.787 179.819 94.6074 180.113 94.5708C181.132 94.4315 183.194 95.0179 184.427 95.3038C183.069 87.05 180.391 79.0821 179.159 70.8503C179.151 70.7903 179.166 70.7297 179.199 70.679C179.232 70.6284 179.281 70.591 179.339 70.5735C179.397 70.556 179.459 70.5595 179.515 70.5833C179.57 70.6071 179.616 70.6497 179.643 70.7037C183.04 78.8548 184.815 88.2961 186.444 96.7992C186.679 97.862 182.732 96.6672 181.947 96.3887Z" fill="#1E1E1E"/>
<path d="M180.521 102.005C179.658 103.369 178.457 104.487 177.036 105.252C176.253 105.65 175.364 105.789 174.497 105.648C172.597 105.333 172.392 103.647 172.597 102.159C172.716 101.371 172.926 100.598 173.221 99.8574C175.363 101.333 177.92 102.085 180.521 102.005Z" fill="#1E1E1E"/>
<path d="M177.036 105.253C176.253 105.65 175.364 105.789 174.497 105.648C172.597 105.333 172.392 103.647 172.597 102.159C174.607 102.181 176.691 103.347 177.036 105.253Z" fill="#F57070"/>
<path d="M132.856 93.5696C139.914 94.6178 142.078 78.462 142.078 78.462C142.078 78.462 172.335 74.0126 175.423 49.5517C175.423 49.5517 182.217 64.8719 197.851 72.2754C197.851 72.2754 194.476 41.855 173.259 36.1668C173.259 36.1668 149.958 27.3706 133.458 47.7265C116.554 68.6103 128.124 92.8659 132.856 93.5696Z" fill="#1E1E1E"/>
<path d="M175.567 47.7393C175.836 51.5235 175.296 55.3217 173.982 58.8812C172.71 62.5132 170.699 65.8427 168.076 68.6596C167.421 69.3624 166.726 70.0258 165.992 70.6461L164.928 71.6137C164.547 71.9069 164.151 72.1781 163.762 72.4494C162.962 72.9845 162.192 73.5562 161.385 74.0547C160.578 74.5531 159.69 74.9343 158.832 75.3594C158.406 75.5647 157.988 75.7919 157.555 75.9825L156.213 76.4663L153.542 77.4266C151.708 77.8957 149.874 78.2622 148.018 78.6067C149.771 77.8737 151.554 77.3606 153.263 76.6349L155.787 75.4767L157.042 74.905C157.445 74.6851 157.827 74.4285 158.223 74.1719C159.008 73.6955 159.793 73.219 160.585 72.7646C161.378 72.3101 162.053 71.6797 162.786 71.1372L163.879 70.3163L164.877 69.3853C165.563 68.7894 166.212 68.153 166.821 67.4795C169.311 64.8081 171.321 61.7284 172.764 58.3754C173.508 56.6939 174.109 54.953 174.561 53.1709C175.057 51.3936 175.393 49.5759 175.567 47.7393Z" fill="#1E1E1E"/>
<path d="M175.743 86.7348L174.605 85.5693C176.278 83.8247 180.269 81.3178 183.409 84.2938L182.338 85.5326C179.55 82.8571 175.897 86.5882 175.743 86.7348Z" fill="#37474F"/>
<path d="M121.586 98.5964L119.957 98.2372C120.133 97.5042 121.718 90.7824 125.166 89.243C128.394 87.821 150.551 84.1559 151.49 84.002L151.761 85.6439C145.408 86.6921 128.335 89.6609 125.841 90.7751C123.567 91.7793 122.004 96.7638 121.586 98.5964Z" fill="#37474F"/>
<path d="M162.063 96.2652C159.29 96.1259 156.773 95.5321 155.328 94.4473C151.359 91.4712 148.916 80.4173 148.813 79.9555L148.578 78.8779H149.657C150.5 78.8779 170.361 78.9732 174.924 83.3493C177.382 85.7023 176.098 91.5225 174.454 93.2744C172.444 95.4002 166.876 96.4924 162.063 96.2652ZM150.801 80.6592C151.689 84.229 153.824 91.112 156.392 93.0325C159.847 95.6348 170.801 94.5939 173.185 92.0576C174.33 90.8481 175.305 86.1495 173.721 84.6321C170.559 81.6048 157.037 80.7325 150.801 80.6298V80.6592Z" fill="#37474F"/>
<path d="M189.483 92.6873C187.634 92.592 185.683 92.0642 184.472 90.7815C183.005 89.1981 181.501 85.0712 182.741 81.7433C184.56 76.8394 196.636 74.7503 198.001 74.5231L199.05 74.3545V75.4174C199.05 75.8572 198.837 86.2074 197.15 89.5207C196.343 91.104 194.413 92.2182 191.853 92.5847C191.068 92.696 190.274 92.7304 189.483 92.6873ZM197.231 76.4729C193.254 77.2426 185.529 79.3244 184.399 82.3371C183.394 85.0566 184.751 88.4725 185.763 89.5427C186.776 90.6129 189.19 91.1553 191.581 90.8108C193.533 90.5322 195.015 89.7406 195.551 88.6924C196.666 86.5226 197.113 79.9035 197.231 76.4729Z" fill="#37474F"/>
<path d="M138.497 90.7599C138.497 90.7599 129.407 79.0316 124.036 82.3155C118.666 85.5994 125.9 102.862 132.495 104.988C139.091 107.114 141.16 101.037 141.16 101.037L138.497 90.7599Z" fill="#E5B9AA"/>
<path d="M126.225 87.2158C126.122 87.2158 126.108 87.3551 126.225 87.3917C130.855 89.0117 133.452 93.102 135.337 97.3755C133.907 95.7628 132.021 94.9345 129.842 96.6425C129.732 96.7304 129.842 96.9137 129.982 96.8844C131.823 96.3932 133.18 96.6498 134.508 98.0792C135.4 99.1602 136.174 100.332 136.819 101.576C137.047 101.972 137.773 101.722 137.597 101.26L137.553 101.158C137.37 95.3743 132.476 87.5017 126.225 87.2158Z" fill="#1E1E1E"/>
</svg>
