<svg width="210" height="26" viewBox="0 0 210 26" fill="none" xmlns="http://www.w3.org/2000/svg">
<path d="M13.0013 2.16602L16.3488 8.94768L23.8346 10.0418L18.418 15.3177L19.6963 22.771L13.0013 19.2502L6.3063 22.771L7.58464 15.3177L2.16797 10.0418L9.6538 8.94768L13.0013 2.16602Z" fill="#FFB000" stroke="#FFB000" stroke-width="1.5" stroke-linecap="round" stroke-linejoin="round"/>
<path d="M52.3063 22.771L59.0013 19.2502V2.16602L55.6538 8.94768L48.168 10.0418L53.5846 15.3177L52.3063 22.771Z" fill="#FFB000"/>
<path d="M59.0013 2.16602L62.3488 8.94768L69.8346 10.0418L64.418 15.3177L65.6963 22.771L59.0013 19.2502M59.0013 2.16602L55.6538 8.94768L48.168 10.0418L53.5846 15.3177L52.3063 22.771L59.0013 19.2502M59.0013 2.16602V19.2502" stroke="#FFB000" stroke-width="1.5" stroke-linecap="round" stroke-linejoin="round"/>
<path d="M105.001 2.16602L108.349 8.94768L115.835 10.0418L110.418 15.3177L111.696 22.771L105.001 19.2502L98.3063 22.771L99.5846 15.3177L94.168 10.0418L101.654 8.94768L105.001 2.16602Z" stroke="#FFB000" stroke-width="1.5" stroke-linecap="round" stroke-linejoin="round"/>
<path d="M151.001 2.16602L154.349 8.94768L161.835 10.0418L156.418 15.3177L157.696 22.771L151.001 19.2502L144.306 22.771L145.585 15.3177L140.168 10.0418L147.654 8.94768L151.001 2.16602Z" stroke="#FFB000" stroke-width="1.5" stroke-linecap="round" stroke-linejoin="round"/>
<path d="M197.001 2.16602L200.349 8.94768L207.835 10.0418L202.418 15.3177L203.696 22.771L197.001 19.2502L190.306 22.771L191.585 15.3177L186.168 10.0418L193.654 8.94768L197.001 2.16602Z" stroke="#FFB000" stroke-width="1.5" stroke-linecap="round" stroke-linejoin="round"/>
</svg>
